G04 #@! TF.GenerationSoftware,KiCad,Pcbnew,5.1.5+dfsg1-2build2*
G04 #@! TF.CreationDate,2021-06-08T18:26:39-05:00*
G04 #@! TF.ProjectId,3inaudiomixer,33696e61-7564-4696-9f6d-697865722e6b,rev?*
G04 #@! TF.SameCoordinates,Original*
G04 #@! TF.FileFunction,Paste,Top*
G04 #@! TF.FilePolarity,Positive*
%FSLAX46Y46*%
G04 Gerber Fmt 4.6, Leading zero omitted, Abs format (unit mm)*
G04 Created by KiCad (PCBNEW 5.1.5+dfsg1-2build2) date 2021-06-08 18:26:39*
%MOMM*%
%LPD*%
G04 APERTURE LIST*
%ADD10C,0.100000*%
%ADD11R,1.840000X2.200000*%
%ADD12R,1.500000X1.000000*%
%ADD13R,1.800000X1.000000*%
G04 APERTURE END LIST*
D10*
G36*
X150715505Y-66346204D02*
G01*
X150739773Y-66349804D01*
X150763572Y-66355765D01*
X150786671Y-66364030D01*
X150808850Y-66374520D01*
X150829893Y-66387132D01*
X150849599Y-66401747D01*
X150867777Y-66418223D01*
X150884253Y-66436401D01*
X150898868Y-66456107D01*
X150911480Y-66477150D01*
X150921970Y-66499329D01*
X150930235Y-66522428D01*
X150936196Y-66546227D01*
X150939796Y-66570495D01*
X150941000Y-66594999D01*
X150941000Y-67245001D01*
X150939796Y-67269505D01*
X150936196Y-67293773D01*
X150930235Y-67317572D01*
X150921970Y-67340671D01*
X150911480Y-67362850D01*
X150898868Y-67383893D01*
X150884253Y-67403599D01*
X150867777Y-67421777D01*
X150849599Y-67438253D01*
X150829893Y-67452868D01*
X150808850Y-67465480D01*
X150786671Y-67475970D01*
X150763572Y-67484235D01*
X150739773Y-67490196D01*
X150715505Y-67493796D01*
X150691001Y-67495000D01*
X149790999Y-67495000D01*
X149766495Y-67493796D01*
X149742227Y-67490196D01*
X149718428Y-67484235D01*
X149695329Y-67475970D01*
X149673150Y-67465480D01*
X149652107Y-67452868D01*
X149632401Y-67438253D01*
X149614223Y-67421777D01*
X149597747Y-67403599D01*
X149583132Y-67383893D01*
X149570520Y-67362850D01*
X149560030Y-67340671D01*
X149551765Y-67317572D01*
X149545804Y-67293773D01*
X149542204Y-67269505D01*
X149541000Y-67245001D01*
X149541000Y-66594999D01*
X149542204Y-66570495D01*
X149545804Y-66546227D01*
X149551765Y-66522428D01*
X149560030Y-66499329D01*
X149570520Y-66477150D01*
X149583132Y-66456107D01*
X149597747Y-66436401D01*
X149614223Y-66418223D01*
X149632401Y-66401747D01*
X149652107Y-66387132D01*
X149673150Y-66374520D01*
X149695329Y-66364030D01*
X149718428Y-66355765D01*
X149742227Y-66349804D01*
X149766495Y-66346204D01*
X149790999Y-66345000D01*
X150691001Y-66345000D01*
X150715505Y-66346204D01*
G37*
G36*
X150715505Y-68396204D02*
G01*
X150739773Y-68399804D01*
X150763572Y-68405765D01*
X150786671Y-68414030D01*
X150808850Y-68424520D01*
X150829893Y-68437132D01*
X150849599Y-68451747D01*
X150867777Y-68468223D01*
X150884253Y-68486401D01*
X150898868Y-68506107D01*
X150911480Y-68527150D01*
X150921970Y-68549329D01*
X150930235Y-68572428D01*
X150936196Y-68596227D01*
X150939796Y-68620495D01*
X150941000Y-68644999D01*
X150941000Y-69295001D01*
X150939796Y-69319505D01*
X150936196Y-69343773D01*
X150930235Y-69367572D01*
X150921970Y-69390671D01*
X150911480Y-69412850D01*
X150898868Y-69433893D01*
X150884253Y-69453599D01*
X150867777Y-69471777D01*
X150849599Y-69488253D01*
X150829893Y-69502868D01*
X150808850Y-69515480D01*
X150786671Y-69525970D01*
X150763572Y-69534235D01*
X150739773Y-69540196D01*
X150715505Y-69543796D01*
X150691001Y-69545000D01*
X149790999Y-69545000D01*
X149766495Y-69543796D01*
X149742227Y-69540196D01*
X149718428Y-69534235D01*
X149695329Y-69525970D01*
X149673150Y-69515480D01*
X149652107Y-69502868D01*
X149632401Y-69488253D01*
X149614223Y-69471777D01*
X149597747Y-69453599D01*
X149583132Y-69433893D01*
X149570520Y-69412850D01*
X149560030Y-69390671D01*
X149551765Y-69367572D01*
X149545804Y-69343773D01*
X149542204Y-69319505D01*
X149541000Y-69295001D01*
X149541000Y-68644999D01*
X149542204Y-68620495D01*
X149545804Y-68596227D01*
X149551765Y-68572428D01*
X149560030Y-68549329D01*
X149570520Y-68527150D01*
X149583132Y-68506107D01*
X149597747Y-68486401D01*
X149614223Y-68468223D01*
X149632401Y-68451747D01*
X149652107Y-68437132D01*
X149673150Y-68424520D01*
X149695329Y-68414030D01*
X149718428Y-68405765D01*
X149742227Y-68399804D01*
X149766495Y-68396204D01*
X149790999Y-68395000D01*
X150691001Y-68395000D01*
X150715505Y-68396204D01*
G37*
G36*
X144492505Y-66473204D02*
G01*
X144516773Y-66476804D01*
X144540572Y-66482765D01*
X144563671Y-66491030D01*
X144585850Y-66501520D01*
X144606893Y-66514132D01*
X144626599Y-66528747D01*
X144644777Y-66545223D01*
X144661253Y-66563401D01*
X144675868Y-66583107D01*
X144688480Y-66604150D01*
X144698970Y-66626329D01*
X144707235Y-66649428D01*
X144713196Y-66673227D01*
X144716796Y-66697495D01*
X144718000Y-66721999D01*
X144718000Y-67372001D01*
X144716796Y-67396505D01*
X144713196Y-67420773D01*
X144707235Y-67444572D01*
X144698970Y-67467671D01*
X144688480Y-67489850D01*
X144675868Y-67510893D01*
X144661253Y-67530599D01*
X144644777Y-67548777D01*
X144626599Y-67565253D01*
X144606893Y-67579868D01*
X144585850Y-67592480D01*
X144563671Y-67602970D01*
X144540572Y-67611235D01*
X144516773Y-67617196D01*
X144492505Y-67620796D01*
X144468001Y-67622000D01*
X143567999Y-67622000D01*
X143543495Y-67620796D01*
X143519227Y-67617196D01*
X143495428Y-67611235D01*
X143472329Y-67602970D01*
X143450150Y-67592480D01*
X143429107Y-67579868D01*
X143409401Y-67565253D01*
X143391223Y-67548777D01*
X143374747Y-67530599D01*
X143360132Y-67510893D01*
X143347520Y-67489850D01*
X143337030Y-67467671D01*
X143328765Y-67444572D01*
X143322804Y-67420773D01*
X143319204Y-67396505D01*
X143318000Y-67372001D01*
X143318000Y-66721999D01*
X143319204Y-66697495D01*
X143322804Y-66673227D01*
X143328765Y-66649428D01*
X143337030Y-66626329D01*
X143347520Y-66604150D01*
X143360132Y-66583107D01*
X143374747Y-66563401D01*
X143391223Y-66545223D01*
X143409401Y-66528747D01*
X143429107Y-66514132D01*
X143450150Y-66501520D01*
X143472329Y-66491030D01*
X143495428Y-66482765D01*
X143519227Y-66476804D01*
X143543495Y-66473204D01*
X143567999Y-66472000D01*
X144468001Y-66472000D01*
X144492505Y-66473204D01*
G37*
G36*
X144492505Y-68523204D02*
G01*
X144516773Y-68526804D01*
X144540572Y-68532765D01*
X144563671Y-68541030D01*
X144585850Y-68551520D01*
X144606893Y-68564132D01*
X144626599Y-68578747D01*
X144644777Y-68595223D01*
X144661253Y-68613401D01*
X144675868Y-68633107D01*
X144688480Y-68654150D01*
X144698970Y-68676329D01*
X144707235Y-68699428D01*
X144713196Y-68723227D01*
X144716796Y-68747495D01*
X144718000Y-68771999D01*
X144718000Y-69422001D01*
X144716796Y-69446505D01*
X144713196Y-69470773D01*
X144707235Y-69494572D01*
X144698970Y-69517671D01*
X144688480Y-69539850D01*
X144675868Y-69560893D01*
X144661253Y-69580599D01*
X144644777Y-69598777D01*
X144626599Y-69615253D01*
X144606893Y-69629868D01*
X144585850Y-69642480D01*
X144563671Y-69652970D01*
X144540572Y-69661235D01*
X144516773Y-69667196D01*
X144492505Y-69670796D01*
X144468001Y-69672000D01*
X143567999Y-69672000D01*
X143543495Y-69670796D01*
X143519227Y-69667196D01*
X143495428Y-69661235D01*
X143472329Y-69652970D01*
X143450150Y-69642480D01*
X143429107Y-69629868D01*
X143409401Y-69615253D01*
X143391223Y-69598777D01*
X143374747Y-69580599D01*
X143360132Y-69560893D01*
X143347520Y-69539850D01*
X143337030Y-69517671D01*
X143328765Y-69494572D01*
X143322804Y-69470773D01*
X143319204Y-69446505D01*
X143318000Y-69422001D01*
X143318000Y-68771999D01*
X143319204Y-68747495D01*
X143322804Y-68723227D01*
X143328765Y-68699428D01*
X143337030Y-68676329D01*
X143347520Y-68654150D01*
X143360132Y-68633107D01*
X143374747Y-68613401D01*
X143391223Y-68595223D01*
X143409401Y-68578747D01*
X143429107Y-68564132D01*
X143450150Y-68551520D01*
X143472329Y-68541030D01*
X143495428Y-68532765D01*
X143519227Y-68526804D01*
X143543495Y-68523204D01*
X143567999Y-68522000D01*
X144468001Y-68522000D01*
X144492505Y-68523204D01*
G37*
G36*
X139031505Y-60504204D02*
G01*
X139055773Y-60507804D01*
X139079572Y-60513765D01*
X139102671Y-60522030D01*
X139124850Y-60532520D01*
X139145893Y-60545132D01*
X139165599Y-60559747D01*
X139183777Y-60576223D01*
X139200253Y-60594401D01*
X139214868Y-60614107D01*
X139227480Y-60635150D01*
X139237970Y-60657329D01*
X139246235Y-60680428D01*
X139252196Y-60704227D01*
X139255796Y-60728495D01*
X139257000Y-60752999D01*
X139257000Y-61403001D01*
X139255796Y-61427505D01*
X139252196Y-61451773D01*
X139246235Y-61475572D01*
X139237970Y-61498671D01*
X139227480Y-61520850D01*
X139214868Y-61541893D01*
X139200253Y-61561599D01*
X139183777Y-61579777D01*
X139165599Y-61596253D01*
X139145893Y-61610868D01*
X139124850Y-61623480D01*
X139102671Y-61633970D01*
X139079572Y-61642235D01*
X139055773Y-61648196D01*
X139031505Y-61651796D01*
X139007001Y-61653000D01*
X138106999Y-61653000D01*
X138082495Y-61651796D01*
X138058227Y-61648196D01*
X138034428Y-61642235D01*
X138011329Y-61633970D01*
X137989150Y-61623480D01*
X137968107Y-61610868D01*
X137948401Y-61596253D01*
X137930223Y-61579777D01*
X137913747Y-61561599D01*
X137899132Y-61541893D01*
X137886520Y-61520850D01*
X137876030Y-61498671D01*
X137867765Y-61475572D01*
X137861804Y-61451773D01*
X137858204Y-61427505D01*
X137857000Y-61403001D01*
X137857000Y-60752999D01*
X137858204Y-60728495D01*
X137861804Y-60704227D01*
X137867765Y-60680428D01*
X137876030Y-60657329D01*
X137886520Y-60635150D01*
X137899132Y-60614107D01*
X137913747Y-60594401D01*
X137930223Y-60576223D01*
X137948401Y-60559747D01*
X137968107Y-60545132D01*
X137989150Y-60532520D01*
X138011329Y-60522030D01*
X138034428Y-60513765D01*
X138058227Y-60507804D01*
X138082495Y-60504204D01*
X138106999Y-60503000D01*
X139007001Y-60503000D01*
X139031505Y-60504204D01*
G37*
G36*
X139031505Y-62554204D02*
G01*
X139055773Y-62557804D01*
X139079572Y-62563765D01*
X139102671Y-62572030D01*
X139124850Y-62582520D01*
X139145893Y-62595132D01*
X139165599Y-62609747D01*
X139183777Y-62626223D01*
X139200253Y-62644401D01*
X139214868Y-62664107D01*
X139227480Y-62685150D01*
X139237970Y-62707329D01*
X139246235Y-62730428D01*
X139252196Y-62754227D01*
X139255796Y-62778495D01*
X139257000Y-62802999D01*
X139257000Y-63453001D01*
X139255796Y-63477505D01*
X139252196Y-63501773D01*
X139246235Y-63525572D01*
X139237970Y-63548671D01*
X139227480Y-63570850D01*
X139214868Y-63591893D01*
X139200253Y-63611599D01*
X139183777Y-63629777D01*
X139165599Y-63646253D01*
X139145893Y-63660868D01*
X139124850Y-63673480D01*
X139102671Y-63683970D01*
X139079572Y-63692235D01*
X139055773Y-63698196D01*
X139031505Y-63701796D01*
X139007001Y-63703000D01*
X138106999Y-63703000D01*
X138082495Y-63701796D01*
X138058227Y-63698196D01*
X138034428Y-63692235D01*
X138011329Y-63683970D01*
X137989150Y-63673480D01*
X137968107Y-63660868D01*
X137948401Y-63646253D01*
X137930223Y-63629777D01*
X137913747Y-63611599D01*
X137899132Y-63591893D01*
X137886520Y-63570850D01*
X137876030Y-63548671D01*
X137867765Y-63525572D01*
X137861804Y-63501773D01*
X137858204Y-63477505D01*
X137857000Y-63453001D01*
X137857000Y-62802999D01*
X137858204Y-62778495D01*
X137861804Y-62754227D01*
X137867765Y-62730428D01*
X137876030Y-62707329D01*
X137886520Y-62685150D01*
X137899132Y-62664107D01*
X137913747Y-62644401D01*
X137930223Y-62626223D01*
X137948401Y-62609747D01*
X137968107Y-62595132D01*
X137989150Y-62582520D01*
X138011329Y-62572030D01*
X138034428Y-62563765D01*
X138058227Y-62557804D01*
X138082495Y-62554204D01*
X138106999Y-62553000D01*
X139007001Y-62553000D01*
X139031505Y-62554204D01*
G37*
G36*
X165966505Y-97218204D02*
G01*
X165990773Y-97221804D01*
X166014572Y-97227765D01*
X166037671Y-97236030D01*
X166059850Y-97246520D01*
X166080893Y-97259132D01*
X166100599Y-97273747D01*
X166118777Y-97290223D01*
X166135253Y-97308401D01*
X166149868Y-97328107D01*
X166162480Y-97349150D01*
X166172970Y-97371329D01*
X166181235Y-97394428D01*
X166187196Y-97418227D01*
X166190796Y-97442495D01*
X166192000Y-97466999D01*
X166192000Y-98367001D01*
X166190796Y-98391505D01*
X166187196Y-98415773D01*
X166181235Y-98439572D01*
X166172970Y-98462671D01*
X166162480Y-98484850D01*
X166149868Y-98505893D01*
X166135253Y-98525599D01*
X166118777Y-98543777D01*
X166100599Y-98560253D01*
X166080893Y-98574868D01*
X166059850Y-98587480D01*
X166037671Y-98597970D01*
X166014572Y-98606235D01*
X165990773Y-98612196D01*
X165966505Y-98615796D01*
X165942001Y-98617000D01*
X165291999Y-98617000D01*
X165267495Y-98615796D01*
X165243227Y-98612196D01*
X165219428Y-98606235D01*
X165196329Y-98597970D01*
X165174150Y-98587480D01*
X165153107Y-98574868D01*
X165133401Y-98560253D01*
X165115223Y-98543777D01*
X165098747Y-98525599D01*
X165084132Y-98505893D01*
X165071520Y-98484850D01*
X165061030Y-98462671D01*
X165052765Y-98439572D01*
X165046804Y-98415773D01*
X165043204Y-98391505D01*
X165042000Y-98367001D01*
X165042000Y-97466999D01*
X165043204Y-97442495D01*
X165046804Y-97418227D01*
X165052765Y-97394428D01*
X165061030Y-97371329D01*
X165071520Y-97349150D01*
X165084132Y-97328107D01*
X165098747Y-97308401D01*
X165115223Y-97290223D01*
X165133401Y-97273747D01*
X165153107Y-97259132D01*
X165174150Y-97246520D01*
X165196329Y-97236030D01*
X165219428Y-97227765D01*
X165243227Y-97221804D01*
X165267495Y-97218204D01*
X165291999Y-97217000D01*
X165942001Y-97217000D01*
X165966505Y-97218204D01*
G37*
G36*
X163916505Y-97218204D02*
G01*
X163940773Y-97221804D01*
X163964572Y-97227765D01*
X163987671Y-97236030D01*
X164009850Y-97246520D01*
X164030893Y-97259132D01*
X164050599Y-97273747D01*
X164068777Y-97290223D01*
X164085253Y-97308401D01*
X164099868Y-97328107D01*
X164112480Y-97349150D01*
X164122970Y-97371329D01*
X164131235Y-97394428D01*
X164137196Y-97418227D01*
X164140796Y-97442495D01*
X164142000Y-97466999D01*
X164142000Y-98367001D01*
X164140796Y-98391505D01*
X164137196Y-98415773D01*
X164131235Y-98439572D01*
X164122970Y-98462671D01*
X164112480Y-98484850D01*
X164099868Y-98505893D01*
X164085253Y-98525599D01*
X164068777Y-98543777D01*
X164050599Y-98560253D01*
X164030893Y-98574868D01*
X164009850Y-98587480D01*
X163987671Y-98597970D01*
X163964572Y-98606235D01*
X163940773Y-98612196D01*
X163916505Y-98615796D01*
X163892001Y-98617000D01*
X163241999Y-98617000D01*
X163217495Y-98615796D01*
X163193227Y-98612196D01*
X163169428Y-98606235D01*
X163146329Y-98597970D01*
X163124150Y-98587480D01*
X163103107Y-98574868D01*
X163083401Y-98560253D01*
X163065223Y-98543777D01*
X163048747Y-98525599D01*
X163034132Y-98505893D01*
X163021520Y-98484850D01*
X163011030Y-98462671D01*
X163002765Y-98439572D01*
X162996804Y-98415773D01*
X162993204Y-98391505D01*
X162992000Y-98367001D01*
X162992000Y-97466999D01*
X162993204Y-97442495D01*
X162996804Y-97418227D01*
X163002765Y-97394428D01*
X163011030Y-97371329D01*
X163021520Y-97349150D01*
X163034132Y-97328107D01*
X163048747Y-97308401D01*
X163065223Y-97290223D01*
X163083401Y-97273747D01*
X163103107Y-97259132D01*
X163124150Y-97246520D01*
X163146329Y-97236030D01*
X163169428Y-97227765D01*
X163193227Y-97221804D01*
X163217495Y-97218204D01*
X163241999Y-97217000D01*
X163892001Y-97217000D01*
X163916505Y-97218204D01*
G37*
G36*
X165966505Y-78295204D02*
G01*
X165990773Y-78298804D01*
X166014572Y-78304765D01*
X166037671Y-78313030D01*
X166059850Y-78323520D01*
X166080893Y-78336132D01*
X166100599Y-78350747D01*
X166118777Y-78367223D01*
X166135253Y-78385401D01*
X166149868Y-78405107D01*
X166162480Y-78426150D01*
X166172970Y-78448329D01*
X166181235Y-78471428D01*
X166187196Y-78495227D01*
X166190796Y-78519495D01*
X166192000Y-78543999D01*
X166192000Y-79444001D01*
X166190796Y-79468505D01*
X166187196Y-79492773D01*
X166181235Y-79516572D01*
X166172970Y-79539671D01*
X166162480Y-79561850D01*
X166149868Y-79582893D01*
X166135253Y-79602599D01*
X166118777Y-79620777D01*
X166100599Y-79637253D01*
X166080893Y-79651868D01*
X166059850Y-79664480D01*
X166037671Y-79674970D01*
X166014572Y-79683235D01*
X165990773Y-79689196D01*
X165966505Y-79692796D01*
X165942001Y-79694000D01*
X165291999Y-79694000D01*
X165267495Y-79692796D01*
X165243227Y-79689196D01*
X165219428Y-79683235D01*
X165196329Y-79674970D01*
X165174150Y-79664480D01*
X165153107Y-79651868D01*
X165133401Y-79637253D01*
X165115223Y-79620777D01*
X165098747Y-79602599D01*
X165084132Y-79582893D01*
X165071520Y-79561850D01*
X165061030Y-79539671D01*
X165052765Y-79516572D01*
X165046804Y-79492773D01*
X165043204Y-79468505D01*
X165042000Y-79444001D01*
X165042000Y-78543999D01*
X165043204Y-78519495D01*
X165046804Y-78495227D01*
X165052765Y-78471428D01*
X165061030Y-78448329D01*
X165071520Y-78426150D01*
X165084132Y-78405107D01*
X165098747Y-78385401D01*
X165115223Y-78367223D01*
X165133401Y-78350747D01*
X165153107Y-78336132D01*
X165174150Y-78323520D01*
X165196329Y-78313030D01*
X165219428Y-78304765D01*
X165243227Y-78298804D01*
X165267495Y-78295204D01*
X165291999Y-78294000D01*
X165942001Y-78294000D01*
X165966505Y-78295204D01*
G37*
G36*
X163916505Y-78295204D02*
G01*
X163940773Y-78298804D01*
X163964572Y-78304765D01*
X163987671Y-78313030D01*
X164009850Y-78323520D01*
X164030893Y-78336132D01*
X164050599Y-78350747D01*
X164068777Y-78367223D01*
X164085253Y-78385401D01*
X164099868Y-78405107D01*
X164112480Y-78426150D01*
X164122970Y-78448329D01*
X164131235Y-78471428D01*
X164137196Y-78495227D01*
X164140796Y-78519495D01*
X164142000Y-78543999D01*
X164142000Y-79444001D01*
X164140796Y-79468505D01*
X164137196Y-79492773D01*
X164131235Y-79516572D01*
X164122970Y-79539671D01*
X164112480Y-79561850D01*
X164099868Y-79582893D01*
X164085253Y-79602599D01*
X164068777Y-79620777D01*
X164050599Y-79637253D01*
X164030893Y-79651868D01*
X164009850Y-79664480D01*
X163987671Y-79674970D01*
X163964572Y-79683235D01*
X163940773Y-79689196D01*
X163916505Y-79692796D01*
X163892001Y-79694000D01*
X163241999Y-79694000D01*
X163217495Y-79692796D01*
X163193227Y-79689196D01*
X163169428Y-79683235D01*
X163146329Y-79674970D01*
X163124150Y-79664480D01*
X163103107Y-79651868D01*
X163083401Y-79637253D01*
X163065223Y-79620777D01*
X163048747Y-79602599D01*
X163034132Y-79582893D01*
X163021520Y-79561850D01*
X163011030Y-79539671D01*
X163002765Y-79516572D01*
X162996804Y-79492773D01*
X162993204Y-79468505D01*
X162992000Y-79444001D01*
X162992000Y-78543999D01*
X162993204Y-78519495D01*
X162996804Y-78495227D01*
X163002765Y-78471428D01*
X163011030Y-78448329D01*
X163021520Y-78426150D01*
X163034132Y-78405107D01*
X163048747Y-78385401D01*
X163065223Y-78367223D01*
X163083401Y-78350747D01*
X163103107Y-78336132D01*
X163124150Y-78323520D01*
X163146329Y-78313030D01*
X163169428Y-78304765D01*
X163193227Y-78298804D01*
X163217495Y-78295204D01*
X163241999Y-78294000D01*
X163892001Y-78294000D01*
X163916505Y-78295204D01*
G37*
G36*
X165966505Y-59245204D02*
G01*
X165990773Y-59248804D01*
X166014572Y-59254765D01*
X166037671Y-59263030D01*
X166059850Y-59273520D01*
X166080893Y-59286132D01*
X166100599Y-59300747D01*
X166118777Y-59317223D01*
X166135253Y-59335401D01*
X166149868Y-59355107D01*
X166162480Y-59376150D01*
X166172970Y-59398329D01*
X166181235Y-59421428D01*
X166187196Y-59445227D01*
X166190796Y-59469495D01*
X166192000Y-59493999D01*
X166192000Y-60394001D01*
X166190796Y-60418505D01*
X166187196Y-60442773D01*
X166181235Y-60466572D01*
X166172970Y-60489671D01*
X166162480Y-60511850D01*
X166149868Y-60532893D01*
X166135253Y-60552599D01*
X166118777Y-60570777D01*
X166100599Y-60587253D01*
X166080893Y-60601868D01*
X166059850Y-60614480D01*
X166037671Y-60624970D01*
X166014572Y-60633235D01*
X165990773Y-60639196D01*
X165966505Y-60642796D01*
X165942001Y-60644000D01*
X165291999Y-60644000D01*
X165267495Y-60642796D01*
X165243227Y-60639196D01*
X165219428Y-60633235D01*
X165196329Y-60624970D01*
X165174150Y-60614480D01*
X165153107Y-60601868D01*
X165133401Y-60587253D01*
X165115223Y-60570777D01*
X165098747Y-60552599D01*
X165084132Y-60532893D01*
X165071520Y-60511850D01*
X165061030Y-60489671D01*
X165052765Y-60466572D01*
X165046804Y-60442773D01*
X165043204Y-60418505D01*
X165042000Y-60394001D01*
X165042000Y-59493999D01*
X165043204Y-59469495D01*
X165046804Y-59445227D01*
X165052765Y-59421428D01*
X165061030Y-59398329D01*
X165071520Y-59376150D01*
X165084132Y-59355107D01*
X165098747Y-59335401D01*
X165115223Y-59317223D01*
X165133401Y-59300747D01*
X165153107Y-59286132D01*
X165174150Y-59273520D01*
X165196329Y-59263030D01*
X165219428Y-59254765D01*
X165243227Y-59248804D01*
X165267495Y-59245204D01*
X165291999Y-59244000D01*
X165942001Y-59244000D01*
X165966505Y-59245204D01*
G37*
G36*
X163916505Y-59245204D02*
G01*
X163940773Y-59248804D01*
X163964572Y-59254765D01*
X163987671Y-59263030D01*
X164009850Y-59273520D01*
X164030893Y-59286132D01*
X164050599Y-59300747D01*
X164068777Y-59317223D01*
X164085253Y-59335401D01*
X164099868Y-59355107D01*
X164112480Y-59376150D01*
X164122970Y-59398329D01*
X164131235Y-59421428D01*
X164137196Y-59445227D01*
X164140796Y-59469495D01*
X164142000Y-59493999D01*
X164142000Y-60394001D01*
X164140796Y-60418505D01*
X164137196Y-60442773D01*
X164131235Y-60466572D01*
X164122970Y-60489671D01*
X164112480Y-60511850D01*
X164099868Y-60532893D01*
X164085253Y-60552599D01*
X164068777Y-60570777D01*
X164050599Y-60587253D01*
X164030893Y-60601868D01*
X164009850Y-60614480D01*
X163987671Y-60624970D01*
X163964572Y-60633235D01*
X163940773Y-60639196D01*
X163916505Y-60642796D01*
X163892001Y-60644000D01*
X163241999Y-60644000D01*
X163217495Y-60642796D01*
X163193227Y-60639196D01*
X163169428Y-60633235D01*
X163146329Y-60624970D01*
X163124150Y-60614480D01*
X163103107Y-60601868D01*
X163083401Y-60587253D01*
X163065223Y-60570777D01*
X163048747Y-60552599D01*
X163034132Y-60532893D01*
X163021520Y-60511850D01*
X163011030Y-60489671D01*
X163002765Y-60466572D01*
X162996804Y-60442773D01*
X162993204Y-60418505D01*
X162992000Y-60394001D01*
X162992000Y-59493999D01*
X162993204Y-59469495D01*
X162996804Y-59445227D01*
X163002765Y-59421428D01*
X163011030Y-59398329D01*
X163021520Y-59376150D01*
X163034132Y-59355107D01*
X163048747Y-59335401D01*
X163065223Y-59317223D01*
X163083401Y-59300747D01*
X163103107Y-59286132D01*
X163124150Y-59273520D01*
X163146329Y-59263030D01*
X163169428Y-59254765D01*
X163193227Y-59248804D01*
X163217495Y-59245204D01*
X163241999Y-59244000D01*
X163892001Y-59244000D01*
X163916505Y-59245204D01*
G37*
G36*
X145000505Y-97225204D02*
G01*
X145024773Y-97228804D01*
X145048572Y-97234765D01*
X145071671Y-97243030D01*
X145093850Y-97253520D01*
X145114893Y-97266132D01*
X145134599Y-97280747D01*
X145152777Y-97297223D01*
X145169253Y-97315401D01*
X145183868Y-97335107D01*
X145196480Y-97356150D01*
X145206970Y-97378329D01*
X145215235Y-97401428D01*
X145221196Y-97425227D01*
X145224796Y-97449495D01*
X145226000Y-97473999D01*
X145226000Y-98124001D01*
X145224796Y-98148505D01*
X145221196Y-98172773D01*
X145215235Y-98196572D01*
X145206970Y-98219671D01*
X145196480Y-98241850D01*
X145183868Y-98262893D01*
X145169253Y-98282599D01*
X145152777Y-98300777D01*
X145134599Y-98317253D01*
X145114893Y-98331868D01*
X145093850Y-98344480D01*
X145071671Y-98354970D01*
X145048572Y-98363235D01*
X145024773Y-98369196D01*
X145000505Y-98372796D01*
X144976001Y-98374000D01*
X144075999Y-98374000D01*
X144051495Y-98372796D01*
X144027227Y-98369196D01*
X144003428Y-98363235D01*
X143980329Y-98354970D01*
X143958150Y-98344480D01*
X143937107Y-98331868D01*
X143917401Y-98317253D01*
X143899223Y-98300777D01*
X143882747Y-98282599D01*
X143868132Y-98262893D01*
X143855520Y-98241850D01*
X143845030Y-98219671D01*
X143836765Y-98196572D01*
X143830804Y-98172773D01*
X143827204Y-98148505D01*
X143826000Y-98124001D01*
X143826000Y-97473999D01*
X143827204Y-97449495D01*
X143830804Y-97425227D01*
X143836765Y-97401428D01*
X143845030Y-97378329D01*
X143855520Y-97356150D01*
X143868132Y-97335107D01*
X143882747Y-97315401D01*
X143899223Y-97297223D01*
X143917401Y-97280747D01*
X143937107Y-97266132D01*
X143958150Y-97253520D01*
X143980329Y-97243030D01*
X144003428Y-97234765D01*
X144027227Y-97228804D01*
X144051495Y-97225204D01*
X144075999Y-97224000D01*
X144976001Y-97224000D01*
X145000505Y-97225204D01*
G37*
G36*
X145000505Y-95175204D02*
G01*
X145024773Y-95178804D01*
X145048572Y-95184765D01*
X145071671Y-95193030D01*
X145093850Y-95203520D01*
X145114893Y-95216132D01*
X145134599Y-95230747D01*
X145152777Y-95247223D01*
X145169253Y-95265401D01*
X145183868Y-95285107D01*
X145196480Y-95306150D01*
X145206970Y-95328329D01*
X145215235Y-95351428D01*
X145221196Y-95375227D01*
X145224796Y-95399495D01*
X145226000Y-95423999D01*
X145226000Y-96074001D01*
X145224796Y-96098505D01*
X145221196Y-96122773D01*
X145215235Y-96146572D01*
X145206970Y-96169671D01*
X145196480Y-96191850D01*
X145183868Y-96212893D01*
X145169253Y-96232599D01*
X145152777Y-96250777D01*
X145134599Y-96267253D01*
X145114893Y-96281868D01*
X145093850Y-96294480D01*
X145071671Y-96304970D01*
X145048572Y-96313235D01*
X145024773Y-96319196D01*
X145000505Y-96322796D01*
X144976001Y-96324000D01*
X144075999Y-96324000D01*
X144051495Y-96322796D01*
X144027227Y-96319196D01*
X144003428Y-96313235D01*
X143980329Y-96304970D01*
X143958150Y-96294480D01*
X143937107Y-96281868D01*
X143917401Y-96267253D01*
X143899223Y-96250777D01*
X143882747Y-96232599D01*
X143868132Y-96212893D01*
X143855520Y-96191850D01*
X143845030Y-96169671D01*
X143836765Y-96146572D01*
X143830804Y-96122773D01*
X143827204Y-96098505D01*
X143826000Y-96074001D01*
X143826000Y-95423999D01*
X143827204Y-95399495D01*
X143830804Y-95375227D01*
X143836765Y-95351428D01*
X143845030Y-95328329D01*
X143855520Y-95306150D01*
X143868132Y-95285107D01*
X143882747Y-95265401D01*
X143899223Y-95247223D01*
X143917401Y-95230747D01*
X143937107Y-95216132D01*
X143958150Y-95203520D01*
X143980329Y-95193030D01*
X144003428Y-95184765D01*
X144027227Y-95178804D01*
X144051495Y-95175204D01*
X144075999Y-95174000D01*
X144976001Y-95174000D01*
X145000505Y-95175204D01*
G37*
G36*
X156430505Y-97352204D02*
G01*
X156454773Y-97355804D01*
X156478572Y-97361765D01*
X156501671Y-97370030D01*
X156523850Y-97380520D01*
X156544893Y-97393132D01*
X156564599Y-97407747D01*
X156582777Y-97424223D01*
X156599253Y-97442401D01*
X156613868Y-97462107D01*
X156626480Y-97483150D01*
X156636970Y-97505329D01*
X156645235Y-97528428D01*
X156651196Y-97552227D01*
X156654796Y-97576495D01*
X156656000Y-97600999D01*
X156656000Y-98251001D01*
X156654796Y-98275505D01*
X156651196Y-98299773D01*
X156645235Y-98323572D01*
X156636970Y-98346671D01*
X156626480Y-98368850D01*
X156613868Y-98389893D01*
X156599253Y-98409599D01*
X156582777Y-98427777D01*
X156564599Y-98444253D01*
X156544893Y-98458868D01*
X156523850Y-98471480D01*
X156501671Y-98481970D01*
X156478572Y-98490235D01*
X156454773Y-98496196D01*
X156430505Y-98499796D01*
X156406001Y-98501000D01*
X155505999Y-98501000D01*
X155481495Y-98499796D01*
X155457227Y-98496196D01*
X155433428Y-98490235D01*
X155410329Y-98481970D01*
X155388150Y-98471480D01*
X155367107Y-98458868D01*
X155347401Y-98444253D01*
X155329223Y-98427777D01*
X155312747Y-98409599D01*
X155298132Y-98389893D01*
X155285520Y-98368850D01*
X155275030Y-98346671D01*
X155266765Y-98323572D01*
X155260804Y-98299773D01*
X155257204Y-98275505D01*
X155256000Y-98251001D01*
X155256000Y-97600999D01*
X155257204Y-97576495D01*
X155260804Y-97552227D01*
X155266765Y-97528428D01*
X155275030Y-97505329D01*
X155285520Y-97483150D01*
X155298132Y-97462107D01*
X155312747Y-97442401D01*
X155329223Y-97424223D01*
X155347401Y-97407747D01*
X155367107Y-97393132D01*
X155388150Y-97380520D01*
X155410329Y-97370030D01*
X155433428Y-97361765D01*
X155457227Y-97355804D01*
X155481495Y-97352204D01*
X155505999Y-97351000D01*
X156406001Y-97351000D01*
X156430505Y-97352204D01*
G37*
G36*
X156430505Y-95302204D02*
G01*
X156454773Y-95305804D01*
X156478572Y-95311765D01*
X156501671Y-95320030D01*
X156523850Y-95330520D01*
X156544893Y-95343132D01*
X156564599Y-95357747D01*
X156582777Y-95374223D01*
X156599253Y-95392401D01*
X156613868Y-95412107D01*
X156626480Y-95433150D01*
X156636970Y-95455329D01*
X156645235Y-95478428D01*
X156651196Y-95502227D01*
X156654796Y-95526495D01*
X156656000Y-95550999D01*
X156656000Y-96201001D01*
X156654796Y-96225505D01*
X156651196Y-96249773D01*
X156645235Y-96273572D01*
X156636970Y-96296671D01*
X156626480Y-96318850D01*
X156613868Y-96339893D01*
X156599253Y-96359599D01*
X156582777Y-96377777D01*
X156564599Y-96394253D01*
X156544893Y-96408868D01*
X156523850Y-96421480D01*
X156501671Y-96431970D01*
X156478572Y-96440235D01*
X156454773Y-96446196D01*
X156430505Y-96449796D01*
X156406001Y-96451000D01*
X155505999Y-96451000D01*
X155481495Y-96449796D01*
X155457227Y-96446196D01*
X155433428Y-96440235D01*
X155410329Y-96431970D01*
X155388150Y-96421480D01*
X155367107Y-96408868D01*
X155347401Y-96394253D01*
X155329223Y-96377777D01*
X155312747Y-96359599D01*
X155298132Y-96339893D01*
X155285520Y-96318850D01*
X155275030Y-96296671D01*
X155266765Y-96273572D01*
X155260804Y-96249773D01*
X155257204Y-96225505D01*
X155256000Y-96201001D01*
X155256000Y-95550999D01*
X155257204Y-95526495D01*
X155260804Y-95502227D01*
X155266765Y-95478428D01*
X155275030Y-95455329D01*
X155285520Y-95433150D01*
X155298132Y-95412107D01*
X155312747Y-95392401D01*
X155329223Y-95374223D01*
X155347401Y-95357747D01*
X155367107Y-95343132D01*
X155388150Y-95330520D01*
X155410329Y-95320030D01*
X155433428Y-95311765D01*
X155457227Y-95305804D01*
X155481495Y-95302204D01*
X155505999Y-95301000D01*
X156406001Y-95301000D01*
X156430505Y-95302204D01*
G37*
G36*
X156430505Y-91238204D02*
G01*
X156454773Y-91241804D01*
X156478572Y-91247765D01*
X156501671Y-91256030D01*
X156523850Y-91266520D01*
X156544893Y-91279132D01*
X156564599Y-91293747D01*
X156582777Y-91310223D01*
X156599253Y-91328401D01*
X156613868Y-91348107D01*
X156626480Y-91369150D01*
X156636970Y-91391329D01*
X156645235Y-91414428D01*
X156651196Y-91438227D01*
X156654796Y-91462495D01*
X156656000Y-91486999D01*
X156656000Y-92137001D01*
X156654796Y-92161505D01*
X156651196Y-92185773D01*
X156645235Y-92209572D01*
X156636970Y-92232671D01*
X156626480Y-92254850D01*
X156613868Y-92275893D01*
X156599253Y-92295599D01*
X156582777Y-92313777D01*
X156564599Y-92330253D01*
X156544893Y-92344868D01*
X156523850Y-92357480D01*
X156501671Y-92367970D01*
X156478572Y-92376235D01*
X156454773Y-92382196D01*
X156430505Y-92385796D01*
X156406001Y-92387000D01*
X155505999Y-92387000D01*
X155481495Y-92385796D01*
X155457227Y-92382196D01*
X155433428Y-92376235D01*
X155410329Y-92367970D01*
X155388150Y-92357480D01*
X155367107Y-92344868D01*
X155347401Y-92330253D01*
X155329223Y-92313777D01*
X155312747Y-92295599D01*
X155298132Y-92275893D01*
X155285520Y-92254850D01*
X155275030Y-92232671D01*
X155266765Y-92209572D01*
X155260804Y-92185773D01*
X155257204Y-92161505D01*
X155256000Y-92137001D01*
X155256000Y-91486999D01*
X155257204Y-91462495D01*
X155260804Y-91438227D01*
X155266765Y-91414428D01*
X155275030Y-91391329D01*
X155285520Y-91369150D01*
X155298132Y-91348107D01*
X155312747Y-91328401D01*
X155329223Y-91310223D01*
X155347401Y-91293747D01*
X155367107Y-91279132D01*
X155388150Y-91266520D01*
X155410329Y-91256030D01*
X155433428Y-91247765D01*
X155457227Y-91241804D01*
X155481495Y-91238204D01*
X155505999Y-91237000D01*
X156406001Y-91237000D01*
X156430505Y-91238204D01*
G37*
G36*
X156430505Y-93288204D02*
G01*
X156454773Y-93291804D01*
X156478572Y-93297765D01*
X156501671Y-93306030D01*
X156523850Y-93316520D01*
X156544893Y-93329132D01*
X156564599Y-93343747D01*
X156582777Y-93360223D01*
X156599253Y-93378401D01*
X156613868Y-93398107D01*
X156626480Y-93419150D01*
X156636970Y-93441329D01*
X156645235Y-93464428D01*
X156651196Y-93488227D01*
X156654796Y-93512495D01*
X156656000Y-93536999D01*
X156656000Y-94187001D01*
X156654796Y-94211505D01*
X156651196Y-94235773D01*
X156645235Y-94259572D01*
X156636970Y-94282671D01*
X156626480Y-94304850D01*
X156613868Y-94325893D01*
X156599253Y-94345599D01*
X156582777Y-94363777D01*
X156564599Y-94380253D01*
X156544893Y-94394868D01*
X156523850Y-94407480D01*
X156501671Y-94417970D01*
X156478572Y-94426235D01*
X156454773Y-94432196D01*
X156430505Y-94435796D01*
X156406001Y-94437000D01*
X155505999Y-94437000D01*
X155481495Y-94435796D01*
X155457227Y-94432196D01*
X155433428Y-94426235D01*
X155410329Y-94417970D01*
X155388150Y-94407480D01*
X155367107Y-94394868D01*
X155347401Y-94380253D01*
X155329223Y-94363777D01*
X155312747Y-94345599D01*
X155298132Y-94325893D01*
X155285520Y-94304850D01*
X155275030Y-94282671D01*
X155266765Y-94259572D01*
X155260804Y-94235773D01*
X155257204Y-94211505D01*
X155256000Y-94187001D01*
X155256000Y-93536999D01*
X155257204Y-93512495D01*
X155260804Y-93488227D01*
X155266765Y-93464428D01*
X155275030Y-93441329D01*
X155285520Y-93419150D01*
X155298132Y-93398107D01*
X155312747Y-93378401D01*
X155329223Y-93360223D01*
X155347401Y-93343747D01*
X155367107Y-93329132D01*
X155388150Y-93316520D01*
X155410329Y-93306030D01*
X155433428Y-93297765D01*
X155457227Y-93291804D01*
X155481495Y-93288204D01*
X155505999Y-93287000D01*
X156406001Y-93287000D01*
X156430505Y-93288204D01*
G37*
G36*
X150461505Y-93415204D02*
G01*
X150485773Y-93418804D01*
X150509572Y-93424765D01*
X150532671Y-93433030D01*
X150554850Y-93443520D01*
X150575893Y-93456132D01*
X150595599Y-93470747D01*
X150613777Y-93487223D01*
X150630253Y-93505401D01*
X150644868Y-93525107D01*
X150657480Y-93546150D01*
X150667970Y-93568329D01*
X150676235Y-93591428D01*
X150682196Y-93615227D01*
X150685796Y-93639495D01*
X150687000Y-93663999D01*
X150687000Y-94314001D01*
X150685796Y-94338505D01*
X150682196Y-94362773D01*
X150676235Y-94386572D01*
X150667970Y-94409671D01*
X150657480Y-94431850D01*
X150644868Y-94452893D01*
X150630253Y-94472599D01*
X150613777Y-94490777D01*
X150595599Y-94507253D01*
X150575893Y-94521868D01*
X150554850Y-94534480D01*
X150532671Y-94544970D01*
X150509572Y-94553235D01*
X150485773Y-94559196D01*
X150461505Y-94562796D01*
X150437001Y-94564000D01*
X149536999Y-94564000D01*
X149512495Y-94562796D01*
X149488227Y-94559196D01*
X149464428Y-94553235D01*
X149441329Y-94544970D01*
X149419150Y-94534480D01*
X149398107Y-94521868D01*
X149378401Y-94507253D01*
X149360223Y-94490777D01*
X149343747Y-94472599D01*
X149329132Y-94452893D01*
X149316520Y-94431850D01*
X149306030Y-94409671D01*
X149297765Y-94386572D01*
X149291804Y-94362773D01*
X149288204Y-94338505D01*
X149287000Y-94314001D01*
X149287000Y-93663999D01*
X149288204Y-93639495D01*
X149291804Y-93615227D01*
X149297765Y-93591428D01*
X149306030Y-93568329D01*
X149316520Y-93546150D01*
X149329132Y-93525107D01*
X149343747Y-93505401D01*
X149360223Y-93487223D01*
X149378401Y-93470747D01*
X149398107Y-93456132D01*
X149419150Y-93443520D01*
X149441329Y-93433030D01*
X149464428Y-93424765D01*
X149488227Y-93418804D01*
X149512495Y-93415204D01*
X149536999Y-93414000D01*
X150437001Y-93414000D01*
X150461505Y-93415204D01*
G37*
G36*
X150461505Y-91365204D02*
G01*
X150485773Y-91368804D01*
X150509572Y-91374765D01*
X150532671Y-91383030D01*
X150554850Y-91393520D01*
X150575893Y-91406132D01*
X150595599Y-91420747D01*
X150613777Y-91437223D01*
X150630253Y-91455401D01*
X150644868Y-91475107D01*
X150657480Y-91496150D01*
X150667970Y-91518329D01*
X150676235Y-91541428D01*
X150682196Y-91565227D01*
X150685796Y-91589495D01*
X150687000Y-91613999D01*
X150687000Y-92264001D01*
X150685796Y-92288505D01*
X150682196Y-92312773D01*
X150676235Y-92336572D01*
X150667970Y-92359671D01*
X150657480Y-92381850D01*
X150644868Y-92402893D01*
X150630253Y-92422599D01*
X150613777Y-92440777D01*
X150595599Y-92457253D01*
X150575893Y-92471868D01*
X150554850Y-92484480D01*
X150532671Y-92494970D01*
X150509572Y-92503235D01*
X150485773Y-92509196D01*
X150461505Y-92512796D01*
X150437001Y-92514000D01*
X149536999Y-92514000D01*
X149512495Y-92512796D01*
X149488227Y-92509196D01*
X149464428Y-92503235D01*
X149441329Y-92494970D01*
X149419150Y-92484480D01*
X149398107Y-92471868D01*
X149378401Y-92457253D01*
X149360223Y-92440777D01*
X149343747Y-92422599D01*
X149329132Y-92402893D01*
X149316520Y-92381850D01*
X149306030Y-92359671D01*
X149297765Y-92336572D01*
X149291804Y-92312773D01*
X149288204Y-92288505D01*
X149287000Y-92264001D01*
X149287000Y-91613999D01*
X149288204Y-91589495D01*
X149291804Y-91565227D01*
X149297765Y-91541428D01*
X149306030Y-91518329D01*
X149316520Y-91496150D01*
X149329132Y-91475107D01*
X149343747Y-91455401D01*
X149360223Y-91437223D01*
X149378401Y-91420747D01*
X149398107Y-91406132D01*
X149419150Y-91393520D01*
X149441329Y-91383030D01*
X149464428Y-91374765D01*
X149488227Y-91368804D01*
X149512495Y-91365204D01*
X149536999Y-91364000D01*
X150437001Y-91364000D01*
X150461505Y-91365204D01*
G37*
G36*
X144746505Y-78302204D02*
G01*
X144770773Y-78305804D01*
X144794572Y-78311765D01*
X144817671Y-78320030D01*
X144839850Y-78330520D01*
X144860893Y-78343132D01*
X144880599Y-78357747D01*
X144898777Y-78374223D01*
X144915253Y-78392401D01*
X144929868Y-78412107D01*
X144942480Y-78433150D01*
X144952970Y-78455329D01*
X144961235Y-78478428D01*
X144967196Y-78502227D01*
X144970796Y-78526495D01*
X144972000Y-78550999D01*
X144972000Y-79201001D01*
X144970796Y-79225505D01*
X144967196Y-79249773D01*
X144961235Y-79273572D01*
X144952970Y-79296671D01*
X144942480Y-79318850D01*
X144929868Y-79339893D01*
X144915253Y-79359599D01*
X144898777Y-79377777D01*
X144880599Y-79394253D01*
X144860893Y-79408868D01*
X144839850Y-79421480D01*
X144817671Y-79431970D01*
X144794572Y-79440235D01*
X144770773Y-79446196D01*
X144746505Y-79449796D01*
X144722001Y-79451000D01*
X143821999Y-79451000D01*
X143797495Y-79449796D01*
X143773227Y-79446196D01*
X143749428Y-79440235D01*
X143726329Y-79431970D01*
X143704150Y-79421480D01*
X143683107Y-79408868D01*
X143663401Y-79394253D01*
X143645223Y-79377777D01*
X143628747Y-79359599D01*
X143614132Y-79339893D01*
X143601520Y-79318850D01*
X143591030Y-79296671D01*
X143582765Y-79273572D01*
X143576804Y-79249773D01*
X143573204Y-79225505D01*
X143572000Y-79201001D01*
X143572000Y-78550999D01*
X143573204Y-78526495D01*
X143576804Y-78502227D01*
X143582765Y-78478428D01*
X143591030Y-78455329D01*
X143601520Y-78433150D01*
X143614132Y-78412107D01*
X143628747Y-78392401D01*
X143645223Y-78374223D01*
X143663401Y-78357747D01*
X143683107Y-78343132D01*
X143704150Y-78330520D01*
X143726329Y-78320030D01*
X143749428Y-78311765D01*
X143773227Y-78305804D01*
X143797495Y-78302204D01*
X143821999Y-78301000D01*
X144722001Y-78301000D01*
X144746505Y-78302204D01*
G37*
G36*
X144746505Y-76252204D02*
G01*
X144770773Y-76255804D01*
X144794572Y-76261765D01*
X144817671Y-76270030D01*
X144839850Y-76280520D01*
X144860893Y-76293132D01*
X144880599Y-76307747D01*
X144898777Y-76324223D01*
X144915253Y-76342401D01*
X144929868Y-76362107D01*
X144942480Y-76383150D01*
X144952970Y-76405329D01*
X144961235Y-76428428D01*
X144967196Y-76452227D01*
X144970796Y-76476495D01*
X144972000Y-76500999D01*
X144972000Y-77151001D01*
X144970796Y-77175505D01*
X144967196Y-77199773D01*
X144961235Y-77223572D01*
X144952970Y-77246671D01*
X144942480Y-77268850D01*
X144929868Y-77289893D01*
X144915253Y-77309599D01*
X144898777Y-77327777D01*
X144880599Y-77344253D01*
X144860893Y-77358868D01*
X144839850Y-77371480D01*
X144817671Y-77381970D01*
X144794572Y-77390235D01*
X144770773Y-77396196D01*
X144746505Y-77399796D01*
X144722001Y-77401000D01*
X143821999Y-77401000D01*
X143797495Y-77399796D01*
X143773227Y-77396196D01*
X143749428Y-77390235D01*
X143726329Y-77381970D01*
X143704150Y-77371480D01*
X143683107Y-77358868D01*
X143663401Y-77344253D01*
X143645223Y-77327777D01*
X143628747Y-77309599D01*
X143614132Y-77289893D01*
X143601520Y-77268850D01*
X143591030Y-77246671D01*
X143582765Y-77223572D01*
X143576804Y-77199773D01*
X143573204Y-77175505D01*
X143572000Y-77151001D01*
X143572000Y-76500999D01*
X143573204Y-76476495D01*
X143576804Y-76452227D01*
X143582765Y-76428428D01*
X143591030Y-76405329D01*
X143601520Y-76383150D01*
X143614132Y-76362107D01*
X143628747Y-76342401D01*
X143645223Y-76324223D01*
X143663401Y-76307747D01*
X143683107Y-76293132D01*
X143704150Y-76280520D01*
X143726329Y-76270030D01*
X143749428Y-76261765D01*
X143773227Y-76255804D01*
X143797495Y-76252204D01*
X143821999Y-76251000D01*
X144722001Y-76251000D01*
X144746505Y-76252204D01*
G37*
G36*
X150588505Y-76252204D02*
G01*
X150612773Y-76255804D01*
X150636572Y-76261765D01*
X150659671Y-76270030D01*
X150681850Y-76280520D01*
X150702893Y-76293132D01*
X150722599Y-76307747D01*
X150740777Y-76324223D01*
X150757253Y-76342401D01*
X150771868Y-76362107D01*
X150784480Y-76383150D01*
X150794970Y-76405329D01*
X150803235Y-76428428D01*
X150809196Y-76452227D01*
X150812796Y-76476495D01*
X150814000Y-76500999D01*
X150814000Y-77151001D01*
X150812796Y-77175505D01*
X150809196Y-77199773D01*
X150803235Y-77223572D01*
X150794970Y-77246671D01*
X150784480Y-77268850D01*
X150771868Y-77289893D01*
X150757253Y-77309599D01*
X150740777Y-77327777D01*
X150722599Y-77344253D01*
X150702893Y-77358868D01*
X150681850Y-77371480D01*
X150659671Y-77381970D01*
X150636572Y-77390235D01*
X150612773Y-77396196D01*
X150588505Y-77399796D01*
X150564001Y-77401000D01*
X149663999Y-77401000D01*
X149639495Y-77399796D01*
X149615227Y-77396196D01*
X149591428Y-77390235D01*
X149568329Y-77381970D01*
X149546150Y-77371480D01*
X149525107Y-77358868D01*
X149505401Y-77344253D01*
X149487223Y-77327777D01*
X149470747Y-77309599D01*
X149456132Y-77289893D01*
X149443520Y-77268850D01*
X149433030Y-77246671D01*
X149424765Y-77223572D01*
X149418804Y-77199773D01*
X149415204Y-77175505D01*
X149414000Y-77151001D01*
X149414000Y-76500999D01*
X149415204Y-76476495D01*
X149418804Y-76452227D01*
X149424765Y-76428428D01*
X149433030Y-76405329D01*
X149443520Y-76383150D01*
X149456132Y-76362107D01*
X149470747Y-76342401D01*
X149487223Y-76324223D01*
X149505401Y-76307747D01*
X149525107Y-76293132D01*
X149546150Y-76280520D01*
X149568329Y-76270030D01*
X149591428Y-76261765D01*
X149615227Y-76255804D01*
X149639495Y-76252204D01*
X149663999Y-76251000D01*
X150564001Y-76251000D01*
X150588505Y-76252204D01*
G37*
G36*
X150588505Y-78302204D02*
G01*
X150612773Y-78305804D01*
X150636572Y-78311765D01*
X150659671Y-78320030D01*
X150681850Y-78330520D01*
X150702893Y-78343132D01*
X150722599Y-78357747D01*
X150740777Y-78374223D01*
X150757253Y-78392401D01*
X150771868Y-78412107D01*
X150784480Y-78433150D01*
X150794970Y-78455329D01*
X150803235Y-78478428D01*
X150809196Y-78502227D01*
X150812796Y-78526495D01*
X150814000Y-78550999D01*
X150814000Y-79201001D01*
X150812796Y-79225505D01*
X150809196Y-79249773D01*
X150803235Y-79273572D01*
X150794970Y-79296671D01*
X150784480Y-79318850D01*
X150771868Y-79339893D01*
X150757253Y-79359599D01*
X150740777Y-79377777D01*
X150722599Y-79394253D01*
X150702893Y-79408868D01*
X150681850Y-79421480D01*
X150659671Y-79431970D01*
X150636572Y-79440235D01*
X150612773Y-79446196D01*
X150588505Y-79449796D01*
X150564001Y-79451000D01*
X149663999Y-79451000D01*
X149639495Y-79449796D01*
X149615227Y-79446196D01*
X149591428Y-79440235D01*
X149568329Y-79431970D01*
X149546150Y-79421480D01*
X149525107Y-79408868D01*
X149505401Y-79394253D01*
X149487223Y-79377777D01*
X149470747Y-79359599D01*
X149456132Y-79339893D01*
X149443520Y-79318850D01*
X149433030Y-79296671D01*
X149424765Y-79273572D01*
X149418804Y-79249773D01*
X149415204Y-79225505D01*
X149414000Y-79201001D01*
X149414000Y-78550999D01*
X149415204Y-78526495D01*
X149418804Y-78502227D01*
X149424765Y-78478428D01*
X149433030Y-78455329D01*
X149443520Y-78433150D01*
X149456132Y-78412107D01*
X149470747Y-78392401D01*
X149487223Y-78374223D01*
X149505401Y-78357747D01*
X149525107Y-78343132D01*
X149546150Y-78330520D01*
X149568329Y-78320030D01*
X149591428Y-78311765D01*
X149615227Y-78305804D01*
X149639495Y-78302204D01*
X149663999Y-78301000D01*
X150564001Y-78301000D01*
X150588505Y-78302204D01*
G37*
G36*
X144365505Y-51487204D02*
G01*
X144389773Y-51490804D01*
X144413572Y-51496765D01*
X144436671Y-51505030D01*
X144458850Y-51515520D01*
X144479893Y-51528132D01*
X144499599Y-51542747D01*
X144517777Y-51559223D01*
X144534253Y-51577401D01*
X144548868Y-51597107D01*
X144561480Y-51618150D01*
X144571970Y-51640329D01*
X144580235Y-51663428D01*
X144586196Y-51687227D01*
X144589796Y-51711495D01*
X144591000Y-51735999D01*
X144591000Y-52386001D01*
X144589796Y-52410505D01*
X144586196Y-52434773D01*
X144580235Y-52458572D01*
X144571970Y-52481671D01*
X144561480Y-52503850D01*
X144548868Y-52524893D01*
X144534253Y-52544599D01*
X144517777Y-52562777D01*
X144499599Y-52579253D01*
X144479893Y-52593868D01*
X144458850Y-52606480D01*
X144436671Y-52616970D01*
X144413572Y-52625235D01*
X144389773Y-52631196D01*
X144365505Y-52634796D01*
X144341001Y-52636000D01*
X143440999Y-52636000D01*
X143416495Y-52634796D01*
X143392227Y-52631196D01*
X143368428Y-52625235D01*
X143345329Y-52616970D01*
X143323150Y-52606480D01*
X143302107Y-52593868D01*
X143282401Y-52579253D01*
X143264223Y-52562777D01*
X143247747Y-52544599D01*
X143233132Y-52524893D01*
X143220520Y-52503850D01*
X143210030Y-52481671D01*
X143201765Y-52458572D01*
X143195804Y-52434773D01*
X143192204Y-52410505D01*
X143191000Y-52386001D01*
X143191000Y-51735999D01*
X143192204Y-51711495D01*
X143195804Y-51687227D01*
X143201765Y-51663428D01*
X143210030Y-51640329D01*
X143220520Y-51618150D01*
X143233132Y-51597107D01*
X143247747Y-51577401D01*
X143264223Y-51559223D01*
X143282401Y-51542747D01*
X143302107Y-51528132D01*
X143323150Y-51515520D01*
X143345329Y-51505030D01*
X143368428Y-51496765D01*
X143392227Y-51490804D01*
X143416495Y-51487204D01*
X143440999Y-51486000D01*
X144341001Y-51486000D01*
X144365505Y-51487204D01*
G37*
G36*
X144365505Y-53537204D02*
G01*
X144389773Y-53540804D01*
X144413572Y-53546765D01*
X144436671Y-53555030D01*
X144458850Y-53565520D01*
X144479893Y-53578132D01*
X144499599Y-53592747D01*
X144517777Y-53609223D01*
X144534253Y-53627401D01*
X144548868Y-53647107D01*
X144561480Y-53668150D01*
X144571970Y-53690329D01*
X144580235Y-53713428D01*
X144586196Y-53737227D01*
X144589796Y-53761495D01*
X144591000Y-53785999D01*
X144591000Y-54436001D01*
X144589796Y-54460505D01*
X144586196Y-54484773D01*
X144580235Y-54508572D01*
X144571970Y-54531671D01*
X144561480Y-54553850D01*
X144548868Y-54574893D01*
X144534253Y-54594599D01*
X144517777Y-54612777D01*
X144499599Y-54629253D01*
X144479893Y-54643868D01*
X144458850Y-54656480D01*
X144436671Y-54666970D01*
X144413572Y-54675235D01*
X144389773Y-54681196D01*
X144365505Y-54684796D01*
X144341001Y-54686000D01*
X143440999Y-54686000D01*
X143416495Y-54684796D01*
X143392227Y-54681196D01*
X143368428Y-54675235D01*
X143345329Y-54666970D01*
X143323150Y-54656480D01*
X143302107Y-54643868D01*
X143282401Y-54629253D01*
X143264223Y-54612777D01*
X143247747Y-54594599D01*
X143233132Y-54574893D01*
X143220520Y-54553850D01*
X143210030Y-54531671D01*
X143201765Y-54508572D01*
X143195804Y-54484773D01*
X143192204Y-54460505D01*
X143191000Y-54436001D01*
X143191000Y-53785999D01*
X143192204Y-53761495D01*
X143195804Y-53737227D01*
X143201765Y-53713428D01*
X143210030Y-53690329D01*
X143220520Y-53668150D01*
X143233132Y-53647107D01*
X143247747Y-53627401D01*
X143264223Y-53609223D01*
X143282401Y-53592747D01*
X143302107Y-53578132D01*
X143323150Y-53565520D01*
X143345329Y-53555030D01*
X143368428Y-53546765D01*
X143392227Y-53540804D01*
X143416495Y-53537204D01*
X143440999Y-53536000D01*
X144341001Y-53536000D01*
X144365505Y-53537204D01*
G37*
G36*
X150588505Y-51487204D02*
G01*
X150612773Y-51490804D01*
X150636572Y-51496765D01*
X150659671Y-51505030D01*
X150681850Y-51515520D01*
X150702893Y-51528132D01*
X150722599Y-51542747D01*
X150740777Y-51559223D01*
X150757253Y-51577401D01*
X150771868Y-51597107D01*
X150784480Y-51618150D01*
X150794970Y-51640329D01*
X150803235Y-51663428D01*
X150809196Y-51687227D01*
X150812796Y-51711495D01*
X150814000Y-51735999D01*
X150814000Y-52386001D01*
X150812796Y-52410505D01*
X150809196Y-52434773D01*
X150803235Y-52458572D01*
X150794970Y-52481671D01*
X150784480Y-52503850D01*
X150771868Y-52524893D01*
X150757253Y-52544599D01*
X150740777Y-52562777D01*
X150722599Y-52579253D01*
X150702893Y-52593868D01*
X150681850Y-52606480D01*
X150659671Y-52616970D01*
X150636572Y-52625235D01*
X150612773Y-52631196D01*
X150588505Y-52634796D01*
X150564001Y-52636000D01*
X149663999Y-52636000D01*
X149639495Y-52634796D01*
X149615227Y-52631196D01*
X149591428Y-52625235D01*
X149568329Y-52616970D01*
X149546150Y-52606480D01*
X149525107Y-52593868D01*
X149505401Y-52579253D01*
X149487223Y-52562777D01*
X149470747Y-52544599D01*
X149456132Y-52524893D01*
X149443520Y-52503850D01*
X149433030Y-52481671D01*
X149424765Y-52458572D01*
X149418804Y-52434773D01*
X149415204Y-52410505D01*
X149414000Y-52386001D01*
X149414000Y-51735999D01*
X149415204Y-51711495D01*
X149418804Y-51687227D01*
X149424765Y-51663428D01*
X149433030Y-51640329D01*
X149443520Y-51618150D01*
X149456132Y-51597107D01*
X149470747Y-51577401D01*
X149487223Y-51559223D01*
X149505401Y-51542747D01*
X149525107Y-51528132D01*
X149546150Y-51515520D01*
X149568329Y-51505030D01*
X149591428Y-51496765D01*
X149615227Y-51490804D01*
X149639495Y-51487204D01*
X149663999Y-51486000D01*
X150564001Y-51486000D01*
X150588505Y-51487204D01*
G37*
G36*
X150588505Y-53537204D02*
G01*
X150612773Y-53540804D01*
X150636572Y-53546765D01*
X150659671Y-53555030D01*
X150681850Y-53565520D01*
X150702893Y-53578132D01*
X150722599Y-53592747D01*
X150740777Y-53609223D01*
X150757253Y-53627401D01*
X150771868Y-53647107D01*
X150784480Y-53668150D01*
X150794970Y-53690329D01*
X150803235Y-53713428D01*
X150809196Y-53737227D01*
X150812796Y-53761495D01*
X150814000Y-53785999D01*
X150814000Y-54436001D01*
X150812796Y-54460505D01*
X150809196Y-54484773D01*
X150803235Y-54508572D01*
X150794970Y-54531671D01*
X150784480Y-54553850D01*
X150771868Y-54574893D01*
X150757253Y-54594599D01*
X150740777Y-54612777D01*
X150722599Y-54629253D01*
X150702893Y-54643868D01*
X150681850Y-54656480D01*
X150659671Y-54666970D01*
X150636572Y-54675235D01*
X150612773Y-54681196D01*
X150588505Y-54684796D01*
X150564001Y-54686000D01*
X149663999Y-54686000D01*
X149639495Y-54684796D01*
X149615227Y-54681196D01*
X149591428Y-54675235D01*
X149568329Y-54666970D01*
X149546150Y-54656480D01*
X149525107Y-54643868D01*
X149505401Y-54629253D01*
X149487223Y-54612777D01*
X149470747Y-54594599D01*
X149456132Y-54574893D01*
X149443520Y-54553850D01*
X149433030Y-54531671D01*
X149424765Y-54508572D01*
X149418804Y-54484773D01*
X149415204Y-54460505D01*
X149414000Y-54436001D01*
X149414000Y-53785999D01*
X149415204Y-53761495D01*
X149418804Y-53737227D01*
X149424765Y-53713428D01*
X149433030Y-53690329D01*
X149443520Y-53668150D01*
X149456132Y-53647107D01*
X149470747Y-53627401D01*
X149487223Y-53609223D01*
X149505401Y-53592747D01*
X149525107Y-53578132D01*
X149546150Y-53565520D01*
X149568329Y-53555030D01*
X149591428Y-53546765D01*
X149615227Y-53540804D01*
X149639495Y-53537204D01*
X149663999Y-53536000D01*
X150564001Y-53536000D01*
X150588505Y-53537204D01*
G37*
G36*
X156176505Y-51487204D02*
G01*
X156200773Y-51490804D01*
X156224572Y-51496765D01*
X156247671Y-51505030D01*
X156269850Y-51515520D01*
X156290893Y-51528132D01*
X156310599Y-51542747D01*
X156328777Y-51559223D01*
X156345253Y-51577401D01*
X156359868Y-51597107D01*
X156372480Y-51618150D01*
X156382970Y-51640329D01*
X156391235Y-51663428D01*
X156397196Y-51687227D01*
X156400796Y-51711495D01*
X156402000Y-51735999D01*
X156402000Y-52386001D01*
X156400796Y-52410505D01*
X156397196Y-52434773D01*
X156391235Y-52458572D01*
X156382970Y-52481671D01*
X156372480Y-52503850D01*
X156359868Y-52524893D01*
X156345253Y-52544599D01*
X156328777Y-52562777D01*
X156310599Y-52579253D01*
X156290893Y-52593868D01*
X156269850Y-52606480D01*
X156247671Y-52616970D01*
X156224572Y-52625235D01*
X156200773Y-52631196D01*
X156176505Y-52634796D01*
X156152001Y-52636000D01*
X155251999Y-52636000D01*
X155227495Y-52634796D01*
X155203227Y-52631196D01*
X155179428Y-52625235D01*
X155156329Y-52616970D01*
X155134150Y-52606480D01*
X155113107Y-52593868D01*
X155093401Y-52579253D01*
X155075223Y-52562777D01*
X155058747Y-52544599D01*
X155044132Y-52524893D01*
X155031520Y-52503850D01*
X155021030Y-52481671D01*
X155012765Y-52458572D01*
X155006804Y-52434773D01*
X155003204Y-52410505D01*
X155002000Y-52386001D01*
X155002000Y-51735999D01*
X155003204Y-51711495D01*
X155006804Y-51687227D01*
X155012765Y-51663428D01*
X155021030Y-51640329D01*
X155031520Y-51618150D01*
X155044132Y-51597107D01*
X155058747Y-51577401D01*
X155075223Y-51559223D01*
X155093401Y-51542747D01*
X155113107Y-51528132D01*
X155134150Y-51515520D01*
X155156329Y-51505030D01*
X155179428Y-51496765D01*
X155203227Y-51490804D01*
X155227495Y-51487204D01*
X155251999Y-51486000D01*
X156152001Y-51486000D01*
X156176505Y-51487204D01*
G37*
G36*
X156176505Y-53537204D02*
G01*
X156200773Y-53540804D01*
X156224572Y-53546765D01*
X156247671Y-53555030D01*
X156269850Y-53565520D01*
X156290893Y-53578132D01*
X156310599Y-53592747D01*
X156328777Y-53609223D01*
X156345253Y-53627401D01*
X156359868Y-53647107D01*
X156372480Y-53668150D01*
X156382970Y-53690329D01*
X156391235Y-53713428D01*
X156397196Y-53737227D01*
X156400796Y-53761495D01*
X156402000Y-53785999D01*
X156402000Y-54436001D01*
X156400796Y-54460505D01*
X156397196Y-54484773D01*
X156391235Y-54508572D01*
X156382970Y-54531671D01*
X156372480Y-54553850D01*
X156359868Y-54574893D01*
X156345253Y-54594599D01*
X156328777Y-54612777D01*
X156310599Y-54629253D01*
X156290893Y-54643868D01*
X156269850Y-54656480D01*
X156247671Y-54666970D01*
X156224572Y-54675235D01*
X156200773Y-54681196D01*
X156176505Y-54684796D01*
X156152001Y-54686000D01*
X155251999Y-54686000D01*
X155227495Y-54684796D01*
X155203227Y-54681196D01*
X155179428Y-54675235D01*
X155156329Y-54666970D01*
X155134150Y-54656480D01*
X155113107Y-54643868D01*
X155093401Y-54629253D01*
X155075223Y-54612777D01*
X155058747Y-54594599D01*
X155044132Y-54574893D01*
X155031520Y-54553850D01*
X155021030Y-54531671D01*
X155012765Y-54508572D01*
X155006804Y-54484773D01*
X155003204Y-54460505D01*
X155002000Y-54436001D01*
X155002000Y-53785999D01*
X155003204Y-53761495D01*
X155006804Y-53737227D01*
X155012765Y-53713428D01*
X155021030Y-53690329D01*
X155031520Y-53668150D01*
X155044132Y-53647107D01*
X155058747Y-53627401D01*
X155075223Y-53609223D01*
X155093401Y-53592747D01*
X155113107Y-53578132D01*
X155134150Y-53565520D01*
X155156329Y-53555030D01*
X155179428Y-53546765D01*
X155203227Y-53540804D01*
X155227495Y-53537204D01*
X155251999Y-53536000D01*
X156152001Y-53536000D01*
X156176505Y-53537204D01*
G37*
G36*
X127574504Y-99301204D02*
G01*
X127598773Y-99304804D01*
X127622571Y-99310765D01*
X127645671Y-99319030D01*
X127667849Y-99329520D01*
X127688893Y-99342133D01*
X127708598Y-99356747D01*
X127726777Y-99373223D01*
X127743253Y-99391402D01*
X127757867Y-99411107D01*
X127770480Y-99432151D01*
X127780970Y-99454329D01*
X127789235Y-99477429D01*
X127795196Y-99501227D01*
X127798796Y-99525496D01*
X127800000Y-99550000D01*
X127800000Y-102375000D01*
X127798796Y-102399504D01*
X127795196Y-102423773D01*
X127789235Y-102447571D01*
X127780970Y-102470671D01*
X127770480Y-102492849D01*
X127757867Y-102513893D01*
X127743253Y-102533598D01*
X127726777Y-102551777D01*
X127708598Y-102568253D01*
X127688893Y-102582867D01*
X127667849Y-102595480D01*
X127645671Y-102605970D01*
X127622571Y-102614235D01*
X127598773Y-102620196D01*
X127574504Y-102623796D01*
X127550000Y-102625000D01*
X126450000Y-102625000D01*
X126425496Y-102623796D01*
X126401227Y-102620196D01*
X126377429Y-102614235D01*
X126354329Y-102605970D01*
X126332151Y-102595480D01*
X126311107Y-102582867D01*
X126291402Y-102568253D01*
X126273223Y-102551777D01*
X126256747Y-102533598D01*
X126242133Y-102513893D01*
X126229520Y-102492849D01*
X126219030Y-102470671D01*
X126210765Y-102447571D01*
X126204804Y-102423773D01*
X126201204Y-102399504D01*
X126200000Y-102375000D01*
X126200000Y-99550000D01*
X126201204Y-99525496D01*
X126204804Y-99501227D01*
X126210765Y-99477429D01*
X126219030Y-99454329D01*
X126229520Y-99432151D01*
X126242133Y-99411107D01*
X126256747Y-99391402D01*
X126273223Y-99373223D01*
X126291402Y-99356747D01*
X126311107Y-99342133D01*
X126332151Y-99329520D01*
X126354329Y-99319030D01*
X126377429Y-99310765D01*
X126401227Y-99304804D01*
X126425496Y-99301204D01*
X126450000Y-99300000D01*
X127550000Y-99300000D01*
X127574504Y-99301204D01*
G37*
G36*
X127574504Y-94226204D02*
G01*
X127598773Y-94229804D01*
X127622571Y-94235765D01*
X127645671Y-94244030D01*
X127667849Y-94254520D01*
X127688893Y-94267133D01*
X127708598Y-94281747D01*
X127726777Y-94298223D01*
X127743253Y-94316402D01*
X127757867Y-94336107D01*
X127770480Y-94357151D01*
X127780970Y-94379329D01*
X127789235Y-94402429D01*
X127795196Y-94426227D01*
X127798796Y-94450496D01*
X127800000Y-94475000D01*
X127800000Y-97300000D01*
X127798796Y-97324504D01*
X127795196Y-97348773D01*
X127789235Y-97372571D01*
X127780970Y-97395671D01*
X127770480Y-97417849D01*
X127757867Y-97438893D01*
X127743253Y-97458598D01*
X127726777Y-97476777D01*
X127708598Y-97493253D01*
X127688893Y-97507867D01*
X127667849Y-97520480D01*
X127645671Y-97530970D01*
X127622571Y-97539235D01*
X127598773Y-97545196D01*
X127574504Y-97548796D01*
X127550000Y-97550000D01*
X126450000Y-97550000D01*
X126425496Y-97548796D01*
X126401227Y-97545196D01*
X126377429Y-97539235D01*
X126354329Y-97530970D01*
X126332151Y-97520480D01*
X126311107Y-97507867D01*
X126291402Y-97493253D01*
X126273223Y-97476777D01*
X126256747Y-97458598D01*
X126242133Y-97438893D01*
X126229520Y-97417849D01*
X126219030Y-97395671D01*
X126210765Y-97372571D01*
X126204804Y-97348773D01*
X126201204Y-97324504D01*
X126200000Y-97300000D01*
X126200000Y-94475000D01*
X126201204Y-94450496D01*
X126204804Y-94426227D01*
X126210765Y-94402429D01*
X126219030Y-94379329D01*
X126229520Y-94357151D01*
X126242133Y-94336107D01*
X126256747Y-94316402D01*
X126273223Y-94298223D01*
X126291402Y-94281747D01*
X126311107Y-94267133D01*
X126332151Y-94254520D01*
X126354329Y-94244030D01*
X126377429Y-94235765D01*
X126401227Y-94229804D01*
X126425496Y-94226204D01*
X126450000Y-94225000D01*
X127550000Y-94225000D01*
X127574504Y-94226204D01*
G37*
G36*
X127574504Y-109080204D02*
G01*
X127598773Y-109083804D01*
X127622571Y-109089765D01*
X127645671Y-109098030D01*
X127667849Y-109108520D01*
X127688893Y-109121133D01*
X127708598Y-109135747D01*
X127726777Y-109152223D01*
X127743253Y-109170402D01*
X127757867Y-109190107D01*
X127770480Y-109211151D01*
X127780970Y-109233329D01*
X127789235Y-109256429D01*
X127795196Y-109280227D01*
X127798796Y-109304496D01*
X127800000Y-109329000D01*
X127800000Y-112154000D01*
X127798796Y-112178504D01*
X127795196Y-112202773D01*
X127789235Y-112226571D01*
X127780970Y-112249671D01*
X127770480Y-112271849D01*
X127757867Y-112292893D01*
X127743253Y-112312598D01*
X127726777Y-112330777D01*
X127708598Y-112347253D01*
X127688893Y-112361867D01*
X127667849Y-112374480D01*
X127645671Y-112384970D01*
X127622571Y-112393235D01*
X127598773Y-112399196D01*
X127574504Y-112402796D01*
X127550000Y-112404000D01*
X126450000Y-112404000D01*
X126425496Y-112402796D01*
X126401227Y-112399196D01*
X126377429Y-112393235D01*
X126354329Y-112384970D01*
X126332151Y-112374480D01*
X126311107Y-112361867D01*
X126291402Y-112347253D01*
X126273223Y-112330777D01*
X126256747Y-112312598D01*
X126242133Y-112292893D01*
X126229520Y-112271849D01*
X126219030Y-112249671D01*
X126210765Y-112226571D01*
X126204804Y-112202773D01*
X126201204Y-112178504D01*
X126200000Y-112154000D01*
X126200000Y-109329000D01*
X126201204Y-109304496D01*
X126204804Y-109280227D01*
X126210765Y-109256429D01*
X126219030Y-109233329D01*
X126229520Y-109211151D01*
X126242133Y-109190107D01*
X126256747Y-109170402D01*
X126273223Y-109152223D01*
X126291402Y-109135747D01*
X126311107Y-109121133D01*
X126332151Y-109108520D01*
X126354329Y-109098030D01*
X126377429Y-109089765D01*
X126401227Y-109083804D01*
X126425496Y-109080204D01*
X126450000Y-109079000D01*
X127550000Y-109079000D01*
X127574504Y-109080204D01*
G37*
G36*
X127574504Y-104005204D02*
G01*
X127598773Y-104008804D01*
X127622571Y-104014765D01*
X127645671Y-104023030D01*
X127667849Y-104033520D01*
X127688893Y-104046133D01*
X127708598Y-104060747D01*
X127726777Y-104077223D01*
X127743253Y-104095402D01*
X127757867Y-104115107D01*
X127770480Y-104136151D01*
X127780970Y-104158329D01*
X127789235Y-104181429D01*
X127795196Y-104205227D01*
X127798796Y-104229496D01*
X127800000Y-104254000D01*
X127800000Y-107079000D01*
X127798796Y-107103504D01*
X127795196Y-107127773D01*
X127789235Y-107151571D01*
X127780970Y-107174671D01*
X127770480Y-107196849D01*
X127757867Y-107217893D01*
X127743253Y-107237598D01*
X127726777Y-107255777D01*
X127708598Y-107272253D01*
X127688893Y-107286867D01*
X127667849Y-107299480D01*
X127645671Y-107309970D01*
X127622571Y-107318235D01*
X127598773Y-107324196D01*
X127574504Y-107327796D01*
X127550000Y-107329000D01*
X126450000Y-107329000D01*
X126425496Y-107327796D01*
X126401227Y-107324196D01*
X126377429Y-107318235D01*
X126354329Y-107309970D01*
X126332151Y-107299480D01*
X126311107Y-107286867D01*
X126291402Y-107272253D01*
X126273223Y-107255777D01*
X126256747Y-107237598D01*
X126242133Y-107217893D01*
X126229520Y-107196849D01*
X126219030Y-107174671D01*
X126210765Y-107151571D01*
X126204804Y-107127773D01*
X126201204Y-107103504D01*
X126200000Y-107079000D01*
X126200000Y-104254000D01*
X126201204Y-104229496D01*
X126204804Y-104205227D01*
X126210765Y-104181429D01*
X126219030Y-104158329D01*
X126229520Y-104136151D01*
X126242133Y-104115107D01*
X126256747Y-104095402D01*
X126273223Y-104077223D01*
X126291402Y-104060747D01*
X126311107Y-104046133D01*
X126332151Y-104033520D01*
X126354329Y-104023030D01*
X126377429Y-104014765D01*
X126401227Y-104008804D01*
X126425496Y-104005204D01*
X126450000Y-104004000D01*
X127550000Y-104004000D01*
X127574504Y-104005204D01*
G37*
G36*
X140649504Y-99836204D02*
G01*
X140673773Y-99839804D01*
X140697571Y-99845765D01*
X140720671Y-99854030D01*
X140742849Y-99864520D01*
X140763893Y-99877133D01*
X140783598Y-99891747D01*
X140801777Y-99908223D01*
X140818253Y-99926402D01*
X140832867Y-99946107D01*
X140845480Y-99967151D01*
X140855970Y-99989329D01*
X140864235Y-100012429D01*
X140870196Y-100036227D01*
X140873796Y-100060496D01*
X140875000Y-100085000D01*
X140875000Y-101010000D01*
X140873796Y-101034504D01*
X140870196Y-101058773D01*
X140864235Y-101082571D01*
X140855970Y-101105671D01*
X140845480Y-101127849D01*
X140832867Y-101148893D01*
X140818253Y-101168598D01*
X140801777Y-101186777D01*
X140783598Y-101203253D01*
X140763893Y-101217867D01*
X140742849Y-101230480D01*
X140720671Y-101240970D01*
X140697571Y-101249235D01*
X140673773Y-101255196D01*
X140649504Y-101258796D01*
X140625000Y-101260000D01*
X139375000Y-101260000D01*
X139350496Y-101258796D01*
X139326227Y-101255196D01*
X139302429Y-101249235D01*
X139279329Y-101240970D01*
X139257151Y-101230480D01*
X139236107Y-101217867D01*
X139216402Y-101203253D01*
X139198223Y-101186777D01*
X139181747Y-101168598D01*
X139167133Y-101148893D01*
X139154520Y-101127849D01*
X139144030Y-101105671D01*
X139135765Y-101082571D01*
X139129804Y-101058773D01*
X139126204Y-101034504D01*
X139125000Y-101010000D01*
X139125000Y-100085000D01*
X139126204Y-100060496D01*
X139129804Y-100036227D01*
X139135765Y-100012429D01*
X139144030Y-99989329D01*
X139154520Y-99967151D01*
X139167133Y-99946107D01*
X139181747Y-99926402D01*
X139198223Y-99908223D01*
X139216402Y-99891747D01*
X139236107Y-99877133D01*
X139257151Y-99864520D01*
X139279329Y-99854030D01*
X139302429Y-99845765D01*
X139326227Y-99839804D01*
X139350496Y-99836204D01*
X139375000Y-99835000D01*
X140625000Y-99835000D01*
X140649504Y-99836204D01*
G37*
G36*
X140649504Y-96861204D02*
G01*
X140673773Y-96864804D01*
X140697571Y-96870765D01*
X140720671Y-96879030D01*
X140742849Y-96889520D01*
X140763893Y-96902133D01*
X140783598Y-96916747D01*
X140801777Y-96933223D01*
X140818253Y-96951402D01*
X140832867Y-96971107D01*
X140845480Y-96992151D01*
X140855970Y-97014329D01*
X140864235Y-97037429D01*
X140870196Y-97061227D01*
X140873796Y-97085496D01*
X140875000Y-97110000D01*
X140875000Y-98035000D01*
X140873796Y-98059504D01*
X140870196Y-98083773D01*
X140864235Y-98107571D01*
X140855970Y-98130671D01*
X140845480Y-98152849D01*
X140832867Y-98173893D01*
X140818253Y-98193598D01*
X140801777Y-98211777D01*
X140783598Y-98228253D01*
X140763893Y-98242867D01*
X140742849Y-98255480D01*
X140720671Y-98265970D01*
X140697571Y-98274235D01*
X140673773Y-98280196D01*
X140649504Y-98283796D01*
X140625000Y-98285000D01*
X139375000Y-98285000D01*
X139350496Y-98283796D01*
X139326227Y-98280196D01*
X139302429Y-98274235D01*
X139279329Y-98265970D01*
X139257151Y-98255480D01*
X139236107Y-98242867D01*
X139216402Y-98228253D01*
X139198223Y-98211777D01*
X139181747Y-98193598D01*
X139167133Y-98173893D01*
X139154520Y-98152849D01*
X139144030Y-98130671D01*
X139135765Y-98107571D01*
X139129804Y-98083773D01*
X139126204Y-98059504D01*
X139125000Y-98035000D01*
X139125000Y-97110000D01*
X139126204Y-97085496D01*
X139129804Y-97061227D01*
X139135765Y-97037429D01*
X139144030Y-97014329D01*
X139154520Y-96992151D01*
X139167133Y-96971107D01*
X139181747Y-96951402D01*
X139198223Y-96933223D01*
X139216402Y-96916747D01*
X139236107Y-96902133D01*
X139257151Y-96889520D01*
X139279329Y-96879030D01*
X139302429Y-96870765D01*
X139326227Y-96864804D01*
X139350496Y-96861204D01*
X139375000Y-96860000D01*
X140625000Y-96860000D01*
X140649504Y-96861204D01*
G37*
G36*
X140649504Y-106513204D02*
G01*
X140673773Y-106516804D01*
X140697571Y-106522765D01*
X140720671Y-106531030D01*
X140742849Y-106541520D01*
X140763893Y-106554133D01*
X140783598Y-106568747D01*
X140801777Y-106585223D01*
X140818253Y-106603402D01*
X140832867Y-106623107D01*
X140845480Y-106644151D01*
X140855970Y-106666329D01*
X140864235Y-106689429D01*
X140870196Y-106713227D01*
X140873796Y-106737496D01*
X140875000Y-106762000D01*
X140875000Y-107687000D01*
X140873796Y-107711504D01*
X140870196Y-107735773D01*
X140864235Y-107759571D01*
X140855970Y-107782671D01*
X140845480Y-107804849D01*
X140832867Y-107825893D01*
X140818253Y-107845598D01*
X140801777Y-107863777D01*
X140783598Y-107880253D01*
X140763893Y-107894867D01*
X140742849Y-107907480D01*
X140720671Y-107917970D01*
X140697571Y-107926235D01*
X140673773Y-107932196D01*
X140649504Y-107935796D01*
X140625000Y-107937000D01*
X139375000Y-107937000D01*
X139350496Y-107935796D01*
X139326227Y-107932196D01*
X139302429Y-107926235D01*
X139279329Y-107917970D01*
X139257151Y-107907480D01*
X139236107Y-107894867D01*
X139216402Y-107880253D01*
X139198223Y-107863777D01*
X139181747Y-107845598D01*
X139167133Y-107825893D01*
X139154520Y-107804849D01*
X139144030Y-107782671D01*
X139135765Y-107759571D01*
X139129804Y-107735773D01*
X139126204Y-107711504D01*
X139125000Y-107687000D01*
X139125000Y-106762000D01*
X139126204Y-106737496D01*
X139129804Y-106713227D01*
X139135765Y-106689429D01*
X139144030Y-106666329D01*
X139154520Y-106644151D01*
X139167133Y-106623107D01*
X139181747Y-106603402D01*
X139198223Y-106585223D01*
X139216402Y-106568747D01*
X139236107Y-106554133D01*
X139257151Y-106541520D01*
X139279329Y-106531030D01*
X139302429Y-106522765D01*
X139326227Y-106516804D01*
X139350496Y-106513204D01*
X139375000Y-106512000D01*
X140625000Y-106512000D01*
X140649504Y-106513204D01*
G37*
G36*
X140649504Y-109488204D02*
G01*
X140673773Y-109491804D01*
X140697571Y-109497765D01*
X140720671Y-109506030D01*
X140742849Y-109516520D01*
X140763893Y-109529133D01*
X140783598Y-109543747D01*
X140801777Y-109560223D01*
X140818253Y-109578402D01*
X140832867Y-109598107D01*
X140845480Y-109619151D01*
X140855970Y-109641329D01*
X140864235Y-109664429D01*
X140870196Y-109688227D01*
X140873796Y-109712496D01*
X140875000Y-109737000D01*
X140875000Y-110662000D01*
X140873796Y-110686504D01*
X140870196Y-110710773D01*
X140864235Y-110734571D01*
X140855970Y-110757671D01*
X140845480Y-110779849D01*
X140832867Y-110800893D01*
X140818253Y-110820598D01*
X140801777Y-110838777D01*
X140783598Y-110855253D01*
X140763893Y-110869867D01*
X140742849Y-110882480D01*
X140720671Y-110892970D01*
X140697571Y-110901235D01*
X140673773Y-110907196D01*
X140649504Y-110910796D01*
X140625000Y-110912000D01*
X139375000Y-110912000D01*
X139350496Y-110910796D01*
X139326227Y-110907196D01*
X139302429Y-110901235D01*
X139279329Y-110892970D01*
X139257151Y-110882480D01*
X139236107Y-110869867D01*
X139216402Y-110855253D01*
X139198223Y-110838777D01*
X139181747Y-110820598D01*
X139167133Y-110800893D01*
X139154520Y-110779849D01*
X139144030Y-110757671D01*
X139135765Y-110734571D01*
X139129804Y-110710773D01*
X139126204Y-110686504D01*
X139125000Y-110662000D01*
X139125000Y-109737000D01*
X139126204Y-109712496D01*
X139129804Y-109688227D01*
X139135765Y-109664429D01*
X139144030Y-109641329D01*
X139154520Y-109619151D01*
X139167133Y-109598107D01*
X139181747Y-109578402D01*
X139198223Y-109560223D01*
X139216402Y-109543747D01*
X139236107Y-109529133D01*
X139257151Y-109516520D01*
X139279329Y-109506030D01*
X139302429Y-109497765D01*
X139326227Y-109491804D01*
X139350496Y-109488204D01*
X139375000Y-109487000D01*
X140625000Y-109487000D01*
X140649504Y-109488204D01*
G37*
G36*
X160113505Y-53537204D02*
G01*
X160137773Y-53540804D01*
X160161572Y-53546765D01*
X160184671Y-53555030D01*
X160206850Y-53565520D01*
X160227893Y-53578132D01*
X160247599Y-53592747D01*
X160265777Y-53609223D01*
X160282253Y-53627401D01*
X160296868Y-53647107D01*
X160309480Y-53668150D01*
X160319970Y-53690329D01*
X160328235Y-53713428D01*
X160334196Y-53737227D01*
X160337796Y-53761495D01*
X160339000Y-53785999D01*
X160339000Y-54436001D01*
X160337796Y-54460505D01*
X160334196Y-54484773D01*
X160328235Y-54508572D01*
X160319970Y-54531671D01*
X160309480Y-54553850D01*
X160296868Y-54574893D01*
X160282253Y-54594599D01*
X160265777Y-54612777D01*
X160247599Y-54629253D01*
X160227893Y-54643868D01*
X160206850Y-54656480D01*
X160184671Y-54666970D01*
X160161572Y-54675235D01*
X160137773Y-54681196D01*
X160113505Y-54684796D01*
X160089001Y-54686000D01*
X159188999Y-54686000D01*
X159164495Y-54684796D01*
X159140227Y-54681196D01*
X159116428Y-54675235D01*
X159093329Y-54666970D01*
X159071150Y-54656480D01*
X159050107Y-54643868D01*
X159030401Y-54629253D01*
X159012223Y-54612777D01*
X158995747Y-54594599D01*
X158981132Y-54574893D01*
X158968520Y-54553850D01*
X158958030Y-54531671D01*
X158949765Y-54508572D01*
X158943804Y-54484773D01*
X158940204Y-54460505D01*
X158939000Y-54436001D01*
X158939000Y-53785999D01*
X158940204Y-53761495D01*
X158943804Y-53737227D01*
X158949765Y-53713428D01*
X158958030Y-53690329D01*
X158968520Y-53668150D01*
X158981132Y-53647107D01*
X158995747Y-53627401D01*
X159012223Y-53609223D01*
X159030401Y-53592747D01*
X159050107Y-53578132D01*
X159071150Y-53565520D01*
X159093329Y-53555030D01*
X159116428Y-53546765D01*
X159140227Y-53540804D01*
X159164495Y-53537204D01*
X159188999Y-53536000D01*
X160089001Y-53536000D01*
X160113505Y-53537204D01*
G37*
G36*
X160113505Y-51487204D02*
G01*
X160137773Y-51490804D01*
X160161572Y-51496765D01*
X160184671Y-51505030D01*
X160206850Y-51515520D01*
X160227893Y-51528132D01*
X160247599Y-51542747D01*
X160265777Y-51559223D01*
X160282253Y-51577401D01*
X160296868Y-51597107D01*
X160309480Y-51618150D01*
X160319970Y-51640329D01*
X160328235Y-51663428D01*
X160334196Y-51687227D01*
X160337796Y-51711495D01*
X160339000Y-51735999D01*
X160339000Y-52386001D01*
X160337796Y-52410505D01*
X160334196Y-52434773D01*
X160328235Y-52458572D01*
X160319970Y-52481671D01*
X160309480Y-52503850D01*
X160296868Y-52524893D01*
X160282253Y-52544599D01*
X160265777Y-52562777D01*
X160247599Y-52579253D01*
X160227893Y-52593868D01*
X160206850Y-52606480D01*
X160184671Y-52616970D01*
X160161572Y-52625235D01*
X160137773Y-52631196D01*
X160113505Y-52634796D01*
X160089001Y-52636000D01*
X159188999Y-52636000D01*
X159164495Y-52634796D01*
X159140227Y-52631196D01*
X159116428Y-52625235D01*
X159093329Y-52616970D01*
X159071150Y-52606480D01*
X159050107Y-52593868D01*
X159030401Y-52579253D01*
X159012223Y-52562777D01*
X158995747Y-52544599D01*
X158981132Y-52524893D01*
X158968520Y-52503850D01*
X158958030Y-52481671D01*
X158949765Y-52458572D01*
X158943804Y-52434773D01*
X158940204Y-52410505D01*
X158939000Y-52386001D01*
X158939000Y-51735999D01*
X158940204Y-51711495D01*
X158943804Y-51687227D01*
X158949765Y-51663428D01*
X158958030Y-51640329D01*
X158968520Y-51618150D01*
X158981132Y-51597107D01*
X158995747Y-51577401D01*
X159012223Y-51559223D01*
X159030401Y-51542747D01*
X159050107Y-51528132D01*
X159071150Y-51515520D01*
X159093329Y-51505030D01*
X159116428Y-51496765D01*
X159140227Y-51490804D01*
X159164495Y-51487204D01*
X159188999Y-51486000D01*
X160089001Y-51486000D01*
X160113505Y-51487204D01*
G37*
G36*
X160113505Y-64332204D02*
G01*
X160137773Y-64335804D01*
X160161572Y-64341765D01*
X160184671Y-64350030D01*
X160206850Y-64360520D01*
X160227893Y-64373132D01*
X160247599Y-64387747D01*
X160265777Y-64404223D01*
X160282253Y-64422401D01*
X160296868Y-64442107D01*
X160309480Y-64463150D01*
X160319970Y-64485329D01*
X160328235Y-64508428D01*
X160334196Y-64532227D01*
X160337796Y-64556495D01*
X160339000Y-64580999D01*
X160339000Y-65231001D01*
X160337796Y-65255505D01*
X160334196Y-65279773D01*
X160328235Y-65303572D01*
X160319970Y-65326671D01*
X160309480Y-65348850D01*
X160296868Y-65369893D01*
X160282253Y-65389599D01*
X160265777Y-65407777D01*
X160247599Y-65424253D01*
X160227893Y-65438868D01*
X160206850Y-65451480D01*
X160184671Y-65461970D01*
X160161572Y-65470235D01*
X160137773Y-65476196D01*
X160113505Y-65479796D01*
X160089001Y-65481000D01*
X159188999Y-65481000D01*
X159164495Y-65479796D01*
X159140227Y-65476196D01*
X159116428Y-65470235D01*
X159093329Y-65461970D01*
X159071150Y-65451480D01*
X159050107Y-65438868D01*
X159030401Y-65424253D01*
X159012223Y-65407777D01*
X158995747Y-65389599D01*
X158981132Y-65369893D01*
X158968520Y-65348850D01*
X158958030Y-65326671D01*
X158949765Y-65303572D01*
X158943804Y-65279773D01*
X158940204Y-65255505D01*
X158939000Y-65231001D01*
X158939000Y-64580999D01*
X158940204Y-64556495D01*
X158943804Y-64532227D01*
X158949765Y-64508428D01*
X158958030Y-64485329D01*
X158968520Y-64463150D01*
X158981132Y-64442107D01*
X158995747Y-64422401D01*
X159012223Y-64404223D01*
X159030401Y-64387747D01*
X159050107Y-64373132D01*
X159071150Y-64360520D01*
X159093329Y-64350030D01*
X159116428Y-64341765D01*
X159140227Y-64335804D01*
X159164495Y-64332204D01*
X159188999Y-64331000D01*
X160089001Y-64331000D01*
X160113505Y-64332204D01*
G37*
G36*
X160113505Y-62282204D02*
G01*
X160137773Y-62285804D01*
X160161572Y-62291765D01*
X160184671Y-62300030D01*
X160206850Y-62310520D01*
X160227893Y-62323132D01*
X160247599Y-62337747D01*
X160265777Y-62354223D01*
X160282253Y-62372401D01*
X160296868Y-62392107D01*
X160309480Y-62413150D01*
X160319970Y-62435329D01*
X160328235Y-62458428D01*
X160334196Y-62482227D01*
X160337796Y-62506495D01*
X160339000Y-62530999D01*
X160339000Y-63181001D01*
X160337796Y-63205505D01*
X160334196Y-63229773D01*
X160328235Y-63253572D01*
X160319970Y-63276671D01*
X160309480Y-63298850D01*
X160296868Y-63319893D01*
X160282253Y-63339599D01*
X160265777Y-63357777D01*
X160247599Y-63374253D01*
X160227893Y-63388868D01*
X160206850Y-63401480D01*
X160184671Y-63411970D01*
X160161572Y-63420235D01*
X160137773Y-63426196D01*
X160113505Y-63429796D01*
X160089001Y-63431000D01*
X159188999Y-63431000D01*
X159164495Y-63429796D01*
X159140227Y-63426196D01*
X159116428Y-63420235D01*
X159093329Y-63411970D01*
X159071150Y-63401480D01*
X159050107Y-63388868D01*
X159030401Y-63374253D01*
X159012223Y-63357777D01*
X158995747Y-63339599D01*
X158981132Y-63319893D01*
X158968520Y-63298850D01*
X158958030Y-63276671D01*
X158949765Y-63253572D01*
X158943804Y-63229773D01*
X158940204Y-63205505D01*
X158939000Y-63181001D01*
X158939000Y-62530999D01*
X158940204Y-62506495D01*
X158943804Y-62482227D01*
X158949765Y-62458428D01*
X158958030Y-62435329D01*
X158968520Y-62413150D01*
X158981132Y-62392107D01*
X158995747Y-62372401D01*
X159012223Y-62354223D01*
X159030401Y-62337747D01*
X159050107Y-62323132D01*
X159071150Y-62310520D01*
X159093329Y-62300030D01*
X159116428Y-62291765D01*
X159140227Y-62285804D01*
X159164495Y-62282204D01*
X159188999Y-62281000D01*
X160089001Y-62281000D01*
X160113505Y-62282204D01*
G37*
G36*
X141317505Y-89224204D02*
G01*
X141341773Y-89227804D01*
X141365572Y-89233765D01*
X141388671Y-89242030D01*
X141410850Y-89252520D01*
X141431893Y-89265132D01*
X141451599Y-89279747D01*
X141469777Y-89296223D01*
X141486253Y-89314401D01*
X141500868Y-89334107D01*
X141513480Y-89355150D01*
X141523970Y-89377329D01*
X141532235Y-89400428D01*
X141538196Y-89424227D01*
X141541796Y-89448495D01*
X141543000Y-89472999D01*
X141543000Y-90123001D01*
X141541796Y-90147505D01*
X141538196Y-90171773D01*
X141532235Y-90195572D01*
X141523970Y-90218671D01*
X141513480Y-90240850D01*
X141500868Y-90261893D01*
X141486253Y-90281599D01*
X141469777Y-90299777D01*
X141451599Y-90316253D01*
X141431893Y-90330868D01*
X141410850Y-90343480D01*
X141388671Y-90353970D01*
X141365572Y-90362235D01*
X141341773Y-90368196D01*
X141317505Y-90371796D01*
X141293001Y-90373000D01*
X140392999Y-90373000D01*
X140368495Y-90371796D01*
X140344227Y-90368196D01*
X140320428Y-90362235D01*
X140297329Y-90353970D01*
X140275150Y-90343480D01*
X140254107Y-90330868D01*
X140234401Y-90316253D01*
X140216223Y-90299777D01*
X140199747Y-90281599D01*
X140185132Y-90261893D01*
X140172520Y-90240850D01*
X140162030Y-90218671D01*
X140153765Y-90195572D01*
X140147804Y-90171773D01*
X140144204Y-90147505D01*
X140143000Y-90123001D01*
X140143000Y-89472999D01*
X140144204Y-89448495D01*
X140147804Y-89424227D01*
X140153765Y-89400428D01*
X140162030Y-89377329D01*
X140172520Y-89355150D01*
X140185132Y-89334107D01*
X140199747Y-89314401D01*
X140216223Y-89296223D01*
X140234401Y-89279747D01*
X140254107Y-89265132D01*
X140275150Y-89252520D01*
X140297329Y-89242030D01*
X140320428Y-89233765D01*
X140344227Y-89227804D01*
X140368495Y-89224204D01*
X140392999Y-89223000D01*
X141293001Y-89223000D01*
X141317505Y-89224204D01*
G37*
G36*
X141317505Y-87174204D02*
G01*
X141341773Y-87177804D01*
X141365572Y-87183765D01*
X141388671Y-87192030D01*
X141410850Y-87202520D01*
X141431893Y-87215132D01*
X141451599Y-87229747D01*
X141469777Y-87246223D01*
X141486253Y-87264401D01*
X141500868Y-87284107D01*
X141513480Y-87305150D01*
X141523970Y-87327329D01*
X141532235Y-87350428D01*
X141538196Y-87374227D01*
X141541796Y-87398495D01*
X141543000Y-87422999D01*
X141543000Y-88073001D01*
X141541796Y-88097505D01*
X141538196Y-88121773D01*
X141532235Y-88145572D01*
X141523970Y-88168671D01*
X141513480Y-88190850D01*
X141500868Y-88211893D01*
X141486253Y-88231599D01*
X141469777Y-88249777D01*
X141451599Y-88266253D01*
X141431893Y-88280868D01*
X141410850Y-88293480D01*
X141388671Y-88303970D01*
X141365572Y-88312235D01*
X141341773Y-88318196D01*
X141317505Y-88321796D01*
X141293001Y-88323000D01*
X140392999Y-88323000D01*
X140368495Y-88321796D01*
X140344227Y-88318196D01*
X140320428Y-88312235D01*
X140297329Y-88303970D01*
X140275150Y-88293480D01*
X140254107Y-88280868D01*
X140234401Y-88266253D01*
X140216223Y-88249777D01*
X140199747Y-88231599D01*
X140185132Y-88211893D01*
X140172520Y-88190850D01*
X140162030Y-88168671D01*
X140153765Y-88145572D01*
X140147804Y-88121773D01*
X140144204Y-88097505D01*
X140143000Y-88073001D01*
X140143000Y-87422999D01*
X140144204Y-87398495D01*
X140147804Y-87374227D01*
X140153765Y-87350428D01*
X140162030Y-87327329D01*
X140172520Y-87305150D01*
X140185132Y-87284107D01*
X140199747Y-87264401D01*
X140216223Y-87246223D01*
X140234401Y-87229747D01*
X140254107Y-87215132D01*
X140275150Y-87202520D01*
X140297329Y-87192030D01*
X140320428Y-87183765D01*
X140344227Y-87177804D01*
X140368495Y-87174204D01*
X140392999Y-87173000D01*
X141293001Y-87173000D01*
X141317505Y-87174204D01*
G37*
G36*
X141190505Y-82747204D02*
G01*
X141214773Y-82750804D01*
X141238572Y-82756765D01*
X141261671Y-82765030D01*
X141283850Y-82775520D01*
X141304893Y-82788132D01*
X141324599Y-82802747D01*
X141342777Y-82819223D01*
X141359253Y-82837401D01*
X141373868Y-82857107D01*
X141386480Y-82878150D01*
X141396970Y-82900329D01*
X141405235Y-82923428D01*
X141411196Y-82947227D01*
X141414796Y-82971495D01*
X141416000Y-82995999D01*
X141416000Y-83646001D01*
X141414796Y-83670505D01*
X141411196Y-83694773D01*
X141405235Y-83718572D01*
X141396970Y-83741671D01*
X141386480Y-83763850D01*
X141373868Y-83784893D01*
X141359253Y-83804599D01*
X141342777Y-83822777D01*
X141324599Y-83839253D01*
X141304893Y-83853868D01*
X141283850Y-83866480D01*
X141261671Y-83876970D01*
X141238572Y-83885235D01*
X141214773Y-83891196D01*
X141190505Y-83894796D01*
X141166001Y-83896000D01*
X140265999Y-83896000D01*
X140241495Y-83894796D01*
X140217227Y-83891196D01*
X140193428Y-83885235D01*
X140170329Y-83876970D01*
X140148150Y-83866480D01*
X140127107Y-83853868D01*
X140107401Y-83839253D01*
X140089223Y-83822777D01*
X140072747Y-83804599D01*
X140058132Y-83784893D01*
X140045520Y-83763850D01*
X140035030Y-83741671D01*
X140026765Y-83718572D01*
X140020804Y-83694773D01*
X140017204Y-83670505D01*
X140016000Y-83646001D01*
X140016000Y-82995999D01*
X140017204Y-82971495D01*
X140020804Y-82947227D01*
X140026765Y-82923428D01*
X140035030Y-82900329D01*
X140045520Y-82878150D01*
X140058132Y-82857107D01*
X140072747Y-82837401D01*
X140089223Y-82819223D01*
X140107401Y-82802747D01*
X140127107Y-82788132D01*
X140148150Y-82775520D01*
X140170329Y-82765030D01*
X140193428Y-82756765D01*
X140217227Y-82750804D01*
X140241495Y-82747204D01*
X140265999Y-82746000D01*
X141166001Y-82746000D01*
X141190505Y-82747204D01*
G37*
G36*
X141190505Y-80697204D02*
G01*
X141214773Y-80700804D01*
X141238572Y-80706765D01*
X141261671Y-80715030D01*
X141283850Y-80725520D01*
X141304893Y-80738132D01*
X141324599Y-80752747D01*
X141342777Y-80769223D01*
X141359253Y-80787401D01*
X141373868Y-80807107D01*
X141386480Y-80828150D01*
X141396970Y-80850329D01*
X141405235Y-80873428D01*
X141411196Y-80897227D01*
X141414796Y-80921495D01*
X141416000Y-80945999D01*
X141416000Y-81596001D01*
X141414796Y-81620505D01*
X141411196Y-81644773D01*
X141405235Y-81668572D01*
X141396970Y-81691671D01*
X141386480Y-81713850D01*
X141373868Y-81734893D01*
X141359253Y-81754599D01*
X141342777Y-81772777D01*
X141324599Y-81789253D01*
X141304893Y-81803868D01*
X141283850Y-81816480D01*
X141261671Y-81826970D01*
X141238572Y-81835235D01*
X141214773Y-81841196D01*
X141190505Y-81844796D01*
X141166001Y-81846000D01*
X140265999Y-81846000D01*
X140241495Y-81844796D01*
X140217227Y-81841196D01*
X140193428Y-81835235D01*
X140170329Y-81826970D01*
X140148150Y-81816480D01*
X140127107Y-81803868D01*
X140107401Y-81789253D01*
X140089223Y-81772777D01*
X140072747Y-81754599D01*
X140058132Y-81734893D01*
X140045520Y-81713850D01*
X140035030Y-81691671D01*
X140026765Y-81668572D01*
X140020804Y-81644773D01*
X140017204Y-81620505D01*
X140016000Y-81596001D01*
X140016000Y-80945999D01*
X140017204Y-80921495D01*
X140020804Y-80897227D01*
X140026765Y-80873428D01*
X140035030Y-80850329D01*
X140045520Y-80828150D01*
X140058132Y-80807107D01*
X140072747Y-80787401D01*
X140089223Y-80769223D01*
X140107401Y-80752747D01*
X140127107Y-80738132D01*
X140148150Y-80725520D01*
X140170329Y-80715030D01*
X140193428Y-80706765D01*
X140217227Y-80700804D01*
X140241495Y-80697204D01*
X140265999Y-80696000D01*
X141166001Y-80696000D01*
X141190505Y-80697204D01*
G37*
G36*
X156430505Y-88081204D02*
G01*
X156454773Y-88084804D01*
X156478572Y-88090765D01*
X156501671Y-88099030D01*
X156523850Y-88109520D01*
X156544893Y-88122132D01*
X156564599Y-88136747D01*
X156582777Y-88153223D01*
X156599253Y-88171401D01*
X156613868Y-88191107D01*
X156626480Y-88212150D01*
X156636970Y-88234329D01*
X156645235Y-88257428D01*
X156651196Y-88281227D01*
X156654796Y-88305495D01*
X156656000Y-88329999D01*
X156656000Y-88980001D01*
X156654796Y-89004505D01*
X156651196Y-89028773D01*
X156645235Y-89052572D01*
X156636970Y-89075671D01*
X156626480Y-89097850D01*
X156613868Y-89118893D01*
X156599253Y-89138599D01*
X156582777Y-89156777D01*
X156564599Y-89173253D01*
X156544893Y-89187868D01*
X156523850Y-89200480D01*
X156501671Y-89210970D01*
X156478572Y-89219235D01*
X156454773Y-89225196D01*
X156430505Y-89228796D01*
X156406001Y-89230000D01*
X155505999Y-89230000D01*
X155481495Y-89228796D01*
X155457227Y-89225196D01*
X155433428Y-89219235D01*
X155410329Y-89210970D01*
X155388150Y-89200480D01*
X155367107Y-89187868D01*
X155347401Y-89173253D01*
X155329223Y-89156777D01*
X155312747Y-89138599D01*
X155298132Y-89118893D01*
X155285520Y-89097850D01*
X155275030Y-89075671D01*
X155266765Y-89052572D01*
X155260804Y-89028773D01*
X155257204Y-89004505D01*
X155256000Y-88980001D01*
X155256000Y-88329999D01*
X155257204Y-88305495D01*
X155260804Y-88281227D01*
X155266765Y-88257428D01*
X155275030Y-88234329D01*
X155285520Y-88212150D01*
X155298132Y-88191107D01*
X155312747Y-88171401D01*
X155329223Y-88153223D01*
X155347401Y-88136747D01*
X155367107Y-88122132D01*
X155388150Y-88109520D01*
X155410329Y-88099030D01*
X155433428Y-88090765D01*
X155457227Y-88084804D01*
X155481495Y-88081204D01*
X155505999Y-88080000D01*
X156406001Y-88080000D01*
X156430505Y-88081204D01*
G37*
G36*
X156430505Y-86031204D02*
G01*
X156454773Y-86034804D01*
X156478572Y-86040765D01*
X156501671Y-86049030D01*
X156523850Y-86059520D01*
X156544893Y-86072132D01*
X156564599Y-86086747D01*
X156582777Y-86103223D01*
X156599253Y-86121401D01*
X156613868Y-86141107D01*
X156626480Y-86162150D01*
X156636970Y-86184329D01*
X156645235Y-86207428D01*
X156651196Y-86231227D01*
X156654796Y-86255495D01*
X156656000Y-86279999D01*
X156656000Y-86930001D01*
X156654796Y-86954505D01*
X156651196Y-86978773D01*
X156645235Y-87002572D01*
X156636970Y-87025671D01*
X156626480Y-87047850D01*
X156613868Y-87068893D01*
X156599253Y-87088599D01*
X156582777Y-87106777D01*
X156564599Y-87123253D01*
X156544893Y-87137868D01*
X156523850Y-87150480D01*
X156501671Y-87160970D01*
X156478572Y-87169235D01*
X156454773Y-87175196D01*
X156430505Y-87178796D01*
X156406001Y-87180000D01*
X155505999Y-87180000D01*
X155481495Y-87178796D01*
X155457227Y-87175196D01*
X155433428Y-87169235D01*
X155410329Y-87160970D01*
X155388150Y-87150480D01*
X155367107Y-87137868D01*
X155347401Y-87123253D01*
X155329223Y-87106777D01*
X155312747Y-87088599D01*
X155298132Y-87068893D01*
X155285520Y-87047850D01*
X155275030Y-87025671D01*
X155266765Y-87002572D01*
X155260804Y-86978773D01*
X155257204Y-86954505D01*
X155256000Y-86930001D01*
X155256000Y-86279999D01*
X155257204Y-86255495D01*
X155260804Y-86231227D01*
X155266765Y-86207428D01*
X155275030Y-86184329D01*
X155285520Y-86162150D01*
X155298132Y-86141107D01*
X155312747Y-86121401D01*
X155329223Y-86103223D01*
X155347401Y-86086747D01*
X155367107Y-86072132D01*
X155388150Y-86059520D01*
X155410329Y-86049030D01*
X155433428Y-86040765D01*
X155457227Y-86034804D01*
X155481495Y-86031204D01*
X155505999Y-86030000D01*
X156406001Y-86030000D01*
X156430505Y-86031204D01*
G37*
G36*
X145000505Y-91111204D02*
G01*
X145024773Y-91114804D01*
X145048572Y-91120765D01*
X145071671Y-91129030D01*
X145093850Y-91139520D01*
X145114893Y-91152132D01*
X145134599Y-91166747D01*
X145152777Y-91183223D01*
X145169253Y-91201401D01*
X145183868Y-91221107D01*
X145196480Y-91242150D01*
X145206970Y-91264329D01*
X145215235Y-91287428D01*
X145221196Y-91311227D01*
X145224796Y-91335495D01*
X145226000Y-91359999D01*
X145226000Y-92010001D01*
X145224796Y-92034505D01*
X145221196Y-92058773D01*
X145215235Y-92082572D01*
X145206970Y-92105671D01*
X145196480Y-92127850D01*
X145183868Y-92148893D01*
X145169253Y-92168599D01*
X145152777Y-92186777D01*
X145134599Y-92203253D01*
X145114893Y-92217868D01*
X145093850Y-92230480D01*
X145071671Y-92240970D01*
X145048572Y-92249235D01*
X145024773Y-92255196D01*
X145000505Y-92258796D01*
X144976001Y-92260000D01*
X144075999Y-92260000D01*
X144051495Y-92258796D01*
X144027227Y-92255196D01*
X144003428Y-92249235D01*
X143980329Y-92240970D01*
X143958150Y-92230480D01*
X143937107Y-92217868D01*
X143917401Y-92203253D01*
X143899223Y-92186777D01*
X143882747Y-92168599D01*
X143868132Y-92148893D01*
X143855520Y-92127850D01*
X143845030Y-92105671D01*
X143836765Y-92082572D01*
X143830804Y-92058773D01*
X143827204Y-92034505D01*
X143826000Y-92010001D01*
X143826000Y-91359999D01*
X143827204Y-91335495D01*
X143830804Y-91311227D01*
X143836765Y-91287428D01*
X143845030Y-91264329D01*
X143855520Y-91242150D01*
X143868132Y-91221107D01*
X143882747Y-91201401D01*
X143899223Y-91183223D01*
X143917401Y-91166747D01*
X143937107Y-91152132D01*
X143958150Y-91139520D01*
X143980329Y-91129030D01*
X144003428Y-91120765D01*
X144027227Y-91114804D01*
X144051495Y-91111204D01*
X144075999Y-91110000D01*
X144976001Y-91110000D01*
X145000505Y-91111204D01*
G37*
G36*
X145000505Y-93161204D02*
G01*
X145024773Y-93164804D01*
X145048572Y-93170765D01*
X145071671Y-93179030D01*
X145093850Y-93189520D01*
X145114893Y-93202132D01*
X145134599Y-93216747D01*
X145152777Y-93233223D01*
X145169253Y-93251401D01*
X145183868Y-93271107D01*
X145196480Y-93292150D01*
X145206970Y-93314329D01*
X145215235Y-93337428D01*
X145221196Y-93361227D01*
X145224796Y-93385495D01*
X145226000Y-93409999D01*
X145226000Y-94060001D01*
X145224796Y-94084505D01*
X145221196Y-94108773D01*
X145215235Y-94132572D01*
X145206970Y-94155671D01*
X145196480Y-94177850D01*
X145183868Y-94198893D01*
X145169253Y-94218599D01*
X145152777Y-94236777D01*
X145134599Y-94253253D01*
X145114893Y-94267868D01*
X145093850Y-94280480D01*
X145071671Y-94290970D01*
X145048572Y-94299235D01*
X145024773Y-94305196D01*
X145000505Y-94308796D01*
X144976001Y-94310000D01*
X144075999Y-94310000D01*
X144051495Y-94308796D01*
X144027227Y-94305196D01*
X144003428Y-94299235D01*
X143980329Y-94290970D01*
X143958150Y-94280480D01*
X143937107Y-94267868D01*
X143917401Y-94253253D01*
X143899223Y-94236777D01*
X143882747Y-94218599D01*
X143868132Y-94198893D01*
X143855520Y-94177850D01*
X143845030Y-94155671D01*
X143836765Y-94132572D01*
X143830804Y-94108773D01*
X143827204Y-94084505D01*
X143826000Y-94060001D01*
X143826000Y-93409999D01*
X143827204Y-93385495D01*
X143830804Y-93361227D01*
X143836765Y-93337428D01*
X143845030Y-93314329D01*
X143855520Y-93292150D01*
X143868132Y-93271107D01*
X143882747Y-93251401D01*
X143899223Y-93233223D01*
X143917401Y-93216747D01*
X143937107Y-93202132D01*
X143958150Y-93189520D01*
X143980329Y-93179030D01*
X144003428Y-93170765D01*
X144027227Y-93164804D01*
X144051495Y-93161204D01*
X144075999Y-93160000D01*
X144976001Y-93160000D01*
X145000505Y-93161204D01*
G37*
G36*
X156430505Y-83001204D02*
G01*
X156454773Y-83004804D01*
X156478572Y-83010765D01*
X156501671Y-83019030D01*
X156523850Y-83029520D01*
X156544893Y-83042132D01*
X156564599Y-83056747D01*
X156582777Y-83073223D01*
X156599253Y-83091401D01*
X156613868Y-83111107D01*
X156626480Y-83132150D01*
X156636970Y-83154329D01*
X156645235Y-83177428D01*
X156651196Y-83201227D01*
X156654796Y-83225495D01*
X156656000Y-83249999D01*
X156656000Y-83900001D01*
X156654796Y-83924505D01*
X156651196Y-83948773D01*
X156645235Y-83972572D01*
X156636970Y-83995671D01*
X156626480Y-84017850D01*
X156613868Y-84038893D01*
X156599253Y-84058599D01*
X156582777Y-84076777D01*
X156564599Y-84093253D01*
X156544893Y-84107868D01*
X156523850Y-84120480D01*
X156501671Y-84130970D01*
X156478572Y-84139235D01*
X156454773Y-84145196D01*
X156430505Y-84148796D01*
X156406001Y-84150000D01*
X155505999Y-84150000D01*
X155481495Y-84148796D01*
X155457227Y-84145196D01*
X155433428Y-84139235D01*
X155410329Y-84130970D01*
X155388150Y-84120480D01*
X155367107Y-84107868D01*
X155347401Y-84093253D01*
X155329223Y-84076777D01*
X155312747Y-84058599D01*
X155298132Y-84038893D01*
X155285520Y-84017850D01*
X155275030Y-83995671D01*
X155266765Y-83972572D01*
X155260804Y-83948773D01*
X155257204Y-83924505D01*
X155256000Y-83900001D01*
X155256000Y-83249999D01*
X155257204Y-83225495D01*
X155260804Y-83201227D01*
X155266765Y-83177428D01*
X155275030Y-83154329D01*
X155285520Y-83132150D01*
X155298132Y-83111107D01*
X155312747Y-83091401D01*
X155329223Y-83073223D01*
X155347401Y-83056747D01*
X155367107Y-83042132D01*
X155388150Y-83029520D01*
X155410329Y-83019030D01*
X155433428Y-83010765D01*
X155457227Y-83004804D01*
X155481495Y-83001204D01*
X155505999Y-83000000D01*
X156406001Y-83000000D01*
X156430505Y-83001204D01*
G37*
G36*
X156430505Y-80951204D02*
G01*
X156454773Y-80954804D01*
X156478572Y-80960765D01*
X156501671Y-80969030D01*
X156523850Y-80979520D01*
X156544893Y-80992132D01*
X156564599Y-81006747D01*
X156582777Y-81023223D01*
X156599253Y-81041401D01*
X156613868Y-81061107D01*
X156626480Y-81082150D01*
X156636970Y-81104329D01*
X156645235Y-81127428D01*
X156651196Y-81151227D01*
X156654796Y-81175495D01*
X156656000Y-81199999D01*
X156656000Y-81850001D01*
X156654796Y-81874505D01*
X156651196Y-81898773D01*
X156645235Y-81922572D01*
X156636970Y-81945671D01*
X156626480Y-81967850D01*
X156613868Y-81988893D01*
X156599253Y-82008599D01*
X156582777Y-82026777D01*
X156564599Y-82043253D01*
X156544893Y-82057868D01*
X156523850Y-82070480D01*
X156501671Y-82080970D01*
X156478572Y-82089235D01*
X156454773Y-82095196D01*
X156430505Y-82098796D01*
X156406001Y-82100000D01*
X155505999Y-82100000D01*
X155481495Y-82098796D01*
X155457227Y-82095196D01*
X155433428Y-82089235D01*
X155410329Y-82080970D01*
X155388150Y-82070480D01*
X155367107Y-82057868D01*
X155347401Y-82043253D01*
X155329223Y-82026777D01*
X155312747Y-82008599D01*
X155298132Y-81988893D01*
X155285520Y-81967850D01*
X155275030Y-81945671D01*
X155266765Y-81922572D01*
X155260804Y-81898773D01*
X155257204Y-81874505D01*
X155256000Y-81850001D01*
X155256000Y-81199999D01*
X155257204Y-81175495D01*
X155260804Y-81151227D01*
X155266765Y-81127428D01*
X155275030Y-81104329D01*
X155285520Y-81082150D01*
X155298132Y-81061107D01*
X155312747Y-81041401D01*
X155329223Y-81023223D01*
X155347401Y-81006747D01*
X155367107Y-80992132D01*
X155388150Y-80979520D01*
X155410329Y-80969030D01*
X155433428Y-80960765D01*
X155457227Y-80954804D01*
X155481495Y-80951204D01*
X155505999Y-80950000D01*
X156406001Y-80950000D01*
X156430505Y-80951204D01*
G37*
G36*
X156430505Y-76379204D02*
G01*
X156454773Y-76382804D01*
X156478572Y-76388765D01*
X156501671Y-76397030D01*
X156523850Y-76407520D01*
X156544893Y-76420132D01*
X156564599Y-76434747D01*
X156582777Y-76451223D01*
X156599253Y-76469401D01*
X156613868Y-76489107D01*
X156626480Y-76510150D01*
X156636970Y-76532329D01*
X156645235Y-76555428D01*
X156651196Y-76579227D01*
X156654796Y-76603495D01*
X156656000Y-76627999D01*
X156656000Y-77278001D01*
X156654796Y-77302505D01*
X156651196Y-77326773D01*
X156645235Y-77350572D01*
X156636970Y-77373671D01*
X156626480Y-77395850D01*
X156613868Y-77416893D01*
X156599253Y-77436599D01*
X156582777Y-77454777D01*
X156564599Y-77471253D01*
X156544893Y-77485868D01*
X156523850Y-77498480D01*
X156501671Y-77508970D01*
X156478572Y-77517235D01*
X156454773Y-77523196D01*
X156430505Y-77526796D01*
X156406001Y-77528000D01*
X155505999Y-77528000D01*
X155481495Y-77526796D01*
X155457227Y-77523196D01*
X155433428Y-77517235D01*
X155410329Y-77508970D01*
X155388150Y-77498480D01*
X155367107Y-77485868D01*
X155347401Y-77471253D01*
X155329223Y-77454777D01*
X155312747Y-77436599D01*
X155298132Y-77416893D01*
X155285520Y-77395850D01*
X155275030Y-77373671D01*
X155266765Y-77350572D01*
X155260804Y-77326773D01*
X155257204Y-77302505D01*
X155256000Y-77278001D01*
X155256000Y-76627999D01*
X155257204Y-76603495D01*
X155260804Y-76579227D01*
X155266765Y-76555428D01*
X155275030Y-76532329D01*
X155285520Y-76510150D01*
X155298132Y-76489107D01*
X155312747Y-76469401D01*
X155329223Y-76451223D01*
X155347401Y-76434747D01*
X155367107Y-76420132D01*
X155388150Y-76407520D01*
X155410329Y-76397030D01*
X155433428Y-76388765D01*
X155457227Y-76382804D01*
X155481495Y-76379204D01*
X155505999Y-76378000D01*
X156406001Y-76378000D01*
X156430505Y-76379204D01*
G37*
G36*
X156430505Y-78429204D02*
G01*
X156454773Y-78432804D01*
X156478572Y-78438765D01*
X156501671Y-78447030D01*
X156523850Y-78457520D01*
X156544893Y-78470132D01*
X156564599Y-78484747D01*
X156582777Y-78501223D01*
X156599253Y-78519401D01*
X156613868Y-78539107D01*
X156626480Y-78560150D01*
X156636970Y-78582329D01*
X156645235Y-78605428D01*
X156651196Y-78629227D01*
X156654796Y-78653495D01*
X156656000Y-78677999D01*
X156656000Y-79328001D01*
X156654796Y-79352505D01*
X156651196Y-79376773D01*
X156645235Y-79400572D01*
X156636970Y-79423671D01*
X156626480Y-79445850D01*
X156613868Y-79466893D01*
X156599253Y-79486599D01*
X156582777Y-79504777D01*
X156564599Y-79521253D01*
X156544893Y-79535868D01*
X156523850Y-79548480D01*
X156501671Y-79558970D01*
X156478572Y-79567235D01*
X156454773Y-79573196D01*
X156430505Y-79576796D01*
X156406001Y-79578000D01*
X155505999Y-79578000D01*
X155481495Y-79576796D01*
X155457227Y-79573196D01*
X155433428Y-79567235D01*
X155410329Y-79558970D01*
X155388150Y-79548480D01*
X155367107Y-79535868D01*
X155347401Y-79521253D01*
X155329223Y-79504777D01*
X155312747Y-79486599D01*
X155298132Y-79466893D01*
X155285520Y-79445850D01*
X155275030Y-79423671D01*
X155266765Y-79400572D01*
X155260804Y-79376773D01*
X155257204Y-79352505D01*
X155256000Y-79328001D01*
X155256000Y-78677999D01*
X155257204Y-78653495D01*
X155260804Y-78629227D01*
X155266765Y-78605428D01*
X155275030Y-78582329D01*
X155285520Y-78560150D01*
X155298132Y-78539107D01*
X155312747Y-78519401D01*
X155329223Y-78501223D01*
X155347401Y-78484747D01*
X155367107Y-78470132D01*
X155388150Y-78457520D01*
X155410329Y-78447030D01*
X155433428Y-78438765D01*
X155457227Y-78432804D01*
X155481495Y-78429204D01*
X155505999Y-78428000D01*
X156406001Y-78428000D01*
X156430505Y-78429204D01*
G37*
G36*
X156176505Y-56821204D02*
G01*
X156200773Y-56824804D01*
X156224572Y-56830765D01*
X156247671Y-56839030D01*
X156269850Y-56849520D01*
X156290893Y-56862132D01*
X156310599Y-56876747D01*
X156328777Y-56893223D01*
X156345253Y-56911401D01*
X156359868Y-56931107D01*
X156372480Y-56952150D01*
X156382970Y-56974329D01*
X156391235Y-56997428D01*
X156397196Y-57021227D01*
X156400796Y-57045495D01*
X156402000Y-57069999D01*
X156402000Y-57720001D01*
X156400796Y-57744505D01*
X156397196Y-57768773D01*
X156391235Y-57792572D01*
X156382970Y-57815671D01*
X156372480Y-57837850D01*
X156359868Y-57858893D01*
X156345253Y-57878599D01*
X156328777Y-57896777D01*
X156310599Y-57913253D01*
X156290893Y-57927868D01*
X156269850Y-57940480D01*
X156247671Y-57950970D01*
X156224572Y-57959235D01*
X156200773Y-57965196D01*
X156176505Y-57968796D01*
X156152001Y-57970000D01*
X155251999Y-57970000D01*
X155227495Y-57968796D01*
X155203227Y-57965196D01*
X155179428Y-57959235D01*
X155156329Y-57950970D01*
X155134150Y-57940480D01*
X155113107Y-57927868D01*
X155093401Y-57913253D01*
X155075223Y-57896777D01*
X155058747Y-57878599D01*
X155044132Y-57858893D01*
X155031520Y-57837850D01*
X155021030Y-57815671D01*
X155012765Y-57792572D01*
X155006804Y-57768773D01*
X155003204Y-57744505D01*
X155002000Y-57720001D01*
X155002000Y-57069999D01*
X155003204Y-57045495D01*
X155006804Y-57021227D01*
X155012765Y-56997428D01*
X155021030Y-56974329D01*
X155031520Y-56952150D01*
X155044132Y-56931107D01*
X155058747Y-56911401D01*
X155075223Y-56893223D01*
X155093401Y-56876747D01*
X155113107Y-56862132D01*
X155134150Y-56849520D01*
X155156329Y-56839030D01*
X155179428Y-56830765D01*
X155203227Y-56824804D01*
X155227495Y-56821204D01*
X155251999Y-56820000D01*
X156152001Y-56820000D01*
X156176505Y-56821204D01*
G37*
G36*
X156176505Y-58871204D02*
G01*
X156200773Y-58874804D01*
X156224572Y-58880765D01*
X156247671Y-58889030D01*
X156269850Y-58899520D01*
X156290893Y-58912132D01*
X156310599Y-58926747D01*
X156328777Y-58943223D01*
X156345253Y-58961401D01*
X156359868Y-58981107D01*
X156372480Y-59002150D01*
X156382970Y-59024329D01*
X156391235Y-59047428D01*
X156397196Y-59071227D01*
X156400796Y-59095495D01*
X156402000Y-59119999D01*
X156402000Y-59770001D01*
X156400796Y-59794505D01*
X156397196Y-59818773D01*
X156391235Y-59842572D01*
X156382970Y-59865671D01*
X156372480Y-59887850D01*
X156359868Y-59908893D01*
X156345253Y-59928599D01*
X156328777Y-59946777D01*
X156310599Y-59963253D01*
X156290893Y-59977868D01*
X156269850Y-59990480D01*
X156247671Y-60000970D01*
X156224572Y-60009235D01*
X156200773Y-60015196D01*
X156176505Y-60018796D01*
X156152001Y-60020000D01*
X155251999Y-60020000D01*
X155227495Y-60018796D01*
X155203227Y-60015196D01*
X155179428Y-60009235D01*
X155156329Y-60000970D01*
X155134150Y-59990480D01*
X155113107Y-59977868D01*
X155093401Y-59963253D01*
X155075223Y-59946777D01*
X155058747Y-59928599D01*
X155044132Y-59908893D01*
X155031520Y-59887850D01*
X155021030Y-59865671D01*
X155012765Y-59842572D01*
X155006804Y-59818773D01*
X155003204Y-59794505D01*
X155002000Y-59770001D01*
X155002000Y-59119999D01*
X155003204Y-59095495D01*
X155006804Y-59071227D01*
X155012765Y-59047428D01*
X155021030Y-59024329D01*
X155031520Y-59002150D01*
X155044132Y-58981107D01*
X155058747Y-58961401D01*
X155075223Y-58943223D01*
X155093401Y-58926747D01*
X155113107Y-58912132D01*
X155134150Y-58899520D01*
X155156329Y-58889030D01*
X155179428Y-58880765D01*
X155203227Y-58874804D01*
X155227495Y-58871204D01*
X155251999Y-58870000D01*
X156152001Y-58870000D01*
X156176505Y-58871204D01*
G37*
G36*
X156176505Y-64459204D02*
G01*
X156200773Y-64462804D01*
X156224572Y-64468765D01*
X156247671Y-64477030D01*
X156269850Y-64487520D01*
X156290893Y-64500132D01*
X156310599Y-64514747D01*
X156328777Y-64531223D01*
X156345253Y-64549401D01*
X156359868Y-64569107D01*
X156372480Y-64590150D01*
X156382970Y-64612329D01*
X156391235Y-64635428D01*
X156397196Y-64659227D01*
X156400796Y-64683495D01*
X156402000Y-64707999D01*
X156402000Y-65358001D01*
X156400796Y-65382505D01*
X156397196Y-65406773D01*
X156391235Y-65430572D01*
X156382970Y-65453671D01*
X156372480Y-65475850D01*
X156359868Y-65496893D01*
X156345253Y-65516599D01*
X156328777Y-65534777D01*
X156310599Y-65551253D01*
X156290893Y-65565868D01*
X156269850Y-65578480D01*
X156247671Y-65588970D01*
X156224572Y-65597235D01*
X156200773Y-65603196D01*
X156176505Y-65606796D01*
X156152001Y-65608000D01*
X155251999Y-65608000D01*
X155227495Y-65606796D01*
X155203227Y-65603196D01*
X155179428Y-65597235D01*
X155156329Y-65588970D01*
X155134150Y-65578480D01*
X155113107Y-65565868D01*
X155093401Y-65551253D01*
X155075223Y-65534777D01*
X155058747Y-65516599D01*
X155044132Y-65496893D01*
X155031520Y-65475850D01*
X155021030Y-65453671D01*
X155012765Y-65430572D01*
X155006804Y-65406773D01*
X155003204Y-65382505D01*
X155002000Y-65358001D01*
X155002000Y-64707999D01*
X155003204Y-64683495D01*
X155006804Y-64659227D01*
X155012765Y-64635428D01*
X155021030Y-64612329D01*
X155031520Y-64590150D01*
X155044132Y-64569107D01*
X155058747Y-64549401D01*
X155075223Y-64531223D01*
X155093401Y-64514747D01*
X155113107Y-64500132D01*
X155134150Y-64487520D01*
X155156329Y-64477030D01*
X155179428Y-64468765D01*
X155203227Y-64462804D01*
X155227495Y-64459204D01*
X155251999Y-64458000D01*
X156152001Y-64458000D01*
X156176505Y-64459204D01*
G37*
G36*
X156176505Y-62409204D02*
G01*
X156200773Y-62412804D01*
X156224572Y-62418765D01*
X156247671Y-62427030D01*
X156269850Y-62437520D01*
X156290893Y-62450132D01*
X156310599Y-62464747D01*
X156328777Y-62481223D01*
X156345253Y-62499401D01*
X156359868Y-62519107D01*
X156372480Y-62540150D01*
X156382970Y-62562329D01*
X156391235Y-62585428D01*
X156397196Y-62609227D01*
X156400796Y-62633495D01*
X156402000Y-62657999D01*
X156402000Y-63308001D01*
X156400796Y-63332505D01*
X156397196Y-63356773D01*
X156391235Y-63380572D01*
X156382970Y-63403671D01*
X156372480Y-63425850D01*
X156359868Y-63446893D01*
X156345253Y-63466599D01*
X156328777Y-63484777D01*
X156310599Y-63501253D01*
X156290893Y-63515868D01*
X156269850Y-63528480D01*
X156247671Y-63538970D01*
X156224572Y-63547235D01*
X156200773Y-63553196D01*
X156176505Y-63556796D01*
X156152001Y-63558000D01*
X155251999Y-63558000D01*
X155227495Y-63556796D01*
X155203227Y-63553196D01*
X155179428Y-63547235D01*
X155156329Y-63538970D01*
X155134150Y-63528480D01*
X155113107Y-63515868D01*
X155093401Y-63501253D01*
X155075223Y-63484777D01*
X155058747Y-63466599D01*
X155044132Y-63446893D01*
X155031520Y-63425850D01*
X155021030Y-63403671D01*
X155012765Y-63380572D01*
X155006804Y-63356773D01*
X155003204Y-63332505D01*
X155002000Y-63308001D01*
X155002000Y-62657999D01*
X155003204Y-62633495D01*
X155006804Y-62609227D01*
X155012765Y-62585428D01*
X155021030Y-62562329D01*
X155031520Y-62540150D01*
X155044132Y-62519107D01*
X155058747Y-62499401D01*
X155075223Y-62481223D01*
X155093401Y-62464747D01*
X155113107Y-62450132D01*
X155134150Y-62437520D01*
X155156329Y-62427030D01*
X155179428Y-62418765D01*
X155203227Y-62412804D01*
X155227495Y-62409204D01*
X155251999Y-62408000D01*
X156152001Y-62408000D01*
X156176505Y-62409204D01*
G37*
G36*
X134576200Y-97960000D02*
G01*
X135576200Y-98660000D01*
X135576200Y-99460000D01*
X134576200Y-100160000D01*
X134576200Y-97960000D01*
G37*
D11*
X133666500Y-99060000D03*
D12*
X136480000Y-97560000D03*
D13*
X136333500Y-99060000D03*
D12*
X136480000Y-100560000D03*
D10*
G36*
X132758000Y-100160000D02*
G01*
X131908000Y-99560000D01*
X131908000Y-98560000D01*
X132758000Y-97960000D01*
X132758000Y-100160000D01*
G37*
G36*
X134576200Y-107612000D02*
G01*
X135576200Y-108312000D01*
X135576200Y-109112000D01*
X134576200Y-109812000D01*
X134576200Y-107612000D01*
G37*
D11*
X133666500Y-108712000D03*
D12*
X136480000Y-107212000D03*
D13*
X136333500Y-108712000D03*
D12*
X136480000Y-110212000D03*
D10*
G36*
X132758000Y-109812000D02*
G01*
X131908000Y-109212000D01*
X131908000Y-108212000D01*
X132758000Y-107612000D01*
X132758000Y-109812000D01*
G37*
G36*
X150069703Y-86590722D02*
G01*
X150084264Y-86592882D01*
X150098543Y-86596459D01*
X150112403Y-86601418D01*
X150125710Y-86607712D01*
X150138336Y-86615280D01*
X150150159Y-86624048D01*
X150161066Y-86633934D01*
X150170952Y-86644841D01*
X150179720Y-86656664D01*
X150187288Y-86669290D01*
X150193582Y-86682597D01*
X150198541Y-86696457D01*
X150202118Y-86710736D01*
X150204278Y-86725297D01*
X150205000Y-86740000D01*
X150205000Y-88390000D01*
X150204278Y-88404703D01*
X150202118Y-88419264D01*
X150198541Y-88433543D01*
X150193582Y-88447403D01*
X150187288Y-88460710D01*
X150179720Y-88473336D01*
X150170952Y-88485159D01*
X150161066Y-88496066D01*
X150150159Y-88505952D01*
X150138336Y-88514720D01*
X150125710Y-88522288D01*
X150112403Y-88528582D01*
X150098543Y-88533541D01*
X150084264Y-88537118D01*
X150069703Y-88539278D01*
X150055000Y-88540000D01*
X149755000Y-88540000D01*
X149740297Y-88539278D01*
X149725736Y-88537118D01*
X149711457Y-88533541D01*
X149697597Y-88528582D01*
X149684290Y-88522288D01*
X149671664Y-88514720D01*
X149659841Y-88505952D01*
X149648934Y-88496066D01*
X149639048Y-88485159D01*
X149630280Y-88473336D01*
X149622712Y-88460710D01*
X149616418Y-88447403D01*
X149611459Y-88433543D01*
X149607882Y-88419264D01*
X149605722Y-88404703D01*
X149605000Y-88390000D01*
X149605000Y-86740000D01*
X149605722Y-86725297D01*
X149607882Y-86710736D01*
X149611459Y-86696457D01*
X149616418Y-86682597D01*
X149622712Y-86669290D01*
X149630280Y-86656664D01*
X149639048Y-86644841D01*
X149648934Y-86633934D01*
X149659841Y-86624048D01*
X149671664Y-86615280D01*
X149684290Y-86607712D01*
X149697597Y-86601418D01*
X149711457Y-86596459D01*
X149725736Y-86592882D01*
X149740297Y-86590722D01*
X149755000Y-86590000D01*
X150055000Y-86590000D01*
X150069703Y-86590722D01*
G37*
G36*
X148799703Y-86590722D02*
G01*
X148814264Y-86592882D01*
X148828543Y-86596459D01*
X148842403Y-86601418D01*
X148855710Y-86607712D01*
X148868336Y-86615280D01*
X148880159Y-86624048D01*
X148891066Y-86633934D01*
X148900952Y-86644841D01*
X148909720Y-86656664D01*
X148917288Y-86669290D01*
X148923582Y-86682597D01*
X148928541Y-86696457D01*
X148932118Y-86710736D01*
X148934278Y-86725297D01*
X148935000Y-86740000D01*
X148935000Y-88390000D01*
X148934278Y-88404703D01*
X148932118Y-88419264D01*
X148928541Y-88433543D01*
X148923582Y-88447403D01*
X148917288Y-88460710D01*
X148909720Y-88473336D01*
X148900952Y-88485159D01*
X148891066Y-88496066D01*
X148880159Y-88505952D01*
X148868336Y-88514720D01*
X148855710Y-88522288D01*
X148842403Y-88528582D01*
X148828543Y-88533541D01*
X148814264Y-88537118D01*
X148799703Y-88539278D01*
X148785000Y-88540000D01*
X148485000Y-88540000D01*
X148470297Y-88539278D01*
X148455736Y-88537118D01*
X148441457Y-88533541D01*
X148427597Y-88528582D01*
X148414290Y-88522288D01*
X148401664Y-88514720D01*
X148389841Y-88505952D01*
X148378934Y-88496066D01*
X148369048Y-88485159D01*
X148360280Y-88473336D01*
X148352712Y-88460710D01*
X148346418Y-88447403D01*
X148341459Y-88433543D01*
X148337882Y-88419264D01*
X148335722Y-88404703D01*
X148335000Y-88390000D01*
X148335000Y-86740000D01*
X148335722Y-86725297D01*
X148337882Y-86710736D01*
X148341459Y-86696457D01*
X148346418Y-86682597D01*
X148352712Y-86669290D01*
X148360280Y-86656664D01*
X148369048Y-86644841D01*
X148378934Y-86633934D01*
X148389841Y-86624048D01*
X148401664Y-86615280D01*
X148414290Y-86607712D01*
X148427597Y-86601418D01*
X148441457Y-86596459D01*
X148455736Y-86592882D01*
X148470297Y-86590722D01*
X148485000Y-86590000D01*
X148785000Y-86590000D01*
X148799703Y-86590722D01*
G37*
G36*
X147529703Y-86590722D02*
G01*
X147544264Y-86592882D01*
X147558543Y-86596459D01*
X147572403Y-86601418D01*
X147585710Y-86607712D01*
X147598336Y-86615280D01*
X147610159Y-86624048D01*
X147621066Y-86633934D01*
X147630952Y-86644841D01*
X147639720Y-86656664D01*
X147647288Y-86669290D01*
X147653582Y-86682597D01*
X147658541Y-86696457D01*
X147662118Y-86710736D01*
X147664278Y-86725297D01*
X147665000Y-86740000D01*
X147665000Y-88390000D01*
X147664278Y-88404703D01*
X147662118Y-88419264D01*
X147658541Y-88433543D01*
X147653582Y-88447403D01*
X147647288Y-88460710D01*
X147639720Y-88473336D01*
X147630952Y-88485159D01*
X147621066Y-88496066D01*
X147610159Y-88505952D01*
X147598336Y-88514720D01*
X147585710Y-88522288D01*
X147572403Y-88528582D01*
X147558543Y-88533541D01*
X147544264Y-88537118D01*
X147529703Y-88539278D01*
X147515000Y-88540000D01*
X147215000Y-88540000D01*
X147200297Y-88539278D01*
X147185736Y-88537118D01*
X147171457Y-88533541D01*
X147157597Y-88528582D01*
X147144290Y-88522288D01*
X147131664Y-88514720D01*
X147119841Y-88505952D01*
X147108934Y-88496066D01*
X147099048Y-88485159D01*
X147090280Y-88473336D01*
X147082712Y-88460710D01*
X147076418Y-88447403D01*
X147071459Y-88433543D01*
X147067882Y-88419264D01*
X147065722Y-88404703D01*
X147065000Y-88390000D01*
X147065000Y-86740000D01*
X147065722Y-86725297D01*
X147067882Y-86710736D01*
X147071459Y-86696457D01*
X147076418Y-86682597D01*
X147082712Y-86669290D01*
X147090280Y-86656664D01*
X147099048Y-86644841D01*
X147108934Y-86633934D01*
X147119841Y-86624048D01*
X147131664Y-86615280D01*
X147144290Y-86607712D01*
X147157597Y-86601418D01*
X147171457Y-86596459D01*
X147185736Y-86592882D01*
X147200297Y-86590722D01*
X147215000Y-86590000D01*
X147515000Y-86590000D01*
X147529703Y-86590722D01*
G37*
G36*
X146259703Y-86590722D02*
G01*
X146274264Y-86592882D01*
X146288543Y-86596459D01*
X146302403Y-86601418D01*
X146315710Y-86607712D01*
X146328336Y-86615280D01*
X146340159Y-86624048D01*
X146351066Y-86633934D01*
X146360952Y-86644841D01*
X146369720Y-86656664D01*
X146377288Y-86669290D01*
X146383582Y-86682597D01*
X146388541Y-86696457D01*
X146392118Y-86710736D01*
X146394278Y-86725297D01*
X146395000Y-86740000D01*
X146395000Y-88390000D01*
X146394278Y-88404703D01*
X146392118Y-88419264D01*
X146388541Y-88433543D01*
X146383582Y-88447403D01*
X146377288Y-88460710D01*
X146369720Y-88473336D01*
X146360952Y-88485159D01*
X146351066Y-88496066D01*
X146340159Y-88505952D01*
X146328336Y-88514720D01*
X146315710Y-88522288D01*
X146302403Y-88528582D01*
X146288543Y-88533541D01*
X146274264Y-88537118D01*
X146259703Y-88539278D01*
X146245000Y-88540000D01*
X145945000Y-88540000D01*
X145930297Y-88539278D01*
X145915736Y-88537118D01*
X145901457Y-88533541D01*
X145887597Y-88528582D01*
X145874290Y-88522288D01*
X145861664Y-88514720D01*
X145849841Y-88505952D01*
X145838934Y-88496066D01*
X145829048Y-88485159D01*
X145820280Y-88473336D01*
X145812712Y-88460710D01*
X145806418Y-88447403D01*
X145801459Y-88433543D01*
X145797882Y-88419264D01*
X145795722Y-88404703D01*
X145795000Y-88390000D01*
X145795000Y-86740000D01*
X145795722Y-86725297D01*
X145797882Y-86710736D01*
X145801459Y-86696457D01*
X145806418Y-86682597D01*
X145812712Y-86669290D01*
X145820280Y-86656664D01*
X145829048Y-86644841D01*
X145838934Y-86633934D01*
X145849841Y-86624048D01*
X145861664Y-86615280D01*
X145874290Y-86607712D01*
X145887597Y-86601418D01*
X145901457Y-86596459D01*
X145915736Y-86592882D01*
X145930297Y-86590722D01*
X145945000Y-86590000D01*
X146245000Y-86590000D01*
X146259703Y-86590722D01*
G37*
G36*
X146259703Y-81640722D02*
G01*
X146274264Y-81642882D01*
X146288543Y-81646459D01*
X146302403Y-81651418D01*
X146315710Y-81657712D01*
X146328336Y-81665280D01*
X146340159Y-81674048D01*
X146351066Y-81683934D01*
X146360952Y-81694841D01*
X146369720Y-81706664D01*
X146377288Y-81719290D01*
X146383582Y-81732597D01*
X146388541Y-81746457D01*
X146392118Y-81760736D01*
X146394278Y-81775297D01*
X146395000Y-81790000D01*
X146395000Y-83440000D01*
X146394278Y-83454703D01*
X146392118Y-83469264D01*
X146388541Y-83483543D01*
X146383582Y-83497403D01*
X146377288Y-83510710D01*
X146369720Y-83523336D01*
X146360952Y-83535159D01*
X146351066Y-83546066D01*
X146340159Y-83555952D01*
X146328336Y-83564720D01*
X146315710Y-83572288D01*
X146302403Y-83578582D01*
X146288543Y-83583541D01*
X146274264Y-83587118D01*
X146259703Y-83589278D01*
X146245000Y-83590000D01*
X145945000Y-83590000D01*
X145930297Y-83589278D01*
X145915736Y-83587118D01*
X145901457Y-83583541D01*
X145887597Y-83578582D01*
X145874290Y-83572288D01*
X145861664Y-83564720D01*
X145849841Y-83555952D01*
X145838934Y-83546066D01*
X145829048Y-83535159D01*
X145820280Y-83523336D01*
X145812712Y-83510710D01*
X145806418Y-83497403D01*
X145801459Y-83483543D01*
X145797882Y-83469264D01*
X145795722Y-83454703D01*
X145795000Y-83440000D01*
X145795000Y-81790000D01*
X145795722Y-81775297D01*
X145797882Y-81760736D01*
X145801459Y-81746457D01*
X145806418Y-81732597D01*
X145812712Y-81719290D01*
X145820280Y-81706664D01*
X145829048Y-81694841D01*
X145838934Y-81683934D01*
X145849841Y-81674048D01*
X145861664Y-81665280D01*
X145874290Y-81657712D01*
X145887597Y-81651418D01*
X145901457Y-81646459D01*
X145915736Y-81642882D01*
X145930297Y-81640722D01*
X145945000Y-81640000D01*
X146245000Y-81640000D01*
X146259703Y-81640722D01*
G37*
G36*
X147529703Y-81640722D02*
G01*
X147544264Y-81642882D01*
X147558543Y-81646459D01*
X147572403Y-81651418D01*
X147585710Y-81657712D01*
X147598336Y-81665280D01*
X147610159Y-81674048D01*
X147621066Y-81683934D01*
X147630952Y-81694841D01*
X147639720Y-81706664D01*
X147647288Y-81719290D01*
X147653582Y-81732597D01*
X147658541Y-81746457D01*
X147662118Y-81760736D01*
X147664278Y-81775297D01*
X147665000Y-81790000D01*
X147665000Y-83440000D01*
X147664278Y-83454703D01*
X147662118Y-83469264D01*
X147658541Y-83483543D01*
X147653582Y-83497403D01*
X147647288Y-83510710D01*
X147639720Y-83523336D01*
X147630952Y-83535159D01*
X147621066Y-83546066D01*
X147610159Y-83555952D01*
X147598336Y-83564720D01*
X147585710Y-83572288D01*
X147572403Y-83578582D01*
X147558543Y-83583541D01*
X147544264Y-83587118D01*
X147529703Y-83589278D01*
X147515000Y-83590000D01*
X147215000Y-83590000D01*
X147200297Y-83589278D01*
X147185736Y-83587118D01*
X147171457Y-83583541D01*
X147157597Y-83578582D01*
X147144290Y-83572288D01*
X147131664Y-83564720D01*
X147119841Y-83555952D01*
X147108934Y-83546066D01*
X147099048Y-83535159D01*
X147090280Y-83523336D01*
X147082712Y-83510710D01*
X147076418Y-83497403D01*
X147071459Y-83483543D01*
X147067882Y-83469264D01*
X147065722Y-83454703D01*
X147065000Y-83440000D01*
X147065000Y-81790000D01*
X147065722Y-81775297D01*
X147067882Y-81760736D01*
X147071459Y-81746457D01*
X147076418Y-81732597D01*
X147082712Y-81719290D01*
X147090280Y-81706664D01*
X147099048Y-81694841D01*
X147108934Y-81683934D01*
X147119841Y-81674048D01*
X147131664Y-81665280D01*
X147144290Y-81657712D01*
X147157597Y-81651418D01*
X147171457Y-81646459D01*
X147185736Y-81642882D01*
X147200297Y-81640722D01*
X147215000Y-81640000D01*
X147515000Y-81640000D01*
X147529703Y-81640722D01*
G37*
G36*
X148799703Y-81640722D02*
G01*
X148814264Y-81642882D01*
X148828543Y-81646459D01*
X148842403Y-81651418D01*
X148855710Y-81657712D01*
X148868336Y-81665280D01*
X148880159Y-81674048D01*
X148891066Y-81683934D01*
X148900952Y-81694841D01*
X148909720Y-81706664D01*
X148917288Y-81719290D01*
X148923582Y-81732597D01*
X148928541Y-81746457D01*
X148932118Y-81760736D01*
X148934278Y-81775297D01*
X148935000Y-81790000D01*
X148935000Y-83440000D01*
X148934278Y-83454703D01*
X148932118Y-83469264D01*
X148928541Y-83483543D01*
X148923582Y-83497403D01*
X148917288Y-83510710D01*
X148909720Y-83523336D01*
X148900952Y-83535159D01*
X148891066Y-83546066D01*
X148880159Y-83555952D01*
X148868336Y-83564720D01*
X148855710Y-83572288D01*
X148842403Y-83578582D01*
X148828543Y-83583541D01*
X148814264Y-83587118D01*
X148799703Y-83589278D01*
X148785000Y-83590000D01*
X148485000Y-83590000D01*
X148470297Y-83589278D01*
X148455736Y-83587118D01*
X148441457Y-83583541D01*
X148427597Y-83578582D01*
X148414290Y-83572288D01*
X148401664Y-83564720D01*
X148389841Y-83555952D01*
X148378934Y-83546066D01*
X148369048Y-83535159D01*
X148360280Y-83523336D01*
X148352712Y-83510710D01*
X148346418Y-83497403D01*
X148341459Y-83483543D01*
X148337882Y-83469264D01*
X148335722Y-83454703D01*
X148335000Y-83440000D01*
X148335000Y-81790000D01*
X148335722Y-81775297D01*
X148337882Y-81760736D01*
X148341459Y-81746457D01*
X148346418Y-81732597D01*
X148352712Y-81719290D01*
X148360280Y-81706664D01*
X148369048Y-81694841D01*
X148378934Y-81683934D01*
X148389841Y-81674048D01*
X148401664Y-81665280D01*
X148414290Y-81657712D01*
X148427597Y-81651418D01*
X148441457Y-81646459D01*
X148455736Y-81642882D01*
X148470297Y-81640722D01*
X148485000Y-81640000D01*
X148785000Y-81640000D01*
X148799703Y-81640722D01*
G37*
G36*
X150069703Y-81640722D02*
G01*
X150084264Y-81642882D01*
X150098543Y-81646459D01*
X150112403Y-81651418D01*
X150125710Y-81657712D01*
X150138336Y-81665280D01*
X150150159Y-81674048D01*
X150161066Y-81683934D01*
X150170952Y-81694841D01*
X150179720Y-81706664D01*
X150187288Y-81719290D01*
X150193582Y-81732597D01*
X150198541Y-81746457D01*
X150202118Y-81760736D01*
X150204278Y-81775297D01*
X150205000Y-81790000D01*
X150205000Y-83440000D01*
X150204278Y-83454703D01*
X150202118Y-83469264D01*
X150198541Y-83483543D01*
X150193582Y-83497403D01*
X150187288Y-83510710D01*
X150179720Y-83523336D01*
X150170952Y-83535159D01*
X150161066Y-83546066D01*
X150150159Y-83555952D01*
X150138336Y-83564720D01*
X150125710Y-83572288D01*
X150112403Y-83578582D01*
X150098543Y-83583541D01*
X150084264Y-83587118D01*
X150069703Y-83589278D01*
X150055000Y-83590000D01*
X149755000Y-83590000D01*
X149740297Y-83589278D01*
X149725736Y-83587118D01*
X149711457Y-83583541D01*
X149697597Y-83578582D01*
X149684290Y-83572288D01*
X149671664Y-83564720D01*
X149659841Y-83555952D01*
X149648934Y-83546066D01*
X149639048Y-83535159D01*
X149630280Y-83523336D01*
X149622712Y-83510710D01*
X149616418Y-83497403D01*
X149611459Y-83483543D01*
X149607882Y-83469264D01*
X149605722Y-83454703D01*
X149605000Y-83440000D01*
X149605000Y-81790000D01*
X149605722Y-81775297D01*
X149607882Y-81760736D01*
X149611459Y-81746457D01*
X149616418Y-81732597D01*
X149622712Y-81719290D01*
X149630280Y-81706664D01*
X149639048Y-81694841D01*
X149648934Y-81683934D01*
X149659841Y-81674048D01*
X149671664Y-81665280D01*
X149684290Y-81657712D01*
X149697597Y-81651418D01*
X149711457Y-81646459D01*
X149725736Y-81642882D01*
X149740297Y-81640722D01*
X149755000Y-81640000D01*
X150055000Y-81640000D01*
X150069703Y-81640722D01*
G37*
G36*
X150069703Y-62500722D02*
G01*
X150084264Y-62502882D01*
X150098543Y-62506459D01*
X150112403Y-62511418D01*
X150125710Y-62517712D01*
X150138336Y-62525280D01*
X150150159Y-62534048D01*
X150161066Y-62543934D01*
X150170952Y-62554841D01*
X150179720Y-62566664D01*
X150187288Y-62579290D01*
X150193582Y-62592597D01*
X150198541Y-62606457D01*
X150202118Y-62620736D01*
X150204278Y-62635297D01*
X150205000Y-62650000D01*
X150205000Y-64300000D01*
X150204278Y-64314703D01*
X150202118Y-64329264D01*
X150198541Y-64343543D01*
X150193582Y-64357403D01*
X150187288Y-64370710D01*
X150179720Y-64383336D01*
X150170952Y-64395159D01*
X150161066Y-64406066D01*
X150150159Y-64415952D01*
X150138336Y-64424720D01*
X150125710Y-64432288D01*
X150112403Y-64438582D01*
X150098543Y-64443541D01*
X150084264Y-64447118D01*
X150069703Y-64449278D01*
X150055000Y-64450000D01*
X149755000Y-64450000D01*
X149740297Y-64449278D01*
X149725736Y-64447118D01*
X149711457Y-64443541D01*
X149697597Y-64438582D01*
X149684290Y-64432288D01*
X149671664Y-64424720D01*
X149659841Y-64415952D01*
X149648934Y-64406066D01*
X149639048Y-64395159D01*
X149630280Y-64383336D01*
X149622712Y-64370710D01*
X149616418Y-64357403D01*
X149611459Y-64343543D01*
X149607882Y-64329264D01*
X149605722Y-64314703D01*
X149605000Y-64300000D01*
X149605000Y-62650000D01*
X149605722Y-62635297D01*
X149607882Y-62620736D01*
X149611459Y-62606457D01*
X149616418Y-62592597D01*
X149622712Y-62579290D01*
X149630280Y-62566664D01*
X149639048Y-62554841D01*
X149648934Y-62543934D01*
X149659841Y-62534048D01*
X149671664Y-62525280D01*
X149684290Y-62517712D01*
X149697597Y-62511418D01*
X149711457Y-62506459D01*
X149725736Y-62502882D01*
X149740297Y-62500722D01*
X149755000Y-62500000D01*
X150055000Y-62500000D01*
X150069703Y-62500722D01*
G37*
G36*
X148799703Y-62500722D02*
G01*
X148814264Y-62502882D01*
X148828543Y-62506459D01*
X148842403Y-62511418D01*
X148855710Y-62517712D01*
X148868336Y-62525280D01*
X148880159Y-62534048D01*
X148891066Y-62543934D01*
X148900952Y-62554841D01*
X148909720Y-62566664D01*
X148917288Y-62579290D01*
X148923582Y-62592597D01*
X148928541Y-62606457D01*
X148932118Y-62620736D01*
X148934278Y-62635297D01*
X148935000Y-62650000D01*
X148935000Y-64300000D01*
X148934278Y-64314703D01*
X148932118Y-64329264D01*
X148928541Y-64343543D01*
X148923582Y-64357403D01*
X148917288Y-64370710D01*
X148909720Y-64383336D01*
X148900952Y-64395159D01*
X148891066Y-64406066D01*
X148880159Y-64415952D01*
X148868336Y-64424720D01*
X148855710Y-64432288D01*
X148842403Y-64438582D01*
X148828543Y-64443541D01*
X148814264Y-64447118D01*
X148799703Y-64449278D01*
X148785000Y-64450000D01*
X148485000Y-64450000D01*
X148470297Y-64449278D01*
X148455736Y-64447118D01*
X148441457Y-64443541D01*
X148427597Y-64438582D01*
X148414290Y-64432288D01*
X148401664Y-64424720D01*
X148389841Y-64415952D01*
X148378934Y-64406066D01*
X148369048Y-64395159D01*
X148360280Y-64383336D01*
X148352712Y-64370710D01*
X148346418Y-64357403D01*
X148341459Y-64343543D01*
X148337882Y-64329264D01*
X148335722Y-64314703D01*
X148335000Y-64300000D01*
X148335000Y-62650000D01*
X148335722Y-62635297D01*
X148337882Y-62620736D01*
X148341459Y-62606457D01*
X148346418Y-62592597D01*
X148352712Y-62579290D01*
X148360280Y-62566664D01*
X148369048Y-62554841D01*
X148378934Y-62543934D01*
X148389841Y-62534048D01*
X148401664Y-62525280D01*
X148414290Y-62517712D01*
X148427597Y-62511418D01*
X148441457Y-62506459D01*
X148455736Y-62502882D01*
X148470297Y-62500722D01*
X148485000Y-62500000D01*
X148785000Y-62500000D01*
X148799703Y-62500722D01*
G37*
G36*
X147529703Y-62500722D02*
G01*
X147544264Y-62502882D01*
X147558543Y-62506459D01*
X147572403Y-62511418D01*
X147585710Y-62517712D01*
X147598336Y-62525280D01*
X147610159Y-62534048D01*
X147621066Y-62543934D01*
X147630952Y-62554841D01*
X147639720Y-62566664D01*
X147647288Y-62579290D01*
X147653582Y-62592597D01*
X147658541Y-62606457D01*
X147662118Y-62620736D01*
X147664278Y-62635297D01*
X147665000Y-62650000D01*
X147665000Y-64300000D01*
X147664278Y-64314703D01*
X147662118Y-64329264D01*
X147658541Y-64343543D01*
X147653582Y-64357403D01*
X147647288Y-64370710D01*
X147639720Y-64383336D01*
X147630952Y-64395159D01*
X147621066Y-64406066D01*
X147610159Y-64415952D01*
X147598336Y-64424720D01*
X147585710Y-64432288D01*
X147572403Y-64438582D01*
X147558543Y-64443541D01*
X147544264Y-64447118D01*
X147529703Y-64449278D01*
X147515000Y-64450000D01*
X147215000Y-64450000D01*
X147200297Y-64449278D01*
X147185736Y-64447118D01*
X147171457Y-64443541D01*
X147157597Y-64438582D01*
X147144290Y-64432288D01*
X147131664Y-64424720D01*
X147119841Y-64415952D01*
X147108934Y-64406066D01*
X147099048Y-64395159D01*
X147090280Y-64383336D01*
X147082712Y-64370710D01*
X147076418Y-64357403D01*
X147071459Y-64343543D01*
X147067882Y-64329264D01*
X147065722Y-64314703D01*
X147065000Y-64300000D01*
X147065000Y-62650000D01*
X147065722Y-62635297D01*
X147067882Y-62620736D01*
X147071459Y-62606457D01*
X147076418Y-62592597D01*
X147082712Y-62579290D01*
X147090280Y-62566664D01*
X147099048Y-62554841D01*
X147108934Y-62543934D01*
X147119841Y-62534048D01*
X147131664Y-62525280D01*
X147144290Y-62517712D01*
X147157597Y-62511418D01*
X147171457Y-62506459D01*
X147185736Y-62502882D01*
X147200297Y-62500722D01*
X147215000Y-62500000D01*
X147515000Y-62500000D01*
X147529703Y-62500722D01*
G37*
G36*
X146259703Y-62500722D02*
G01*
X146274264Y-62502882D01*
X146288543Y-62506459D01*
X146302403Y-62511418D01*
X146315710Y-62517712D01*
X146328336Y-62525280D01*
X146340159Y-62534048D01*
X146351066Y-62543934D01*
X146360952Y-62554841D01*
X146369720Y-62566664D01*
X146377288Y-62579290D01*
X146383582Y-62592597D01*
X146388541Y-62606457D01*
X146392118Y-62620736D01*
X146394278Y-62635297D01*
X146395000Y-62650000D01*
X146395000Y-64300000D01*
X146394278Y-64314703D01*
X146392118Y-64329264D01*
X146388541Y-64343543D01*
X146383582Y-64357403D01*
X146377288Y-64370710D01*
X146369720Y-64383336D01*
X146360952Y-64395159D01*
X146351066Y-64406066D01*
X146340159Y-64415952D01*
X146328336Y-64424720D01*
X146315710Y-64432288D01*
X146302403Y-64438582D01*
X146288543Y-64443541D01*
X146274264Y-64447118D01*
X146259703Y-64449278D01*
X146245000Y-64450000D01*
X145945000Y-64450000D01*
X145930297Y-64449278D01*
X145915736Y-64447118D01*
X145901457Y-64443541D01*
X145887597Y-64438582D01*
X145874290Y-64432288D01*
X145861664Y-64424720D01*
X145849841Y-64415952D01*
X145838934Y-64406066D01*
X145829048Y-64395159D01*
X145820280Y-64383336D01*
X145812712Y-64370710D01*
X145806418Y-64357403D01*
X145801459Y-64343543D01*
X145797882Y-64329264D01*
X145795722Y-64314703D01*
X145795000Y-64300000D01*
X145795000Y-62650000D01*
X145795722Y-62635297D01*
X145797882Y-62620736D01*
X145801459Y-62606457D01*
X145806418Y-62592597D01*
X145812712Y-62579290D01*
X145820280Y-62566664D01*
X145829048Y-62554841D01*
X145838934Y-62543934D01*
X145849841Y-62534048D01*
X145861664Y-62525280D01*
X145874290Y-62517712D01*
X145887597Y-62511418D01*
X145901457Y-62506459D01*
X145915736Y-62502882D01*
X145930297Y-62500722D01*
X145945000Y-62500000D01*
X146245000Y-62500000D01*
X146259703Y-62500722D01*
G37*
G36*
X146259703Y-57550722D02*
G01*
X146274264Y-57552882D01*
X146288543Y-57556459D01*
X146302403Y-57561418D01*
X146315710Y-57567712D01*
X146328336Y-57575280D01*
X146340159Y-57584048D01*
X146351066Y-57593934D01*
X146360952Y-57604841D01*
X146369720Y-57616664D01*
X146377288Y-57629290D01*
X146383582Y-57642597D01*
X146388541Y-57656457D01*
X146392118Y-57670736D01*
X146394278Y-57685297D01*
X146395000Y-57700000D01*
X146395000Y-59350000D01*
X146394278Y-59364703D01*
X146392118Y-59379264D01*
X146388541Y-59393543D01*
X146383582Y-59407403D01*
X146377288Y-59420710D01*
X146369720Y-59433336D01*
X146360952Y-59445159D01*
X146351066Y-59456066D01*
X146340159Y-59465952D01*
X146328336Y-59474720D01*
X146315710Y-59482288D01*
X146302403Y-59488582D01*
X146288543Y-59493541D01*
X146274264Y-59497118D01*
X146259703Y-59499278D01*
X146245000Y-59500000D01*
X145945000Y-59500000D01*
X145930297Y-59499278D01*
X145915736Y-59497118D01*
X145901457Y-59493541D01*
X145887597Y-59488582D01*
X145874290Y-59482288D01*
X145861664Y-59474720D01*
X145849841Y-59465952D01*
X145838934Y-59456066D01*
X145829048Y-59445159D01*
X145820280Y-59433336D01*
X145812712Y-59420710D01*
X145806418Y-59407403D01*
X145801459Y-59393543D01*
X145797882Y-59379264D01*
X145795722Y-59364703D01*
X145795000Y-59350000D01*
X145795000Y-57700000D01*
X145795722Y-57685297D01*
X145797882Y-57670736D01*
X145801459Y-57656457D01*
X145806418Y-57642597D01*
X145812712Y-57629290D01*
X145820280Y-57616664D01*
X145829048Y-57604841D01*
X145838934Y-57593934D01*
X145849841Y-57584048D01*
X145861664Y-57575280D01*
X145874290Y-57567712D01*
X145887597Y-57561418D01*
X145901457Y-57556459D01*
X145915736Y-57552882D01*
X145930297Y-57550722D01*
X145945000Y-57550000D01*
X146245000Y-57550000D01*
X146259703Y-57550722D01*
G37*
G36*
X147529703Y-57550722D02*
G01*
X147544264Y-57552882D01*
X147558543Y-57556459D01*
X147572403Y-57561418D01*
X147585710Y-57567712D01*
X147598336Y-57575280D01*
X147610159Y-57584048D01*
X147621066Y-57593934D01*
X147630952Y-57604841D01*
X147639720Y-57616664D01*
X147647288Y-57629290D01*
X147653582Y-57642597D01*
X147658541Y-57656457D01*
X147662118Y-57670736D01*
X147664278Y-57685297D01*
X147665000Y-57700000D01*
X147665000Y-59350000D01*
X147664278Y-59364703D01*
X147662118Y-59379264D01*
X147658541Y-59393543D01*
X147653582Y-59407403D01*
X147647288Y-59420710D01*
X147639720Y-59433336D01*
X147630952Y-59445159D01*
X147621066Y-59456066D01*
X147610159Y-59465952D01*
X147598336Y-59474720D01*
X147585710Y-59482288D01*
X147572403Y-59488582D01*
X147558543Y-59493541D01*
X147544264Y-59497118D01*
X147529703Y-59499278D01*
X147515000Y-59500000D01*
X147215000Y-59500000D01*
X147200297Y-59499278D01*
X147185736Y-59497118D01*
X147171457Y-59493541D01*
X147157597Y-59488582D01*
X147144290Y-59482288D01*
X147131664Y-59474720D01*
X147119841Y-59465952D01*
X147108934Y-59456066D01*
X147099048Y-59445159D01*
X147090280Y-59433336D01*
X147082712Y-59420710D01*
X147076418Y-59407403D01*
X147071459Y-59393543D01*
X147067882Y-59379264D01*
X147065722Y-59364703D01*
X147065000Y-59350000D01*
X147065000Y-57700000D01*
X147065722Y-57685297D01*
X147067882Y-57670736D01*
X147071459Y-57656457D01*
X147076418Y-57642597D01*
X147082712Y-57629290D01*
X147090280Y-57616664D01*
X147099048Y-57604841D01*
X147108934Y-57593934D01*
X147119841Y-57584048D01*
X147131664Y-57575280D01*
X147144290Y-57567712D01*
X147157597Y-57561418D01*
X147171457Y-57556459D01*
X147185736Y-57552882D01*
X147200297Y-57550722D01*
X147215000Y-57550000D01*
X147515000Y-57550000D01*
X147529703Y-57550722D01*
G37*
G36*
X148799703Y-57550722D02*
G01*
X148814264Y-57552882D01*
X148828543Y-57556459D01*
X148842403Y-57561418D01*
X148855710Y-57567712D01*
X148868336Y-57575280D01*
X148880159Y-57584048D01*
X148891066Y-57593934D01*
X148900952Y-57604841D01*
X148909720Y-57616664D01*
X148917288Y-57629290D01*
X148923582Y-57642597D01*
X148928541Y-57656457D01*
X148932118Y-57670736D01*
X148934278Y-57685297D01*
X148935000Y-57700000D01*
X148935000Y-59350000D01*
X148934278Y-59364703D01*
X148932118Y-59379264D01*
X148928541Y-59393543D01*
X148923582Y-59407403D01*
X148917288Y-59420710D01*
X148909720Y-59433336D01*
X148900952Y-59445159D01*
X148891066Y-59456066D01*
X148880159Y-59465952D01*
X148868336Y-59474720D01*
X148855710Y-59482288D01*
X148842403Y-59488582D01*
X148828543Y-59493541D01*
X148814264Y-59497118D01*
X148799703Y-59499278D01*
X148785000Y-59500000D01*
X148485000Y-59500000D01*
X148470297Y-59499278D01*
X148455736Y-59497118D01*
X148441457Y-59493541D01*
X148427597Y-59488582D01*
X148414290Y-59482288D01*
X148401664Y-59474720D01*
X148389841Y-59465952D01*
X148378934Y-59456066D01*
X148369048Y-59445159D01*
X148360280Y-59433336D01*
X148352712Y-59420710D01*
X148346418Y-59407403D01*
X148341459Y-59393543D01*
X148337882Y-59379264D01*
X148335722Y-59364703D01*
X148335000Y-59350000D01*
X148335000Y-57700000D01*
X148335722Y-57685297D01*
X148337882Y-57670736D01*
X148341459Y-57656457D01*
X148346418Y-57642597D01*
X148352712Y-57629290D01*
X148360280Y-57616664D01*
X148369048Y-57604841D01*
X148378934Y-57593934D01*
X148389841Y-57584048D01*
X148401664Y-57575280D01*
X148414290Y-57567712D01*
X148427597Y-57561418D01*
X148441457Y-57556459D01*
X148455736Y-57552882D01*
X148470297Y-57550722D01*
X148485000Y-57550000D01*
X148785000Y-57550000D01*
X148799703Y-57550722D01*
G37*
G36*
X150069703Y-57550722D02*
G01*
X150084264Y-57552882D01*
X150098543Y-57556459D01*
X150112403Y-57561418D01*
X150125710Y-57567712D01*
X150138336Y-57575280D01*
X150150159Y-57584048D01*
X150161066Y-57593934D01*
X150170952Y-57604841D01*
X150179720Y-57616664D01*
X150187288Y-57629290D01*
X150193582Y-57642597D01*
X150198541Y-57656457D01*
X150202118Y-57670736D01*
X150204278Y-57685297D01*
X150205000Y-57700000D01*
X150205000Y-59350000D01*
X150204278Y-59364703D01*
X150202118Y-59379264D01*
X150198541Y-59393543D01*
X150193582Y-59407403D01*
X150187288Y-59420710D01*
X150179720Y-59433336D01*
X150170952Y-59445159D01*
X150161066Y-59456066D01*
X150150159Y-59465952D01*
X150138336Y-59474720D01*
X150125710Y-59482288D01*
X150112403Y-59488582D01*
X150098543Y-59493541D01*
X150084264Y-59497118D01*
X150069703Y-59499278D01*
X150055000Y-59500000D01*
X149755000Y-59500000D01*
X149740297Y-59499278D01*
X149725736Y-59497118D01*
X149711457Y-59493541D01*
X149697597Y-59488582D01*
X149684290Y-59482288D01*
X149671664Y-59474720D01*
X149659841Y-59465952D01*
X149648934Y-59456066D01*
X149639048Y-59445159D01*
X149630280Y-59433336D01*
X149622712Y-59420710D01*
X149616418Y-59407403D01*
X149611459Y-59393543D01*
X149607882Y-59379264D01*
X149605722Y-59364703D01*
X149605000Y-59350000D01*
X149605000Y-57700000D01*
X149605722Y-57685297D01*
X149607882Y-57670736D01*
X149611459Y-57656457D01*
X149616418Y-57642597D01*
X149622712Y-57629290D01*
X149630280Y-57616664D01*
X149639048Y-57604841D01*
X149648934Y-57593934D01*
X149659841Y-57584048D01*
X149671664Y-57575280D01*
X149684290Y-57567712D01*
X149697597Y-57561418D01*
X149711457Y-57556459D01*
X149725736Y-57552882D01*
X149740297Y-57550722D01*
X149755000Y-57550000D01*
X150055000Y-57550000D01*
X150069703Y-57550722D01*
G37*
M02*
