G04 #@! TF.GenerationSoftware,KiCad,Pcbnew,5.1.5+dfsg1-2build2*
G04 #@! TF.CreationDate,2021-06-08T18:26:39-05:00*
G04 #@! TF.ProjectId,3inaudiomixer,33696e61-7564-4696-9f6d-697865722e6b,rev?*
G04 #@! TF.SameCoordinates,Original*
G04 #@! TF.FileFunction,Soldermask,Top*
G04 #@! TF.FilePolarity,Negative*
%FSLAX46Y46*%
G04 Gerber Fmt 4.6, Leading zero omitted, Abs format (unit mm)*
G04 Created by KiCad (PCBNEW 5.1.5+dfsg1-2build2) date 2021-06-08 18:26:39*
%MOMM*%
%LPD*%
G04 APERTURE LIST*
%ADD10C,0.100000*%
G04 APERTURE END LIST*
D10*
G36*
X173363361Y-109388932D02*
G01*
X173481579Y-109412447D01*
X173782042Y-109536903D01*
X174052451Y-109717585D01*
X174282415Y-109947549D01*
X174282416Y-109947551D01*
X174463098Y-110217960D01*
X174587553Y-110518422D01*
X174646062Y-110812562D01*
X174651000Y-110837391D01*
X174651000Y-111162609D01*
X174587553Y-111481579D01*
X174463097Y-111782042D01*
X174282415Y-112052451D01*
X174052451Y-112282415D01*
X173782042Y-112463097D01*
X173481579Y-112587553D01*
X173375256Y-112608702D01*
X173162611Y-112651000D01*
X172837389Y-112651000D01*
X172624744Y-112608702D01*
X172518421Y-112587553D01*
X172217958Y-112463097D01*
X171947549Y-112282415D01*
X171717585Y-112052451D01*
X171536903Y-111782042D01*
X171412447Y-111481579D01*
X171349000Y-111162609D01*
X171349000Y-110837391D01*
X171353939Y-110812562D01*
X171412447Y-110518422D01*
X171536902Y-110217960D01*
X171717584Y-109947551D01*
X171717585Y-109947549D01*
X171947549Y-109717585D01*
X172217958Y-109536903D01*
X172518421Y-109412447D01*
X172636639Y-109388932D01*
X172837389Y-109349000D01*
X173162611Y-109349000D01*
X173363361Y-109388932D01*
G37*
G36*
X117363361Y-109388932D02*
G01*
X117481579Y-109412447D01*
X117782042Y-109536903D01*
X118052451Y-109717585D01*
X118282415Y-109947549D01*
X118282416Y-109947551D01*
X118463098Y-110217960D01*
X118587553Y-110518422D01*
X118646062Y-110812562D01*
X118651000Y-110837391D01*
X118651000Y-111162609D01*
X118587553Y-111481579D01*
X118463097Y-111782042D01*
X118282415Y-112052451D01*
X118052451Y-112282415D01*
X117782042Y-112463097D01*
X117481579Y-112587553D01*
X117375256Y-112608702D01*
X117162611Y-112651000D01*
X116837389Y-112651000D01*
X116624744Y-112608702D01*
X116518421Y-112587553D01*
X116217958Y-112463097D01*
X115947549Y-112282415D01*
X115717585Y-112052451D01*
X115536903Y-111782042D01*
X115412447Y-111481579D01*
X115349000Y-111162609D01*
X115349000Y-110837391D01*
X115353939Y-110812562D01*
X115412447Y-110518422D01*
X115536902Y-110217960D01*
X115717584Y-109947551D01*
X115717585Y-109947549D01*
X115947549Y-109717585D01*
X116217958Y-109536903D01*
X116518421Y-109412447D01*
X116636639Y-109388932D01*
X116837389Y-109349000D01*
X117162611Y-109349000D01*
X117363361Y-109388932D01*
G37*
G36*
X127705997Y-109032051D02*
G01*
X127739652Y-109042261D01*
X127770665Y-109058838D01*
X127797851Y-109081149D01*
X127820162Y-109108335D01*
X127836739Y-109139348D01*
X127846949Y-109173003D01*
X127851000Y-109214138D01*
X127851000Y-112268862D01*
X127846949Y-112309997D01*
X127836739Y-112343652D01*
X127820162Y-112374665D01*
X127797851Y-112401851D01*
X127770665Y-112424162D01*
X127739652Y-112440739D01*
X127705997Y-112450949D01*
X127664862Y-112455000D01*
X126335138Y-112455000D01*
X126294003Y-112450949D01*
X126260348Y-112440739D01*
X126229335Y-112424162D01*
X126202149Y-112401851D01*
X126179838Y-112374665D01*
X126163261Y-112343652D01*
X126153051Y-112309997D01*
X126149000Y-112268862D01*
X126149000Y-109214138D01*
X126153051Y-109173003D01*
X126163261Y-109139348D01*
X126179838Y-109108335D01*
X126202149Y-109081149D01*
X126229335Y-109058838D01*
X126260348Y-109042261D01*
X126294003Y-109032051D01*
X126335138Y-109028000D01*
X127664862Y-109028000D01*
X127705997Y-109032051D01*
G37*
G36*
X140775562Y-109440181D02*
G01*
X140810481Y-109450774D01*
X140842663Y-109467976D01*
X140870873Y-109491127D01*
X140894024Y-109519337D01*
X140911226Y-109551519D01*
X140921819Y-109586438D01*
X140926000Y-109628895D01*
X140926000Y-110770105D01*
X140921819Y-110812562D01*
X140911226Y-110847481D01*
X140894024Y-110879663D01*
X140870873Y-110907873D01*
X140842663Y-110931024D01*
X140810481Y-110948226D01*
X140775562Y-110958819D01*
X140733105Y-110963000D01*
X139266895Y-110963000D01*
X139224438Y-110958819D01*
X139189519Y-110948226D01*
X139157337Y-110931024D01*
X139129127Y-110907873D01*
X139105976Y-110879663D01*
X139088774Y-110847481D01*
X139078181Y-110812562D01*
X139074000Y-110770105D01*
X139074000Y-109628895D01*
X139078181Y-109586438D01*
X139088774Y-109551519D01*
X139105976Y-109519337D01*
X139129127Y-109491127D01*
X139157337Y-109467976D01*
X139189519Y-109450774D01*
X139224438Y-109440181D01*
X139266895Y-109436000D01*
X140733105Y-109436000D01*
X140775562Y-109440181D01*
G37*
G36*
X137281000Y-110763000D02*
G01*
X135679000Y-110763000D01*
X135679000Y-109661000D01*
X137281000Y-109661000D01*
X137281000Y-110763000D01*
G37*
G36*
X132830066Y-107505447D02*
G01*
X132845611Y-107524389D01*
X132864553Y-107539934D01*
X132886164Y-107551485D01*
X132909613Y-107558598D01*
X132933999Y-107561000D01*
X134400201Y-107561000D01*
X134424587Y-107558598D01*
X134448036Y-107551485D01*
X134469647Y-107539934D01*
X134488589Y-107524389D01*
X134504134Y-107505447D01*
X134506525Y-107500974D01*
X134559996Y-107538404D01*
X134581351Y-107550421D01*
X134604640Y-107558041D01*
X134631678Y-107561000D01*
X134642644Y-107561000D01*
X134647015Y-107575410D01*
X134658566Y-107597021D01*
X134674111Y-107615963D01*
X134690817Y-107629978D01*
X135417140Y-108138404D01*
X135438495Y-108150421D01*
X135461784Y-108158041D01*
X135488822Y-108161000D01*
X137284500Y-108161000D01*
X137284500Y-109263000D01*
X135488822Y-109263000D01*
X135464436Y-109265402D01*
X135440987Y-109272515D01*
X135417140Y-109285596D01*
X134690817Y-109794022D01*
X134672216Y-109809974D01*
X134657085Y-109829248D01*
X134646005Y-109851104D01*
X134642676Y-109863000D01*
X134631678Y-109863000D01*
X134607292Y-109865402D01*
X134583843Y-109872515D01*
X134559996Y-109885596D01*
X134506525Y-109923026D01*
X134504134Y-109918553D01*
X134488589Y-109899611D01*
X134469647Y-109884066D01*
X134448036Y-109872515D01*
X134424587Y-109865402D01*
X134400201Y-109863000D01*
X132933999Y-109863000D01*
X132909613Y-109865402D01*
X132886164Y-109872515D01*
X132864553Y-109884066D01*
X132845611Y-109899611D01*
X132830066Y-109918553D01*
X132827449Y-109923450D01*
X132774224Y-109885879D01*
X132752916Y-109873778D01*
X132729657Y-109866067D01*
X132702139Y-109863000D01*
X132690765Y-109863000D01*
X132685985Y-109847243D01*
X132674434Y-109825632D01*
X132658889Y-109806690D01*
X132642586Y-109792958D01*
X131857000Y-109238426D01*
X131857000Y-108185574D01*
X132642586Y-107631042D01*
X132661123Y-107615017D01*
X132676178Y-107595683D01*
X132687172Y-107573784D01*
X132690695Y-107561000D01*
X132702139Y-107561000D01*
X132726525Y-107558598D01*
X132749974Y-107551485D01*
X132774224Y-107538121D01*
X132827449Y-107500550D01*
X132830066Y-107505447D01*
G37*
G36*
X166422416Y-107447879D02*
G01*
X166613592Y-107527067D01*
X166613594Y-107527068D01*
X166785648Y-107642031D01*
X166931969Y-107788352D01*
X167035203Y-107942852D01*
X167046933Y-107960408D01*
X167126121Y-108151584D01*
X167166490Y-108354534D01*
X167166490Y-108561466D01*
X167126121Y-108764416D01*
X167046933Y-108955592D01*
X167046932Y-108955594D01*
X166931969Y-109127648D01*
X166785648Y-109273969D01*
X166613594Y-109388932D01*
X166613593Y-109388933D01*
X166613592Y-109388933D01*
X166422416Y-109468121D01*
X166219466Y-109508490D01*
X166012534Y-109508490D01*
X165809584Y-109468121D01*
X165618408Y-109388933D01*
X165618407Y-109388933D01*
X165618406Y-109388932D01*
X165446352Y-109273969D01*
X165300031Y-109127648D01*
X165185068Y-108955594D01*
X165185067Y-108955592D01*
X165105879Y-108764416D01*
X165065510Y-108561466D01*
X165065510Y-108354534D01*
X165105879Y-108151584D01*
X165185067Y-107960408D01*
X165196798Y-107942852D01*
X165300031Y-107788352D01*
X165446352Y-107642031D01*
X165618406Y-107527068D01*
X165618408Y-107527067D01*
X165809584Y-107447879D01*
X166012534Y-107407510D01*
X166219466Y-107407510D01*
X166422416Y-107447879D01*
G37*
G36*
X140775562Y-106465181D02*
G01*
X140810481Y-106475774D01*
X140842663Y-106492976D01*
X140870873Y-106516127D01*
X140894024Y-106544337D01*
X140911226Y-106576519D01*
X140921819Y-106611438D01*
X140926000Y-106653895D01*
X140926000Y-107795105D01*
X140921819Y-107837562D01*
X140911226Y-107872481D01*
X140894024Y-107904663D01*
X140870873Y-107932873D01*
X140842663Y-107956024D01*
X140810481Y-107973226D01*
X140775562Y-107983819D01*
X140733105Y-107988000D01*
X139266895Y-107988000D01*
X139224438Y-107983819D01*
X139189519Y-107973226D01*
X139157337Y-107956024D01*
X139129127Y-107932873D01*
X139105976Y-107904663D01*
X139088774Y-107872481D01*
X139078181Y-107837562D01*
X139074000Y-107795105D01*
X139074000Y-106653895D01*
X139078181Y-106611438D01*
X139088774Y-106576519D01*
X139105976Y-106544337D01*
X139129127Y-106516127D01*
X139157337Y-106492976D01*
X139189519Y-106475774D01*
X139224438Y-106465181D01*
X139266895Y-106461000D01*
X140733105Y-106461000D01*
X140775562Y-106465181D01*
G37*
G36*
X137281000Y-107763000D02*
G01*
X135679000Y-107763000D01*
X135679000Y-106661000D01*
X137281000Y-106661000D01*
X137281000Y-107763000D01*
G37*
G36*
X127705997Y-103957051D02*
G01*
X127739652Y-103967261D01*
X127770665Y-103983838D01*
X127797851Y-104006149D01*
X127820162Y-104033335D01*
X127836739Y-104064348D01*
X127846949Y-104098003D01*
X127851000Y-104139138D01*
X127851000Y-107193862D01*
X127846949Y-107234997D01*
X127836739Y-107268652D01*
X127820162Y-107299665D01*
X127797851Y-107326851D01*
X127770665Y-107349162D01*
X127739652Y-107365739D01*
X127705997Y-107375949D01*
X127664862Y-107380000D01*
X126335138Y-107380000D01*
X126294003Y-107375949D01*
X126260348Y-107365739D01*
X126229335Y-107349162D01*
X126202149Y-107326851D01*
X126179838Y-107299665D01*
X126163261Y-107268652D01*
X126153051Y-107234997D01*
X126149000Y-107193862D01*
X126149000Y-104139138D01*
X126153051Y-104098003D01*
X126163261Y-104064348D01*
X126179838Y-104033335D01*
X126202149Y-104006149D01*
X126229335Y-103983838D01*
X126260348Y-103967261D01*
X126294003Y-103957051D01*
X126335138Y-103953000D01*
X127664862Y-103953000D01*
X127705997Y-103957051D01*
G37*
G36*
X119109903Y-102952075D02*
G01*
X119337571Y-103046378D01*
X119542466Y-103183285D01*
X119716715Y-103357534D01*
X119716716Y-103357536D01*
X119853623Y-103562431D01*
X119947925Y-103790097D01*
X119986463Y-103983838D01*
X119996000Y-104031787D01*
X119996000Y-104278213D01*
X119947925Y-104519903D01*
X119853622Y-104747571D01*
X119716715Y-104952466D01*
X119542466Y-105126715D01*
X119337571Y-105263622D01*
X119337570Y-105263623D01*
X119337569Y-105263623D01*
X119109903Y-105357925D01*
X118868214Y-105406000D01*
X118621786Y-105406000D01*
X118380097Y-105357925D01*
X118152431Y-105263623D01*
X118152430Y-105263623D01*
X118152429Y-105263622D01*
X117947534Y-105126715D01*
X117773285Y-104952466D01*
X117636378Y-104747571D01*
X117542075Y-104519903D01*
X117494000Y-104278213D01*
X117494000Y-104031787D01*
X117503538Y-103983838D01*
X117542075Y-103790097D01*
X117636377Y-103562431D01*
X117773284Y-103357536D01*
X117773285Y-103357534D01*
X117947534Y-103183285D01*
X118152429Y-103046378D01*
X118380097Y-102952075D01*
X118621786Y-102904000D01*
X118868214Y-102904000D01*
X119109903Y-102952075D01*
G37*
G36*
X170356153Y-101825922D02*
G01*
X170433414Y-101857925D01*
X170578359Y-101917963D01*
X170778342Y-102051587D01*
X170948413Y-102221658D01*
X171082037Y-102421641D01*
X171098731Y-102461945D01*
X171174078Y-102643847D01*
X171221000Y-102879741D01*
X171221000Y-103120259D01*
X171174078Y-103356152D01*
X171082037Y-103578359D01*
X170948413Y-103778342D01*
X170778342Y-103948413D01*
X170578359Y-104082037D01*
X170448194Y-104135953D01*
X170356153Y-104174078D01*
X170120259Y-104221000D01*
X169879741Y-104221000D01*
X169643847Y-104174078D01*
X169551806Y-104135953D01*
X169421641Y-104082037D01*
X169221658Y-103948413D01*
X169051587Y-103778342D01*
X168917963Y-103578359D01*
X168825922Y-103356152D01*
X168779000Y-103120259D01*
X168779000Y-102879741D01*
X168825922Y-102643847D01*
X168901269Y-102461945D01*
X168917963Y-102421641D01*
X169051587Y-102221658D01*
X169221658Y-102051587D01*
X169421641Y-101917963D01*
X169566586Y-101857925D01*
X169643847Y-101825922D01*
X169879741Y-101779000D01*
X170120259Y-101779000D01*
X170356153Y-101825922D01*
G37*
G36*
X127705997Y-99253051D02*
G01*
X127739652Y-99263261D01*
X127770665Y-99279838D01*
X127797851Y-99302149D01*
X127820162Y-99329335D01*
X127836739Y-99360348D01*
X127846949Y-99394003D01*
X127851000Y-99435138D01*
X127851000Y-102489862D01*
X127846949Y-102530997D01*
X127836739Y-102564652D01*
X127820162Y-102595665D01*
X127797851Y-102622851D01*
X127770665Y-102645162D01*
X127739652Y-102661739D01*
X127705997Y-102671949D01*
X127664862Y-102676000D01*
X126335138Y-102676000D01*
X126294003Y-102671949D01*
X126260348Y-102661739D01*
X126229335Y-102645162D01*
X126202149Y-102622851D01*
X126179838Y-102595665D01*
X126163261Y-102564652D01*
X126153051Y-102530997D01*
X126149000Y-102489862D01*
X126149000Y-99435138D01*
X126153051Y-99394003D01*
X126163261Y-99360348D01*
X126179838Y-99329335D01*
X126202149Y-99302149D01*
X126229335Y-99279838D01*
X126260348Y-99263261D01*
X126294003Y-99253051D01*
X126335138Y-99249000D01*
X127664862Y-99249000D01*
X127705997Y-99253051D01*
G37*
G36*
X119109903Y-99452075D02*
G01*
X119193141Y-99486553D01*
X119337571Y-99546378D01*
X119542466Y-99683285D01*
X119716715Y-99857534D01*
X119846583Y-100051895D01*
X119853623Y-100062431D01*
X119947925Y-100290097D01*
X119996000Y-100531786D01*
X119996000Y-100778214D01*
X119947925Y-101019903D01*
X119876666Y-101191939D01*
X119853622Y-101247571D01*
X119716715Y-101452466D01*
X119542466Y-101626715D01*
X119337571Y-101763622D01*
X119337570Y-101763623D01*
X119337569Y-101763623D01*
X119109903Y-101857925D01*
X118868214Y-101906000D01*
X118621786Y-101906000D01*
X118380097Y-101857925D01*
X118152431Y-101763623D01*
X118152430Y-101763623D01*
X118152429Y-101763622D01*
X117947534Y-101626715D01*
X117773285Y-101452466D01*
X117636378Y-101247571D01*
X117613335Y-101191939D01*
X117542075Y-101019903D01*
X117494000Y-100778214D01*
X117494000Y-100531786D01*
X117542075Y-100290097D01*
X117636377Y-100062431D01*
X117643417Y-100051895D01*
X117773285Y-99857534D01*
X117947534Y-99683285D01*
X118152429Y-99546378D01*
X118296860Y-99486553D01*
X118380097Y-99452075D01*
X118621786Y-99404000D01*
X118868214Y-99404000D01*
X119109903Y-99452075D01*
G37*
G36*
X140775562Y-99788181D02*
G01*
X140810481Y-99798774D01*
X140842663Y-99815976D01*
X140870873Y-99839127D01*
X140894024Y-99867337D01*
X140911226Y-99899519D01*
X140921819Y-99934438D01*
X140926000Y-99976895D01*
X140926000Y-101118105D01*
X140921819Y-101160562D01*
X140911226Y-101195481D01*
X140894024Y-101227663D01*
X140870873Y-101255873D01*
X140842663Y-101279024D01*
X140810481Y-101296226D01*
X140775562Y-101306819D01*
X140733105Y-101311000D01*
X139266895Y-101311000D01*
X139224438Y-101306819D01*
X139189519Y-101296226D01*
X139157337Y-101279024D01*
X139129127Y-101255873D01*
X139105976Y-101227663D01*
X139088774Y-101195481D01*
X139078181Y-101160562D01*
X139074000Y-101118105D01*
X139074000Y-99976895D01*
X139078181Y-99934438D01*
X139088774Y-99899519D01*
X139105976Y-99867337D01*
X139129127Y-99839127D01*
X139157337Y-99815976D01*
X139189519Y-99798774D01*
X139224438Y-99788181D01*
X139266895Y-99784000D01*
X140733105Y-99784000D01*
X140775562Y-99788181D01*
G37*
G36*
X137281000Y-101111000D02*
G01*
X135679000Y-101111000D01*
X135679000Y-100009000D01*
X137281000Y-100009000D01*
X137281000Y-101111000D01*
G37*
G36*
X132830066Y-97853447D02*
G01*
X132845611Y-97872389D01*
X132864553Y-97887934D01*
X132886164Y-97899485D01*
X132909613Y-97906598D01*
X132933999Y-97909000D01*
X134400201Y-97909000D01*
X134424587Y-97906598D01*
X134448036Y-97899485D01*
X134469647Y-97887934D01*
X134488589Y-97872389D01*
X134504134Y-97853447D01*
X134506525Y-97848974D01*
X134559996Y-97886404D01*
X134581351Y-97898421D01*
X134604640Y-97906041D01*
X134631678Y-97909000D01*
X134642644Y-97909000D01*
X134647015Y-97923410D01*
X134658566Y-97945021D01*
X134674111Y-97963963D01*
X134690817Y-97977978D01*
X135417140Y-98486404D01*
X135438495Y-98498421D01*
X135461784Y-98506041D01*
X135488822Y-98509000D01*
X137284500Y-98509000D01*
X137284500Y-99611000D01*
X135488822Y-99611000D01*
X135464436Y-99613402D01*
X135440987Y-99620515D01*
X135417140Y-99633596D01*
X134690817Y-100142022D01*
X134672216Y-100157974D01*
X134657085Y-100177248D01*
X134646005Y-100199104D01*
X134642676Y-100211000D01*
X134631678Y-100211000D01*
X134607292Y-100213402D01*
X134583843Y-100220515D01*
X134559996Y-100233596D01*
X134506525Y-100271026D01*
X134504134Y-100266553D01*
X134488589Y-100247611D01*
X134469647Y-100232066D01*
X134448036Y-100220515D01*
X134424587Y-100213402D01*
X134400201Y-100211000D01*
X132933999Y-100211000D01*
X132909613Y-100213402D01*
X132886164Y-100220515D01*
X132864553Y-100232066D01*
X132845611Y-100247611D01*
X132830066Y-100266553D01*
X132827449Y-100271450D01*
X132774224Y-100233879D01*
X132752916Y-100221778D01*
X132729657Y-100214067D01*
X132702139Y-100211000D01*
X132690765Y-100211000D01*
X132685985Y-100195243D01*
X132674434Y-100173632D01*
X132658889Y-100154690D01*
X132642586Y-100140958D01*
X131857000Y-99586426D01*
X131857000Y-98533574D01*
X132642586Y-97979042D01*
X132661123Y-97963017D01*
X132676178Y-97943683D01*
X132687172Y-97921784D01*
X132690695Y-97909000D01*
X132702139Y-97909000D01*
X132726525Y-97906598D01*
X132749974Y-97899485D01*
X132774224Y-97886121D01*
X132827449Y-97848550D01*
X132830066Y-97853447D01*
G37*
G36*
X170238205Y-96802461D02*
G01*
X170356153Y-96825922D01*
X170392496Y-96840976D01*
X170578359Y-96917963D01*
X170778342Y-97051587D01*
X170948413Y-97221658D01*
X171082037Y-97421641D01*
X171174078Y-97643848D01*
X171221000Y-97879741D01*
X171221000Y-98120259D01*
X171214522Y-98152827D01*
X171174078Y-98356153D01*
X171152146Y-98409101D01*
X171082037Y-98578359D01*
X170948413Y-98778342D01*
X170778342Y-98948413D01*
X170578359Y-99082037D01*
X170448194Y-99135953D01*
X170356153Y-99174078D01*
X170120259Y-99221000D01*
X169879741Y-99221000D01*
X169643847Y-99174078D01*
X169551806Y-99135953D01*
X169421641Y-99082037D01*
X169221658Y-98948413D01*
X169051587Y-98778342D01*
X168917963Y-98578359D01*
X168847854Y-98409101D01*
X168825922Y-98356153D01*
X168785478Y-98152827D01*
X168779000Y-98120259D01*
X168779000Y-97879741D01*
X168825922Y-97643848D01*
X168917963Y-97421641D01*
X169051587Y-97221658D01*
X169221658Y-97051587D01*
X169421641Y-96917963D01*
X169607504Y-96840976D01*
X169643847Y-96825922D01*
X169879741Y-96779000D01*
X170120259Y-96779000D01*
X170238205Y-96802461D01*
G37*
G36*
X164030674Y-97170465D02*
G01*
X164068367Y-97181899D01*
X164103103Y-97200466D01*
X164133548Y-97225452D01*
X164158534Y-97255897D01*
X164177101Y-97290633D01*
X164188535Y-97328326D01*
X164193000Y-97373661D01*
X164193000Y-98460339D01*
X164188535Y-98505674D01*
X164177101Y-98543367D01*
X164158534Y-98578103D01*
X164133548Y-98608548D01*
X164103103Y-98633534D01*
X164068367Y-98652101D01*
X164030674Y-98663535D01*
X163985339Y-98668000D01*
X163148661Y-98668000D01*
X163103326Y-98663535D01*
X163065633Y-98652101D01*
X163030897Y-98633534D01*
X163000452Y-98608548D01*
X162975466Y-98578103D01*
X162956899Y-98543367D01*
X162945465Y-98505674D01*
X162941000Y-98460339D01*
X162941000Y-97373661D01*
X162945465Y-97328326D01*
X162956899Y-97290633D01*
X162975466Y-97255897D01*
X163000452Y-97225452D01*
X163030897Y-97200466D01*
X163065633Y-97181899D01*
X163103326Y-97170465D01*
X163148661Y-97166000D01*
X163985339Y-97166000D01*
X164030674Y-97170465D01*
G37*
G36*
X166080674Y-97170465D02*
G01*
X166118367Y-97181899D01*
X166153103Y-97200466D01*
X166183548Y-97225452D01*
X166208534Y-97255897D01*
X166227101Y-97290633D01*
X166238535Y-97328326D01*
X166243000Y-97373661D01*
X166243000Y-98460339D01*
X166238535Y-98505674D01*
X166227101Y-98543367D01*
X166208534Y-98578103D01*
X166183548Y-98608548D01*
X166153103Y-98633534D01*
X166118367Y-98652101D01*
X166080674Y-98663535D01*
X166035339Y-98668000D01*
X165198661Y-98668000D01*
X165153326Y-98663535D01*
X165115633Y-98652101D01*
X165080897Y-98633534D01*
X165050452Y-98608548D01*
X165025466Y-98578103D01*
X165006899Y-98543367D01*
X164995465Y-98505674D01*
X164991000Y-98460339D01*
X164991000Y-97373661D01*
X164995465Y-97328326D01*
X165006899Y-97290633D01*
X165025466Y-97255897D01*
X165050452Y-97225452D01*
X165080897Y-97200466D01*
X165115633Y-97181899D01*
X165153326Y-97170465D01*
X165198661Y-97166000D01*
X166035339Y-97166000D01*
X166080674Y-97170465D01*
G37*
G36*
X156544674Y-97304465D02*
G01*
X156582367Y-97315899D01*
X156617103Y-97334466D01*
X156647548Y-97359452D01*
X156672534Y-97389897D01*
X156691101Y-97424633D01*
X156702535Y-97462326D01*
X156707000Y-97507661D01*
X156707000Y-98344339D01*
X156702535Y-98389674D01*
X156691101Y-98427367D01*
X156672534Y-98462103D01*
X156647548Y-98492548D01*
X156617103Y-98517534D01*
X156582367Y-98536101D01*
X156544674Y-98547535D01*
X156499339Y-98552000D01*
X155412661Y-98552000D01*
X155367326Y-98547535D01*
X155329633Y-98536101D01*
X155294897Y-98517534D01*
X155264452Y-98492548D01*
X155239466Y-98462103D01*
X155220899Y-98427367D01*
X155209465Y-98389674D01*
X155205000Y-98344339D01*
X155205000Y-97507661D01*
X155209465Y-97462326D01*
X155220899Y-97424633D01*
X155239466Y-97389897D01*
X155264452Y-97359452D01*
X155294897Y-97334466D01*
X155329633Y-97315899D01*
X155367326Y-97304465D01*
X155412661Y-97300000D01*
X156499339Y-97300000D01*
X156544674Y-97304465D01*
G37*
G36*
X145114674Y-97177465D02*
G01*
X145152367Y-97188899D01*
X145187103Y-97207466D01*
X145217548Y-97232452D01*
X145242534Y-97262897D01*
X145261101Y-97297633D01*
X145272535Y-97335326D01*
X145277000Y-97380661D01*
X145277000Y-98217339D01*
X145272535Y-98262674D01*
X145261101Y-98300367D01*
X145242534Y-98335103D01*
X145217548Y-98365548D01*
X145187103Y-98390534D01*
X145152367Y-98409101D01*
X145114674Y-98420535D01*
X145069339Y-98425000D01*
X143982661Y-98425000D01*
X143937326Y-98420535D01*
X143899633Y-98409101D01*
X143864897Y-98390534D01*
X143834452Y-98365548D01*
X143809466Y-98335103D01*
X143790899Y-98300367D01*
X143779465Y-98262674D01*
X143775000Y-98217339D01*
X143775000Y-97380661D01*
X143779465Y-97335326D01*
X143790899Y-97297633D01*
X143809466Y-97262897D01*
X143834452Y-97232452D01*
X143864897Y-97207466D01*
X143899633Y-97188899D01*
X143937326Y-97177465D01*
X143982661Y-97173000D01*
X145069339Y-97173000D01*
X145114674Y-97177465D01*
G37*
G36*
X119996000Y-98406000D02*
G01*
X117494000Y-98406000D01*
X117494000Y-95904000D01*
X119996000Y-95904000D01*
X119996000Y-98406000D01*
G37*
G36*
X140775562Y-96813181D02*
G01*
X140810481Y-96823774D01*
X140842663Y-96840976D01*
X140870873Y-96864127D01*
X140894024Y-96892337D01*
X140911226Y-96924519D01*
X140921819Y-96959438D01*
X140926000Y-97001895D01*
X140926000Y-98143105D01*
X140921819Y-98185562D01*
X140911226Y-98220481D01*
X140894024Y-98252663D01*
X140870873Y-98280873D01*
X140842663Y-98304024D01*
X140810481Y-98321226D01*
X140775562Y-98331819D01*
X140733105Y-98336000D01*
X139266895Y-98336000D01*
X139224438Y-98331819D01*
X139189519Y-98321226D01*
X139157337Y-98304024D01*
X139129127Y-98280873D01*
X139105976Y-98252663D01*
X139088774Y-98220481D01*
X139078181Y-98185562D01*
X139074000Y-98143105D01*
X139074000Y-97001895D01*
X139078181Y-96959438D01*
X139088774Y-96924519D01*
X139105976Y-96892337D01*
X139129127Y-96864127D01*
X139157337Y-96840976D01*
X139189519Y-96823774D01*
X139224438Y-96813181D01*
X139266895Y-96809000D01*
X140733105Y-96809000D01*
X140775562Y-96813181D01*
G37*
G36*
X137281000Y-98111000D02*
G01*
X135679000Y-98111000D01*
X135679000Y-97009000D01*
X137281000Y-97009000D01*
X137281000Y-98111000D01*
G37*
G36*
X127705997Y-94178051D02*
G01*
X127739652Y-94188261D01*
X127770665Y-94204838D01*
X127797851Y-94227149D01*
X127820162Y-94254335D01*
X127836739Y-94285348D01*
X127846949Y-94319003D01*
X127851000Y-94360138D01*
X127851000Y-97414862D01*
X127846949Y-97455997D01*
X127836739Y-97489652D01*
X127820162Y-97520665D01*
X127797851Y-97547851D01*
X127770665Y-97570162D01*
X127739652Y-97586739D01*
X127705997Y-97596949D01*
X127664862Y-97601000D01*
X126335138Y-97601000D01*
X126294003Y-97596949D01*
X126260348Y-97586739D01*
X126229335Y-97570162D01*
X126202149Y-97547851D01*
X126179838Y-97520665D01*
X126163261Y-97489652D01*
X126153051Y-97455997D01*
X126149000Y-97414862D01*
X126149000Y-94360138D01*
X126153051Y-94319003D01*
X126163261Y-94285348D01*
X126179838Y-94254335D01*
X126202149Y-94227149D01*
X126229335Y-94204838D01*
X126260348Y-94188261D01*
X126294003Y-94178051D01*
X126335138Y-94174000D01*
X127664862Y-94174000D01*
X127705997Y-94178051D01*
G37*
G36*
X156544674Y-95254465D02*
G01*
X156582367Y-95265899D01*
X156617103Y-95284466D01*
X156647548Y-95309452D01*
X156672534Y-95339897D01*
X156691101Y-95374633D01*
X156702535Y-95412326D01*
X156707000Y-95457661D01*
X156707000Y-96294339D01*
X156702535Y-96339674D01*
X156691101Y-96377367D01*
X156672534Y-96412103D01*
X156647548Y-96442548D01*
X156617103Y-96467534D01*
X156582367Y-96486101D01*
X156544674Y-96497535D01*
X156499339Y-96502000D01*
X155412661Y-96502000D01*
X155367326Y-96497535D01*
X155329633Y-96486101D01*
X155294897Y-96467534D01*
X155264452Y-96442548D01*
X155239466Y-96412103D01*
X155220899Y-96377367D01*
X155209465Y-96339674D01*
X155205000Y-96294339D01*
X155205000Y-95457661D01*
X155209465Y-95412326D01*
X155220899Y-95374633D01*
X155239466Y-95339897D01*
X155264452Y-95309452D01*
X155294897Y-95284466D01*
X155329633Y-95265899D01*
X155367326Y-95254465D01*
X155412661Y-95250000D01*
X156499339Y-95250000D01*
X156544674Y-95254465D01*
G37*
G36*
X145114674Y-95127465D02*
G01*
X145152367Y-95138899D01*
X145187103Y-95157466D01*
X145217548Y-95182452D01*
X145242534Y-95212897D01*
X145261101Y-95247633D01*
X145272535Y-95285326D01*
X145277000Y-95330661D01*
X145277000Y-96167339D01*
X145272535Y-96212674D01*
X145261101Y-96250367D01*
X145242534Y-96285103D01*
X145217548Y-96315548D01*
X145187103Y-96340534D01*
X145152367Y-96359101D01*
X145114674Y-96370535D01*
X145069339Y-96375000D01*
X143982661Y-96375000D01*
X143937326Y-96370535D01*
X143899633Y-96359101D01*
X143864897Y-96340534D01*
X143834452Y-96315548D01*
X143809466Y-96285103D01*
X143790899Y-96250367D01*
X143779465Y-96212674D01*
X143775000Y-96167339D01*
X143775000Y-95330661D01*
X143779465Y-95285326D01*
X143790899Y-95247633D01*
X143809466Y-95212897D01*
X143834452Y-95182452D01*
X143864897Y-95157466D01*
X143899633Y-95138899D01*
X143937326Y-95127465D01*
X143982661Y-95123000D01*
X145069339Y-95123000D01*
X145114674Y-95127465D01*
G37*
G36*
X150575674Y-93367465D02*
G01*
X150613367Y-93378899D01*
X150648103Y-93397466D01*
X150678548Y-93422452D01*
X150703534Y-93452897D01*
X150722101Y-93487633D01*
X150733535Y-93525326D01*
X150738000Y-93570661D01*
X150738000Y-94407339D01*
X150733535Y-94452674D01*
X150722101Y-94490367D01*
X150703534Y-94525103D01*
X150678548Y-94555548D01*
X150648103Y-94580534D01*
X150613367Y-94599101D01*
X150575674Y-94610535D01*
X150530339Y-94615000D01*
X149443661Y-94615000D01*
X149398326Y-94610535D01*
X149360633Y-94599101D01*
X149325897Y-94580534D01*
X149295452Y-94555548D01*
X149270466Y-94525103D01*
X149251899Y-94490367D01*
X149240465Y-94452674D01*
X149236000Y-94407339D01*
X149236000Y-93570661D01*
X149240465Y-93525326D01*
X149251899Y-93487633D01*
X149270466Y-93452897D01*
X149295452Y-93422452D01*
X149325897Y-93397466D01*
X149360633Y-93378899D01*
X149398326Y-93367465D01*
X149443661Y-93363000D01*
X150530339Y-93363000D01*
X150575674Y-93367465D01*
G37*
G36*
X156544674Y-93240465D02*
G01*
X156582367Y-93251899D01*
X156617103Y-93270466D01*
X156647548Y-93295452D01*
X156672534Y-93325897D01*
X156691101Y-93360633D01*
X156702535Y-93398326D01*
X156707000Y-93443661D01*
X156707000Y-94280339D01*
X156702535Y-94325674D01*
X156691101Y-94363367D01*
X156672534Y-94398103D01*
X156647548Y-94428548D01*
X156617103Y-94453534D01*
X156582367Y-94472101D01*
X156544674Y-94483535D01*
X156499339Y-94488000D01*
X155412661Y-94488000D01*
X155367326Y-94483535D01*
X155329633Y-94472101D01*
X155294897Y-94453534D01*
X155264452Y-94428548D01*
X155239466Y-94398103D01*
X155220899Y-94363367D01*
X155209465Y-94325674D01*
X155205000Y-94280339D01*
X155205000Y-93443661D01*
X155209465Y-93398326D01*
X155220899Y-93360633D01*
X155239466Y-93325897D01*
X155264452Y-93295452D01*
X155294897Y-93270466D01*
X155329633Y-93251899D01*
X155367326Y-93240465D01*
X155412661Y-93236000D01*
X156499339Y-93236000D01*
X156544674Y-93240465D01*
G37*
G36*
X145114674Y-93113465D02*
G01*
X145152367Y-93124899D01*
X145187103Y-93143466D01*
X145217548Y-93168452D01*
X145242534Y-93198897D01*
X145261101Y-93233633D01*
X145272535Y-93271326D01*
X145277000Y-93316661D01*
X145277000Y-94153339D01*
X145272535Y-94198674D01*
X145261101Y-94236367D01*
X145242534Y-94271103D01*
X145217548Y-94301548D01*
X145187103Y-94326534D01*
X145152367Y-94345101D01*
X145114674Y-94356535D01*
X145069339Y-94361000D01*
X143982661Y-94361000D01*
X143937326Y-94356535D01*
X143899633Y-94345101D01*
X143864897Y-94326534D01*
X143834452Y-94301548D01*
X143809466Y-94271103D01*
X143790899Y-94236367D01*
X143779465Y-94198674D01*
X143775000Y-94153339D01*
X143775000Y-93316661D01*
X143779465Y-93271326D01*
X143790899Y-93233633D01*
X143809466Y-93198897D01*
X143834452Y-93168452D01*
X143864897Y-93143466D01*
X143899633Y-93124899D01*
X143937326Y-93113465D01*
X143982661Y-93109000D01*
X145069339Y-93109000D01*
X145114674Y-93113465D01*
G37*
G36*
X170356153Y-91825922D02*
G01*
X170448194Y-91864047D01*
X170578359Y-91917963D01*
X170778342Y-92051587D01*
X170948413Y-92221658D01*
X171082037Y-92421641D01*
X171127142Y-92530534D01*
X171174078Y-92643847D01*
X171221000Y-92879742D01*
X171221000Y-93120258D01*
X171174078Y-93356153D01*
X171169392Y-93367465D01*
X171082037Y-93578359D01*
X170948413Y-93778342D01*
X170778342Y-93948413D01*
X170578359Y-94082037D01*
X170448194Y-94135953D01*
X170356153Y-94174078D01*
X170261110Y-94192983D01*
X170120259Y-94221000D01*
X169879741Y-94221000D01*
X169738890Y-94192983D01*
X169643847Y-94174078D01*
X169551806Y-94135953D01*
X169421641Y-94082037D01*
X169221658Y-93948413D01*
X169051587Y-93778342D01*
X168917963Y-93578359D01*
X168830608Y-93367465D01*
X168825922Y-93356153D01*
X168779000Y-93120258D01*
X168779000Y-92879742D01*
X168825922Y-92643847D01*
X168872858Y-92530534D01*
X168917963Y-92421641D01*
X169051587Y-92221658D01*
X169221658Y-92051587D01*
X169421641Y-91917963D01*
X169551806Y-91864047D01*
X169643847Y-91825922D01*
X169761795Y-91802461D01*
X169879741Y-91779000D01*
X170120259Y-91779000D01*
X170356153Y-91825922D01*
G37*
G36*
X150575674Y-91317465D02*
G01*
X150613367Y-91328899D01*
X150648103Y-91347466D01*
X150678548Y-91372452D01*
X150703534Y-91402897D01*
X150722101Y-91437633D01*
X150733535Y-91475326D01*
X150738000Y-91520661D01*
X150738000Y-92357339D01*
X150733535Y-92402674D01*
X150722101Y-92440367D01*
X150703534Y-92475103D01*
X150678548Y-92505548D01*
X150648103Y-92530534D01*
X150613367Y-92549101D01*
X150575674Y-92560535D01*
X150530339Y-92565000D01*
X149443661Y-92565000D01*
X149398326Y-92560535D01*
X149360633Y-92549101D01*
X149325897Y-92530534D01*
X149295452Y-92505548D01*
X149270466Y-92475103D01*
X149251899Y-92440367D01*
X149240465Y-92402674D01*
X149236000Y-92357339D01*
X149236000Y-91520661D01*
X149240465Y-91475326D01*
X149251899Y-91437633D01*
X149270466Y-91402897D01*
X149295452Y-91372452D01*
X149325897Y-91347466D01*
X149360633Y-91328899D01*
X149398326Y-91317465D01*
X149443661Y-91313000D01*
X150530339Y-91313000D01*
X150575674Y-91317465D01*
G37*
G36*
X156544674Y-91190465D02*
G01*
X156582367Y-91201899D01*
X156617103Y-91220466D01*
X156647548Y-91245452D01*
X156672534Y-91275897D01*
X156691101Y-91310633D01*
X156702535Y-91348326D01*
X156707000Y-91393661D01*
X156707000Y-92230339D01*
X156702535Y-92275674D01*
X156691101Y-92313367D01*
X156672534Y-92348103D01*
X156647548Y-92378548D01*
X156617103Y-92403534D01*
X156582367Y-92422101D01*
X156544674Y-92433535D01*
X156499339Y-92438000D01*
X155412661Y-92438000D01*
X155367326Y-92433535D01*
X155329633Y-92422101D01*
X155294897Y-92403534D01*
X155264452Y-92378548D01*
X155239466Y-92348103D01*
X155220899Y-92313367D01*
X155209465Y-92275674D01*
X155205000Y-92230339D01*
X155205000Y-91393661D01*
X155209465Y-91348326D01*
X155220899Y-91310633D01*
X155239466Y-91275897D01*
X155264452Y-91245452D01*
X155294897Y-91220466D01*
X155329633Y-91201899D01*
X155367326Y-91190465D01*
X155412661Y-91186000D01*
X156499339Y-91186000D01*
X156544674Y-91190465D01*
G37*
G36*
X145114674Y-91063465D02*
G01*
X145152367Y-91074899D01*
X145187103Y-91093466D01*
X145217548Y-91118452D01*
X145242534Y-91148897D01*
X145261101Y-91183633D01*
X145272535Y-91221326D01*
X145277000Y-91266661D01*
X145277000Y-92103339D01*
X145272535Y-92148674D01*
X145261101Y-92186367D01*
X145242534Y-92221103D01*
X145217548Y-92251548D01*
X145187103Y-92276534D01*
X145152367Y-92295101D01*
X145114674Y-92306535D01*
X145069339Y-92311000D01*
X143982661Y-92311000D01*
X143937326Y-92306535D01*
X143899633Y-92295101D01*
X143864897Y-92276534D01*
X143834452Y-92251548D01*
X143809466Y-92221103D01*
X143790899Y-92186367D01*
X143779465Y-92148674D01*
X143775000Y-92103339D01*
X143775000Y-91266661D01*
X143779465Y-91221326D01*
X143790899Y-91183633D01*
X143809466Y-91148897D01*
X143834452Y-91118452D01*
X143864897Y-91093466D01*
X143899633Y-91074899D01*
X143937326Y-91063465D01*
X143982661Y-91059000D01*
X145069339Y-91059000D01*
X145114674Y-91063465D01*
G37*
G36*
X122823241Y-85604760D02*
G01*
X123087305Y-85714139D01*
X123324958Y-85872934D01*
X123527066Y-86075042D01*
X123685861Y-86312695D01*
X123795240Y-86576759D01*
X123851000Y-86857088D01*
X123851000Y-87142912D01*
X123795240Y-87423241D01*
X123685861Y-87687305D01*
X123527066Y-87924958D01*
X123324958Y-88127066D01*
X123087305Y-88285861D01*
X122823241Y-88395240D01*
X122542912Y-88451000D01*
X122257088Y-88451000D01*
X121976759Y-88395240D01*
X121712695Y-88285861D01*
X121475042Y-88127066D01*
X121428535Y-88080559D01*
X121409593Y-88065014D01*
X121387982Y-88053463D01*
X121364533Y-88046350D01*
X121340147Y-88043948D01*
X121315761Y-88046350D01*
X121292312Y-88053463D01*
X121270701Y-88065014D01*
X121251759Y-88080559D01*
X121236214Y-88099501D01*
X121224663Y-88121112D01*
X121217550Y-88144561D01*
X121215148Y-88168947D01*
X121217550Y-88193333D01*
X121224663Y-88216782D01*
X121236214Y-88238393D01*
X121285861Y-88312695D01*
X121395240Y-88576759D01*
X121451000Y-88857088D01*
X121451000Y-89142912D01*
X121395240Y-89423241D01*
X121285861Y-89687305D01*
X121127066Y-89924958D01*
X120924958Y-90127066D01*
X120687305Y-90285861D01*
X120423241Y-90395240D01*
X120142912Y-90451000D01*
X119857088Y-90451000D01*
X119576759Y-90395240D01*
X119312695Y-90285861D01*
X119075042Y-90127066D01*
X118872934Y-89924958D01*
X118714139Y-89687305D01*
X118604760Y-89423241D01*
X118549000Y-89142912D01*
X118549000Y-88857088D01*
X118604760Y-88576759D01*
X118714139Y-88312695D01*
X118872934Y-88075042D01*
X119075042Y-87872934D01*
X119312695Y-87714139D01*
X119576759Y-87604760D01*
X119857088Y-87549000D01*
X120142912Y-87549000D01*
X120423241Y-87604760D01*
X120687305Y-87714139D01*
X120924958Y-87872934D01*
X120971465Y-87919441D01*
X120990407Y-87934986D01*
X121012018Y-87946537D01*
X121035467Y-87953650D01*
X121059853Y-87956052D01*
X121084239Y-87953650D01*
X121107688Y-87946537D01*
X121129299Y-87934986D01*
X121148241Y-87919441D01*
X121163786Y-87900499D01*
X121175337Y-87878888D01*
X121182450Y-87855439D01*
X121184852Y-87831053D01*
X121182450Y-87806667D01*
X121175337Y-87783218D01*
X121163786Y-87761607D01*
X121114139Y-87687305D01*
X121004760Y-87423241D01*
X120949000Y-87142912D01*
X120949000Y-86857088D01*
X121004760Y-86576759D01*
X121114139Y-86312695D01*
X121272934Y-86075042D01*
X121475042Y-85872934D01*
X121712695Y-85714139D01*
X121976759Y-85604760D01*
X122257088Y-85549000D01*
X122542912Y-85549000D01*
X122823241Y-85604760D01*
G37*
G36*
X141431674Y-89176465D02*
G01*
X141469367Y-89187899D01*
X141504103Y-89206466D01*
X141534548Y-89231452D01*
X141559534Y-89261897D01*
X141578101Y-89296633D01*
X141589535Y-89334326D01*
X141594000Y-89379661D01*
X141594000Y-90216339D01*
X141589535Y-90261674D01*
X141578101Y-90299367D01*
X141559534Y-90334103D01*
X141534548Y-90364548D01*
X141504103Y-90389534D01*
X141469367Y-90408101D01*
X141431674Y-90419535D01*
X141386339Y-90424000D01*
X140299661Y-90424000D01*
X140254326Y-90419535D01*
X140216633Y-90408101D01*
X140181897Y-90389534D01*
X140151452Y-90364548D01*
X140126466Y-90334103D01*
X140107899Y-90299367D01*
X140096465Y-90261674D01*
X140092000Y-90216339D01*
X140092000Y-89379661D01*
X140096465Y-89334326D01*
X140107899Y-89296633D01*
X140126466Y-89261897D01*
X140151452Y-89231452D01*
X140181897Y-89206466D01*
X140216633Y-89187899D01*
X140254326Y-89176465D01*
X140299661Y-89172000D01*
X141386339Y-89172000D01*
X141431674Y-89176465D01*
G37*
G36*
X156544674Y-88033465D02*
G01*
X156582367Y-88044899D01*
X156617103Y-88063466D01*
X156647548Y-88088452D01*
X156672534Y-88118897D01*
X156691101Y-88153633D01*
X156702535Y-88191326D01*
X156707000Y-88236661D01*
X156707000Y-89073339D01*
X156702535Y-89118674D01*
X156691101Y-89156367D01*
X156672534Y-89191103D01*
X156647548Y-89221548D01*
X156617103Y-89246534D01*
X156582367Y-89265101D01*
X156544674Y-89276535D01*
X156499339Y-89281000D01*
X155412661Y-89281000D01*
X155367326Y-89276535D01*
X155329633Y-89265101D01*
X155294897Y-89246534D01*
X155264452Y-89221548D01*
X155239466Y-89191103D01*
X155220899Y-89156367D01*
X155209465Y-89118674D01*
X155205000Y-89073339D01*
X155205000Y-88236661D01*
X155209465Y-88191326D01*
X155220899Y-88153633D01*
X155239466Y-88118897D01*
X155264452Y-88088452D01*
X155294897Y-88063466D01*
X155329633Y-88044899D01*
X155367326Y-88033465D01*
X155412661Y-88029000D01*
X156499339Y-88029000D01*
X156544674Y-88033465D01*
G37*
G36*
X147624928Y-86541764D02*
G01*
X147646009Y-86548160D01*
X147665445Y-86558548D01*
X147682476Y-86572524D01*
X147696452Y-86589555D01*
X147706840Y-86608991D01*
X147713236Y-86630072D01*
X147716000Y-86658140D01*
X147716000Y-88471860D01*
X147713236Y-88499928D01*
X147706840Y-88521009D01*
X147696452Y-88540445D01*
X147682476Y-88557476D01*
X147665445Y-88571452D01*
X147646009Y-88581840D01*
X147624928Y-88588236D01*
X147596860Y-88591000D01*
X147133140Y-88591000D01*
X147105072Y-88588236D01*
X147083991Y-88581840D01*
X147064555Y-88571452D01*
X147047524Y-88557476D01*
X147033548Y-88540445D01*
X147023160Y-88521009D01*
X147016764Y-88499928D01*
X147014000Y-88471860D01*
X147014000Y-86658140D01*
X147016764Y-86630072D01*
X147023160Y-86608991D01*
X147033548Y-86589555D01*
X147047524Y-86572524D01*
X147064555Y-86558548D01*
X147083991Y-86548160D01*
X147105072Y-86541764D01*
X147133140Y-86539000D01*
X147596860Y-86539000D01*
X147624928Y-86541764D01*
G37*
G36*
X150164928Y-86541764D02*
G01*
X150186009Y-86548160D01*
X150205445Y-86558548D01*
X150222476Y-86572524D01*
X150236452Y-86589555D01*
X150246840Y-86608991D01*
X150253236Y-86630072D01*
X150256000Y-86658140D01*
X150256000Y-88471860D01*
X150253236Y-88499928D01*
X150246840Y-88521009D01*
X150236452Y-88540445D01*
X150222476Y-88557476D01*
X150205445Y-88571452D01*
X150186009Y-88581840D01*
X150164928Y-88588236D01*
X150136860Y-88591000D01*
X149673140Y-88591000D01*
X149645072Y-88588236D01*
X149623991Y-88581840D01*
X149604555Y-88571452D01*
X149587524Y-88557476D01*
X149573548Y-88540445D01*
X149563160Y-88521009D01*
X149556764Y-88499928D01*
X149554000Y-88471860D01*
X149554000Y-86658140D01*
X149556764Y-86630072D01*
X149563160Y-86608991D01*
X149573548Y-86589555D01*
X149587524Y-86572524D01*
X149604555Y-86558548D01*
X149623991Y-86548160D01*
X149645072Y-86541764D01*
X149673140Y-86539000D01*
X150136860Y-86539000D01*
X150164928Y-86541764D01*
G37*
G36*
X146354928Y-86541764D02*
G01*
X146376009Y-86548160D01*
X146395445Y-86558548D01*
X146412476Y-86572524D01*
X146426452Y-86589555D01*
X146436840Y-86608991D01*
X146443236Y-86630072D01*
X146446000Y-86658140D01*
X146446000Y-88471860D01*
X146443236Y-88499928D01*
X146436840Y-88521009D01*
X146426452Y-88540445D01*
X146412476Y-88557476D01*
X146395445Y-88571452D01*
X146376009Y-88581840D01*
X146354928Y-88588236D01*
X146326860Y-88591000D01*
X145863140Y-88591000D01*
X145835072Y-88588236D01*
X145813991Y-88581840D01*
X145794555Y-88571452D01*
X145777524Y-88557476D01*
X145763548Y-88540445D01*
X145753160Y-88521009D01*
X145746764Y-88499928D01*
X145744000Y-88471860D01*
X145744000Y-86658140D01*
X145746764Y-86630072D01*
X145753160Y-86608991D01*
X145763548Y-86589555D01*
X145777524Y-86572524D01*
X145794555Y-86558548D01*
X145813991Y-86548160D01*
X145835072Y-86541764D01*
X145863140Y-86539000D01*
X146326860Y-86539000D01*
X146354928Y-86541764D01*
G37*
G36*
X148894928Y-86541764D02*
G01*
X148916009Y-86548160D01*
X148935445Y-86558548D01*
X148952476Y-86572524D01*
X148966452Y-86589555D01*
X148976840Y-86608991D01*
X148983236Y-86630072D01*
X148986000Y-86658140D01*
X148986000Y-88471860D01*
X148983236Y-88499928D01*
X148976840Y-88521009D01*
X148966452Y-88540445D01*
X148952476Y-88557476D01*
X148935445Y-88571452D01*
X148916009Y-88581840D01*
X148894928Y-88588236D01*
X148866860Y-88591000D01*
X148403140Y-88591000D01*
X148375072Y-88588236D01*
X148353991Y-88581840D01*
X148334555Y-88571452D01*
X148317524Y-88557476D01*
X148303548Y-88540445D01*
X148293160Y-88521009D01*
X148286764Y-88499928D01*
X148284000Y-88471860D01*
X148284000Y-86658140D01*
X148286764Y-86630072D01*
X148293160Y-86608991D01*
X148303548Y-86589555D01*
X148317524Y-86572524D01*
X148334555Y-86558548D01*
X148353991Y-86548160D01*
X148375072Y-86541764D01*
X148403140Y-86539000D01*
X148866860Y-86539000D01*
X148894928Y-86541764D01*
G37*
G36*
X128323241Y-85604760D02*
G01*
X128587305Y-85714139D01*
X128824958Y-85872934D01*
X129027066Y-86075042D01*
X129185861Y-86312695D01*
X129295240Y-86576759D01*
X129351000Y-86857088D01*
X129351000Y-87142912D01*
X129295240Y-87423241D01*
X129185861Y-87687305D01*
X129027066Y-87924958D01*
X128824958Y-88127066D01*
X128587305Y-88285861D01*
X128323241Y-88395240D01*
X128042912Y-88451000D01*
X127757088Y-88451000D01*
X127476759Y-88395240D01*
X127212695Y-88285861D01*
X126975042Y-88127066D01*
X126772934Y-87924958D01*
X126614139Y-87687305D01*
X126504760Y-87423241D01*
X126449000Y-87142912D01*
X126449000Y-86857088D01*
X126504760Y-86576759D01*
X126614139Y-86312695D01*
X126772934Y-86075042D01*
X126975042Y-85872934D01*
X127212695Y-85714139D01*
X127476759Y-85604760D01*
X127757088Y-85549000D01*
X128042912Y-85549000D01*
X128323241Y-85604760D01*
G37*
G36*
X141431674Y-87126465D02*
G01*
X141469367Y-87137899D01*
X141504103Y-87156466D01*
X141534548Y-87181452D01*
X141559534Y-87211897D01*
X141578101Y-87246633D01*
X141589535Y-87284326D01*
X141594000Y-87329661D01*
X141594000Y-88166339D01*
X141589535Y-88211674D01*
X141578101Y-88249367D01*
X141559534Y-88284103D01*
X141534548Y-88314548D01*
X141504103Y-88339534D01*
X141469367Y-88358101D01*
X141431674Y-88369535D01*
X141386339Y-88374000D01*
X140299661Y-88374000D01*
X140254326Y-88369535D01*
X140216633Y-88358101D01*
X140181897Y-88339534D01*
X140151452Y-88314548D01*
X140126466Y-88284103D01*
X140107899Y-88249367D01*
X140096465Y-88211674D01*
X140092000Y-88166339D01*
X140092000Y-87329661D01*
X140096465Y-87284326D01*
X140107899Y-87246633D01*
X140126466Y-87211897D01*
X140151452Y-87181452D01*
X140181897Y-87156466D01*
X140216633Y-87137899D01*
X140254326Y-87126465D01*
X140299661Y-87122000D01*
X141386339Y-87122000D01*
X141431674Y-87126465D01*
G37*
G36*
X156544674Y-85983465D02*
G01*
X156582367Y-85994899D01*
X156617103Y-86013466D01*
X156647548Y-86038452D01*
X156672534Y-86068897D01*
X156691101Y-86103633D01*
X156702535Y-86141326D01*
X156707000Y-86186661D01*
X156707000Y-87023339D01*
X156702535Y-87068674D01*
X156691101Y-87106367D01*
X156672534Y-87141103D01*
X156647548Y-87171548D01*
X156617103Y-87196534D01*
X156582367Y-87215101D01*
X156544674Y-87226535D01*
X156499339Y-87231000D01*
X155412661Y-87231000D01*
X155367326Y-87226535D01*
X155329633Y-87215101D01*
X155294897Y-87196534D01*
X155264452Y-87171548D01*
X155239466Y-87141103D01*
X155220899Y-87106367D01*
X155209465Y-87068674D01*
X155205000Y-87023339D01*
X155205000Y-86186661D01*
X155209465Y-86141326D01*
X155220899Y-86103633D01*
X155239466Y-86068897D01*
X155264452Y-86038452D01*
X155294897Y-86013466D01*
X155329633Y-85994899D01*
X155367326Y-85983465D01*
X155412661Y-85979000D01*
X156499339Y-85979000D01*
X156544674Y-85983465D01*
G37*
G36*
X170238205Y-82802461D02*
G01*
X170356153Y-82825922D01*
X170431968Y-82857326D01*
X170578359Y-82917963D01*
X170778342Y-83051587D01*
X170948413Y-83221658D01*
X171082037Y-83421641D01*
X171100204Y-83465500D01*
X171172899Y-83641000D01*
X171174078Y-83643848D01*
X171221000Y-83879741D01*
X171221000Y-84120259D01*
X171174078Y-84356152D01*
X171082037Y-84578359D01*
X170948413Y-84778342D01*
X170778342Y-84948413D01*
X170578359Y-85082037D01*
X170448194Y-85135953D01*
X170356153Y-85174078D01*
X170120259Y-85221000D01*
X169879741Y-85221000D01*
X169643847Y-85174078D01*
X169551806Y-85135953D01*
X169421641Y-85082037D01*
X169221658Y-84948413D01*
X169051587Y-84778342D01*
X168917963Y-84578359D01*
X168825922Y-84356152D01*
X168779000Y-84120259D01*
X168779000Y-83879741D01*
X168825922Y-83643848D01*
X168827102Y-83641000D01*
X168899796Y-83465500D01*
X168917963Y-83421641D01*
X169051587Y-83221658D01*
X169221658Y-83051587D01*
X169421641Y-82917963D01*
X169568032Y-82857326D01*
X169643847Y-82825922D01*
X169879741Y-82779000D01*
X170120259Y-82779000D01*
X170238205Y-82802461D01*
G37*
G36*
X156544674Y-82953465D02*
G01*
X156582367Y-82964899D01*
X156617103Y-82983466D01*
X156647548Y-83008452D01*
X156672534Y-83038897D01*
X156691101Y-83073633D01*
X156702535Y-83111326D01*
X156707000Y-83156661D01*
X156707000Y-83993339D01*
X156702535Y-84038674D01*
X156691101Y-84076367D01*
X156672534Y-84111103D01*
X156647548Y-84141548D01*
X156617103Y-84166534D01*
X156582367Y-84185101D01*
X156544674Y-84196535D01*
X156499339Y-84201000D01*
X155412661Y-84201000D01*
X155367326Y-84196535D01*
X155329633Y-84185101D01*
X155294897Y-84166534D01*
X155264452Y-84141548D01*
X155239466Y-84111103D01*
X155220899Y-84076367D01*
X155209465Y-84038674D01*
X155205000Y-83993339D01*
X155205000Y-83156661D01*
X155209465Y-83111326D01*
X155220899Y-83073633D01*
X155239466Y-83038897D01*
X155264452Y-83008452D01*
X155294897Y-82983466D01*
X155329633Y-82964899D01*
X155367326Y-82953465D01*
X155412661Y-82949000D01*
X156499339Y-82949000D01*
X156544674Y-82953465D01*
G37*
G36*
X141304674Y-82699465D02*
G01*
X141342367Y-82710899D01*
X141377103Y-82729466D01*
X141407548Y-82754452D01*
X141432534Y-82784897D01*
X141451101Y-82819633D01*
X141462535Y-82857326D01*
X141467000Y-82902661D01*
X141467000Y-83739339D01*
X141462535Y-83784674D01*
X141451101Y-83822367D01*
X141432534Y-83857103D01*
X141407548Y-83887548D01*
X141377103Y-83912534D01*
X141342367Y-83931101D01*
X141304674Y-83942535D01*
X141259339Y-83947000D01*
X140172661Y-83947000D01*
X140127326Y-83942535D01*
X140089633Y-83931101D01*
X140054897Y-83912534D01*
X140024452Y-83887548D01*
X139999466Y-83857103D01*
X139980899Y-83822367D01*
X139969465Y-83784674D01*
X139965000Y-83739339D01*
X139965000Y-82902661D01*
X139969465Y-82857326D01*
X139980899Y-82819633D01*
X139999466Y-82784897D01*
X140024452Y-82754452D01*
X140054897Y-82729466D01*
X140089633Y-82710899D01*
X140127326Y-82699465D01*
X140172661Y-82695000D01*
X141259339Y-82695000D01*
X141304674Y-82699465D01*
G37*
G36*
X148894928Y-81591764D02*
G01*
X148916009Y-81598160D01*
X148935445Y-81608548D01*
X148952476Y-81622524D01*
X148966452Y-81639555D01*
X148976840Y-81658991D01*
X148983236Y-81680072D01*
X148986000Y-81708140D01*
X148986000Y-83521860D01*
X148983236Y-83549928D01*
X148976840Y-83571009D01*
X148966452Y-83590445D01*
X148952476Y-83607476D01*
X148935445Y-83621452D01*
X148916009Y-83631840D01*
X148894928Y-83638236D01*
X148866860Y-83641000D01*
X148403140Y-83641000D01*
X148375072Y-83638236D01*
X148353991Y-83631840D01*
X148334555Y-83621452D01*
X148317524Y-83607476D01*
X148303548Y-83590445D01*
X148293160Y-83571009D01*
X148286764Y-83549928D01*
X148284000Y-83521860D01*
X148284000Y-81708140D01*
X148286764Y-81680072D01*
X148293160Y-81658991D01*
X148303548Y-81639555D01*
X148317524Y-81622524D01*
X148334555Y-81608548D01*
X148353991Y-81598160D01*
X148375072Y-81591764D01*
X148403140Y-81589000D01*
X148866860Y-81589000D01*
X148894928Y-81591764D01*
G37*
G36*
X147624928Y-81591764D02*
G01*
X147646009Y-81598160D01*
X147665445Y-81608548D01*
X147682476Y-81622524D01*
X147696452Y-81639555D01*
X147706840Y-81658991D01*
X147713236Y-81680072D01*
X147716000Y-81708140D01*
X147716000Y-83521860D01*
X147713236Y-83549928D01*
X147706840Y-83571009D01*
X147696452Y-83590445D01*
X147682476Y-83607476D01*
X147665445Y-83621452D01*
X147646009Y-83631840D01*
X147624928Y-83638236D01*
X147596860Y-83641000D01*
X147133140Y-83641000D01*
X147105072Y-83638236D01*
X147083991Y-83631840D01*
X147064555Y-83621452D01*
X147047524Y-83607476D01*
X147033548Y-83590445D01*
X147023160Y-83571009D01*
X147016764Y-83549928D01*
X147014000Y-83521860D01*
X147014000Y-81708140D01*
X147016764Y-81680072D01*
X147023160Y-81658991D01*
X147033548Y-81639555D01*
X147047524Y-81622524D01*
X147064555Y-81608548D01*
X147083991Y-81598160D01*
X147105072Y-81591764D01*
X147133140Y-81589000D01*
X147596860Y-81589000D01*
X147624928Y-81591764D01*
G37*
G36*
X146354928Y-81591764D02*
G01*
X146376009Y-81598160D01*
X146395445Y-81608548D01*
X146412476Y-81622524D01*
X146426452Y-81639555D01*
X146436840Y-81658991D01*
X146443236Y-81680072D01*
X146446000Y-81708140D01*
X146446000Y-83521860D01*
X146443236Y-83549928D01*
X146436840Y-83571009D01*
X146426452Y-83590445D01*
X146412476Y-83607476D01*
X146395445Y-83621452D01*
X146376009Y-83631840D01*
X146354928Y-83638236D01*
X146326860Y-83641000D01*
X145863140Y-83641000D01*
X145835072Y-83638236D01*
X145813991Y-83631840D01*
X145794555Y-83621452D01*
X145777524Y-83607476D01*
X145763548Y-83590445D01*
X145753160Y-83571009D01*
X145746764Y-83549928D01*
X145744000Y-83521860D01*
X145744000Y-81708140D01*
X145746764Y-81680072D01*
X145753160Y-81658991D01*
X145763548Y-81639555D01*
X145777524Y-81622524D01*
X145794555Y-81608548D01*
X145813991Y-81598160D01*
X145835072Y-81591764D01*
X145863140Y-81589000D01*
X146326860Y-81589000D01*
X146354928Y-81591764D01*
G37*
G36*
X150164928Y-81591764D02*
G01*
X150186009Y-81598160D01*
X150205445Y-81608548D01*
X150222476Y-81622524D01*
X150236452Y-81639555D01*
X150246840Y-81658991D01*
X150253236Y-81680072D01*
X150256000Y-81708140D01*
X150256000Y-83521860D01*
X150253236Y-83549928D01*
X150246840Y-83571009D01*
X150236452Y-83590445D01*
X150222476Y-83607476D01*
X150205445Y-83621452D01*
X150186009Y-83631840D01*
X150164928Y-83638236D01*
X150136860Y-83641000D01*
X149673140Y-83641000D01*
X149645072Y-83638236D01*
X149623991Y-83631840D01*
X149604555Y-83621452D01*
X149587524Y-83607476D01*
X149573548Y-83590445D01*
X149563160Y-83571009D01*
X149556764Y-83549928D01*
X149554000Y-83521860D01*
X149554000Y-81708140D01*
X149556764Y-81680072D01*
X149563160Y-81658991D01*
X149573548Y-81639555D01*
X149587524Y-81622524D01*
X149604555Y-81608548D01*
X149623991Y-81598160D01*
X149645072Y-81591764D01*
X149673140Y-81589000D01*
X150136860Y-81589000D01*
X150164928Y-81591764D01*
G37*
G36*
X156544674Y-80903465D02*
G01*
X156582367Y-80914899D01*
X156617103Y-80933466D01*
X156647548Y-80958452D01*
X156672534Y-80988897D01*
X156691101Y-81023633D01*
X156702535Y-81061326D01*
X156707000Y-81106661D01*
X156707000Y-81943339D01*
X156702535Y-81988674D01*
X156691101Y-82026367D01*
X156672534Y-82061103D01*
X156647548Y-82091548D01*
X156617103Y-82116534D01*
X156582367Y-82135101D01*
X156544674Y-82146535D01*
X156499339Y-82151000D01*
X155412661Y-82151000D01*
X155367326Y-82146535D01*
X155329633Y-82135101D01*
X155294897Y-82116534D01*
X155264452Y-82091548D01*
X155239466Y-82061103D01*
X155220899Y-82026367D01*
X155209465Y-81988674D01*
X155205000Y-81943339D01*
X155205000Y-81106661D01*
X155209465Y-81061326D01*
X155220899Y-81023633D01*
X155239466Y-80988897D01*
X155264452Y-80958452D01*
X155294897Y-80933466D01*
X155329633Y-80914899D01*
X155367326Y-80903465D01*
X155412661Y-80899000D01*
X156499339Y-80899000D01*
X156544674Y-80903465D01*
G37*
G36*
X141304674Y-80649465D02*
G01*
X141342367Y-80660899D01*
X141377103Y-80679466D01*
X141407548Y-80704452D01*
X141432534Y-80734897D01*
X141451101Y-80769633D01*
X141462535Y-80807326D01*
X141467000Y-80852661D01*
X141467000Y-81689339D01*
X141462535Y-81734674D01*
X141451101Y-81772367D01*
X141432534Y-81807103D01*
X141407548Y-81837548D01*
X141377103Y-81862534D01*
X141342367Y-81881101D01*
X141304674Y-81892535D01*
X141259339Y-81897000D01*
X140172661Y-81897000D01*
X140127326Y-81892535D01*
X140089633Y-81881101D01*
X140054897Y-81862534D01*
X140024452Y-81837548D01*
X139999466Y-81807103D01*
X139980899Y-81772367D01*
X139969465Y-81734674D01*
X139965000Y-81689339D01*
X139965000Y-80852661D01*
X139969465Y-80807326D01*
X139980899Y-80769633D01*
X139999466Y-80734897D01*
X140024452Y-80704452D01*
X140054897Y-80679466D01*
X140089633Y-80660899D01*
X140127326Y-80649465D01*
X140172661Y-80645000D01*
X141259339Y-80645000D01*
X141304674Y-80649465D01*
G37*
G36*
X170238205Y-77802461D02*
G01*
X170356153Y-77825922D01*
X170431394Y-77857088D01*
X170578359Y-77917963D01*
X170778342Y-78051587D01*
X170948413Y-78221658D01*
X171082037Y-78421641D01*
X171120779Y-78515173D01*
X171174078Y-78643847D01*
X171221000Y-78879742D01*
X171221000Y-79120258D01*
X171174078Y-79356153D01*
X171147077Y-79421339D01*
X171082037Y-79578359D01*
X170948413Y-79778342D01*
X170778342Y-79948413D01*
X170578359Y-80082037D01*
X170448194Y-80135953D01*
X170356153Y-80174078D01*
X170238205Y-80197539D01*
X170120259Y-80221000D01*
X169879741Y-80221000D01*
X169761795Y-80197539D01*
X169643847Y-80174078D01*
X169551806Y-80135953D01*
X169421641Y-80082037D01*
X169221658Y-79948413D01*
X169051587Y-79778342D01*
X168917963Y-79578359D01*
X168852923Y-79421339D01*
X168825922Y-79356153D01*
X168779000Y-79120258D01*
X168779000Y-78879742D01*
X168825922Y-78643847D01*
X168879221Y-78515173D01*
X168917963Y-78421641D01*
X169051587Y-78221658D01*
X169221658Y-78051587D01*
X169421641Y-77917963D01*
X169568606Y-77857088D01*
X169643847Y-77825922D01*
X169761795Y-77802461D01*
X169879741Y-77779000D01*
X170120259Y-77779000D01*
X170238205Y-77802461D01*
G37*
G36*
X164030674Y-78247465D02*
G01*
X164068367Y-78258899D01*
X164103103Y-78277466D01*
X164133548Y-78302452D01*
X164158534Y-78332897D01*
X164177101Y-78367633D01*
X164188535Y-78405326D01*
X164193000Y-78450661D01*
X164193000Y-79537339D01*
X164188535Y-79582674D01*
X164177101Y-79620367D01*
X164158534Y-79655103D01*
X164133548Y-79685548D01*
X164103103Y-79710534D01*
X164068367Y-79729101D01*
X164030674Y-79740535D01*
X163985339Y-79745000D01*
X163148661Y-79745000D01*
X163103326Y-79740535D01*
X163065633Y-79729101D01*
X163030897Y-79710534D01*
X163000452Y-79685548D01*
X162975466Y-79655103D01*
X162956899Y-79620367D01*
X162945465Y-79582674D01*
X162941000Y-79537339D01*
X162941000Y-78450661D01*
X162945465Y-78405326D01*
X162956899Y-78367633D01*
X162975466Y-78332897D01*
X163000452Y-78302452D01*
X163030897Y-78277466D01*
X163065633Y-78258899D01*
X163103326Y-78247465D01*
X163148661Y-78243000D01*
X163985339Y-78243000D01*
X164030674Y-78247465D01*
G37*
G36*
X166080674Y-78247465D02*
G01*
X166118367Y-78258899D01*
X166153103Y-78277466D01*
X166183548Y-78302452D01*
X166208534Y-78332897D01*
X166227101Y-78367633D01*
X166238535Y-78405326D01*
X166243000Y-78450661D01*
X166243000Y-79537339D01*
X166238535Y-79582674D01*
X166227101Y-79620367D01*
X166208534Y-79655103D01*
X166183548Y-79685548D01*
X166153103Y-79710534D01*
X166118367Y-79729101D01*
X166080674Y-79740535D01*
X166035339Y-79745000D01*
X165198661Y-79745000D01*
X165153326Y-79740535D01*
X165115633Y-79729101D01*
X165080897Y-79710534D01*
X165050452Y-79685548D01*
X165025466Y-79655103D01*
X165006899Y-79620367D01*
X164995465Y-79582674D01*
X164991000Y-79537339D01*
X164991000Y-78450661D01*
X164995465Y-78405326D01*
X165006899Y-78367633D01*
X165025466Y-78332897D01*
X165050452Y-78302452D01*
X165080897Y-78277466D01*
X165115633Y-78258899D01*
X165153326Y-78247465D01*
X165198661Y-78243000D01*
X166035339Y-78243000D01*
X166080674Y-78247465D01*
G37*
G36*
X156544674Y-78381465D02*
G01*
X156582367Y-78392899D01*
X156617103Y-78411466D01*
X156647548Y-78436452D01*
X156672534Y-78466897D01*
X156691101Y-78501633D01*
X156702535Y-78539326D01*
X156707000Y-78584661D01*
X156707000Y-79421339D01*
X156702535Y-79466674D01*
X156691101Y-79504367D01*
X156672534Y-79539103D01*
X156647548Y-79569548D01*
X156617103Y-79594534D01*
X156582367Y-79613101D01*
X156544674Y-79624535D01*
X156499339Y-79629000D01*
X155412661Y-79629000D01*
X155367326Y-79624535D01*
X155329633Y-79613101D01*
X155294897Y-79594534D01*
X155264452Y-79569548D01*
X155239466Y-79539103D01*
X155220899Y-79504367D01*
X155209465Y-79466674D01*
X155205000Y-79421339D01*
X155205000Y-78584661D01*
X155209465Y-78539326D01*
X155220899Y-78501633D01*
X155239466Y-78466897D01*
X155264452Y-78436452D01*
X155294897Y-78411466D01*
X155329633Y-78392899D01*
X155367326Y-78381465D01*
X155412661Y-78377000D01*
X156499339Y-78377000D01*
X156544674Y-78381465D01*
G37*
G36*
X150702674Y-78254465D02*
G01*
X150740367Y-78265899D01*
X150775103Y-78284466D01*
X150805548Y-78309452D01*
X150830534Y-78339897D01*
X150849101Y-78374633D01*
X150860535Y-78412326D01*
X150865000Y-78457661D01*
X150865000Y-79294339D01*
X150860535Y-79339674D01*
X150849101Y-79377367D01*
X150830534Y-79412103D01*
X150805548Y-79442548D01*
X150775103Y-79467534D01*
X150740367Y-79486101D01*
X150702674Y-79497535D01*
X150657339Y-79502000D01*
X149570661Y-79502000D01*
X149525326Y-79497535D01*
X149487633Y-79486101D01*
X149452897Y-79467534D01*
X149422452Y-79442548D01*
X149397466Y-79412103D01*
X149378899Y-79377367D01*
X149367465Y-79339674D01*
X149363000Y-79294339D01*
X149363000Y-78457661D01*
X149367465Y-78412326D01*
X149378899Y-78374633D01*
X149397466Y-78339897D01*
X149422452Y-78309452D01*
X149452897Y-78284466D01*
X149487633Y-78265899D01*
X149525326Y-78254465D01*
X149570661Y-78250000D01*
X150657339Y-78250000D01*
X150702674Y-78254465D01*
G37*
G36*
X144860674Y-78254465D02*
G01*
X144898367Y-78265899D01*
X144933103Y-78284466D01*
X144963548Y-78309452D01*
X144988534Y-78339897D01*
X145007101Y-78374633D01*
X145018535Y-78412326D01*
X145023000Y-78457661D01*
X145023000Y-79294339D01*
X145018535Y-79339674D01*
X145007101Y-79377367D01*
X144988534Y-79412103D01*
X144963548Y-79442548D01*
X144933103Y-79467534D01*
X144898367Y-79486101D01*
X144860674Y-79497535D01*
X144815339Y-79502000D01*
X143728661Y-79502000D01*
X143683326Y-79497535D01*
X143645633Y-79486101D01*
X143610897Y-79467534D01*
X143580452Y-79442548D01*
X143555466Y-79412103D01*
X143536899Y-79377367D01*
X143525465Y-79339674D01*
X143521000Y-79294339D01*
X143521000Y-78457661D01*
X143525465Y-78412326D01*
X143536899Y-78374633D01*
X143555466Y-78339897D01*
X143580452Y-78309452D01*
X143610897Y-78284466D01*
X143645633Y-78265899D01*
X143683326Y-78254465D01*
X143728661Y-78250000D01*
X144815339Y-78250000D01*
X144860674Y-78254465D01*
G37*
G36*
X122823241Y-74604760D02*
G01*
X123087305Y-74714139D01*
X123324958Y-74872934D01*
X123527066Y-75075042D01*
X123685861Y-75312695D01*
X123795240Y-75576759D01*
X123851000Y-75857088D01*
X123851000Y-76142912D01*
X123795240Y-76423241D01*
X123685861Y-76687305D01*
X123527066Y-76924958D01*
X123324958Y-77127066D01*
X123087305Y-77285861D01*
X122823241Y-77395240D01*
X122542912Y-77451000D01*
X122257088Y-77451000D01*
X121976759Y-77395240D01*
X121712695Y-77285861D01*
X121475042Y-77127066D01*
X121428535Y-77080559D01*
X121409593Y-77065014D01*
X121387982Y-77053463D01*
X121364533Y-77046350D01*
X121340147Y-77043948D01*
X121315761Y-77046350D01*
X121292312Y-77053463D01*
X121270701Y-77065014D01*
X121251759Y-77080559D01*
X121236214Y-77099501D01*
X121224663Y-77121112D01*
X121217550Y-77144561D01*
X121215148Y-77168947D01*
X121217550Y-77193333D01*
X121224663Y-77216782D01*
X121236214Y-77238393D01*
X121285861Y-77312695D01*
X121395240Y-77576759D01*
X121451000Y-77857088D01*
X121451000Y-78142912D01*
X121395240Y-78423241D01*
X121285861Y-78687305D01*
X121127066Y-78924958D01*
X120924958Y-79127066D01*
X120687305Y-79285861D01*
X120423241Y-79395240D01*
X120142912Y-79451000D01*
X119857088Y-79451000D01*
X119576759Y-79395240D01*
X119312695Y-79285861D01*
X119075042Y-79127066D01*
X118872934Y-78924958D01*
X118714139Y-78687305D01*
X118604760Y-78423241D01*
X118549000Y-78142912D01*
X118549000Y-77857088D01*
X118604760Y-77576759D01*
X118714139Y-77312695D01*
X118872934Y-77075042D01*
X119075042Y-76872934D01*
X119312695Y-76714139D01*
X119576759Y-76604760D01*
X119857088Y-76549000D01*
X120142912Y-76549000D01*
X120423241Y-76604760D01*
X120687305Y-76714139D01*
X120924958Y-76872934D01*
X120971465Y-76919441D01*
X120990407Y-76934986D01*
X121012018Y-76946537D01*
X121035467Y-76953650D01*
X121059853Y-76956052D01*
X121084239Y-76953650D01*
X121107688Y-76946537D01*
X121129299Y-76934986D01*
X121148241Y-76919441D01*
X121163786Y-76900499D01*
X121175337Y-76878888D01*
X121182450Y-76855439D01*
X121184852Y-76831053D01*
X121182450Y-76806667D01*
X121175337Y-76783218D01*
X121163786Y-76761607D01*
X121114139Y-76687305D01*
X121004760Y-76423241D01*
X120949000Y-76142912D01*
X120949000Y-75857088D01*
X121004760Y-75576759D01*
X121114139Y-75312695D01*
X121272934Y-75075042D01*
X121475042Y-74872934D01*
X121712695Y-74714139D01*
X121976759Y-74604760D01*
X122257088Y-74549000D01*
X122542912Y-74549000D01*
X122823241Y-74604760D01*
G37*
G36*
X156544674Y-76331465D02*
G01*
X156582367Y-76342899D01*
X156617103Y-76361466D01*
X156647548Y-76386452D01*
X156672534Y-76416897D01*
X156691101Y-76451633D01*
X156702535Y-76489326D01*
X156707000Y-76534661D01*
X156707000Y-77371339D01*
X156702535Y-77416674D01*
X156691101Y-77454367D01*
X156672534Y-77489103D01*
X156647548Y-77519548D01*
X156617103Y-77544534D01*
X156582367Y-77563101D01*
X156544674Y-77574535D01*
X156499339Y-77579000D01*
X155412661Y-77579000D01*
X155367326Y-77574535D01*
X155329633Y-77563101D01*
X155294897Y-77544534D01*
X155264452Y-77519548D01*
X155239466Y-77489103D01*
X155220899Y-77454367D01*
X155209465Y-77416674D01*
X155205000Y-77371339D01*
X155205000Y-76534661D01*
X155209465Y-76489326D01*
X155220899Y-76451633D01*
X155239466Y-76416897D01*
X155264452Y-76386452D01*
X155294897Y-76361466D01*
X155329633Y-76342899D01*
X155367326Y-76331465D01*
X155412661Y-76327000D01*
X156499339Y-76327000D01*
X156544674Y-76331465D01*
G37*
G36*
X150702674Y-76204465D02*
G01*
X150740367Y-76215899D01*
X150775103Y-76234466D01*
X150805548Y-76259452D01*
X150830534Y-76289897D01*
X150849101Y-76324633D01*
X150860535Y-76362326D01*
X150865000Y-76407661D01*
X150865000Y-77244339D01*
X150860535Y-77289674D01*
X150849101Y-77327367D01*
X150830534Y-77362103D01*
X150805548Y-77392548D01*
X150775103Y-77417534D01*
X150740367Y-77436101D01*
X150702674Y-77447535D01*
X150657339Y-77452000D01*
X149570661Y-77452000D01*
X149525326Y-77447535D01*
X149487633Y-77436101D01*
X149452897Y-77417534D01*
X149422452Y-77392548D01*
X149397466Y-77362103D01*
X149378899Y-77327367D01*
X149367465Y-77289674D01*
X149363000Y-77244339D01*
X149363000Y-76407661D01*
X149367465Y-76362326D01*
X149378899Y-76324633D01*
X149397466Y-76289897D01*
X149422452Y-76259452D01*
X149452897Y-76234466D01*
X149487633Y-76215899D01*
X149525326Y-76204465D01*
X149570661Y-76200000D01*
X150657339Y-76200000D01*
X150702674Y-76204465D01*
G37*
G36*
X144860674Y-76204465D02*
G01*
X144898367Y-76215899D01*
X144933103Y-76234466D01*
X144963548Y-76259452D01*
X144988534Y-76289897D01*
X145007101Y-76324633D01*
X145018535Y-76362326D01*
X145023000Y-76407661D01*
X145023000Y-77244339D01*
X145018535Y-77289674D01*
X145007101Y-77327367D01*
X144988534Y-77362103D01*
X144963548Y-77392548D01*
X144933103Y-77417534D01*
X144898367Y-77436101D01*
X144860674Y-77447535D01*
X144815339Y-77452000D01*
X143728661Y-77452000D01*
X143683326Y-77447535D01*
X143645633Y-77436101D01*
X143610897Y-77417534D01*
X143580452Y-77392548D01*
X143555466Y-77362103D01*
X143536899Y-77327367D01*
X143525465Y-77289674D01*
X143521000Y-77244339D01*
X143521000Y-76407661D01*
X143525465Y-76362326D01*
X143536899Y-76324633D01*
X143555466Y-76289897D01*
X143580452Y-76259452D01*
X143610897Y-76234466D01*
X143645633Y-76215899D01*
X143683326Y-76204465D01*
X143728661Y-76200000D01*
X144815339Y-76200000D01*
X144860674Y-76204465D01*
G37*
G36*
X128323241Y-74604760D02*
G01*
X128587305Y-74714139D01*
X128824958Y-74872934D01*
X129027066Y-75075042D01*
X129185861Y-75312695D01*
X129295240Y-75576759D01*
X129351000Y-75857088D01*
X129351000Y-76142912D01*
X129295240Y-76423241D01*
X129185861Y-76687305D01*
X129027066Y-76924958D01*
X128824958Y-77127066D01*
X128587305Y-77285861D01*
X128323241Y-77395240D01*
X128042912Y-77451000D01*
X127757088Y-77451000D01*
X127476759Y-77395240D01*
X127212695Y-77285861D01*
X126975042Y-77127066D01*
X126772934Y-76924958D01*
X126614139Y-76687305D01*
X126504760Y-76423241D01*
X126449000Y-76142912D01*
X126449000Y-75857088D01*
X126504760Y-75576759D01*
X126614139Y-75312695D01*
X126772934Y-75075042D01*
X126975042Y-74872934D01*
X127212695Y-74714139D01*
X127476759Y-74604760D01*
X127757088Y-74549000D01*
X128042912Y-74549000D01*
X128323241Y-74604760D01*
G37*
G36*
X170356153Y-72825922D02*
G01*
X170448194Y-72864047D01*
X170578359Y-72917963D01*
X170778342Y-73051587D01*
X170948413Y-73221658D01*
X171082037Y-73421641D01*
X171174078Y-73643848D01*
X171221000Y-73879741D01*
X171221000Y-74120259D01*
X171174078Y-74356152D01*
X171082037Y-74578359D01*
X170948413Y-74778342D01*
X170778342Y-74948413D01*
X170578359Y-75082037D01*
X170448194Y-75135953D01*
X170356153Y-75174078D01*
X170120259Y-75221000D01*
X169879741Y-75221000D01*
X169643847Y-75174078D01*
X169551806Y-75135953D01*
X169421641Y-75082037D01*
X169221658Y-74948413D01*
X169051587Y-74778342D01*
X168917963Y-74578359D01*
X168825922Y-74356152D01*
X168779000Y-74120259D01*
X168779000Y-73879741D01*
X168825922Y-73643848D01*
X168917963Y-73421641D01*
X169051587Y-73221658D01*
X169221658Y-73051587D01*
X169421641Y-72917963D01*
X169551806Y-72864047D01*
X169643847Y-72825922D01*
X169879741Y-72779000D01*
X170120259Y-72779000D01*
X170356153Y-72825922D01*
G37*
G36*
X144606674Y-68475465D02*
G01*
X144644367Y-68486899D01*
X144679103Y-68505466D01*
X144709548Y-68530452D01*
X144734534Y-68560897D01*
X144753101Y-68595633D01*
X144764535Y-68633326D01*
X144769000Y-68678661D01*
X144769000Y-69515339D01*
X144764535Y-69560674D01*
X144753101Y-69598367D01*
X144734534Y-69633103D01*
X144709548Y-69663548D01*
X144679103Y-69688534D01*
X144644367Y-69707101D01*
X144606674Y-69718535D01*
X144561339Y-69723000D01*
X143474661Y-69723000D01*
X143429326Y-69718535D01*
X143391633Y-69707101D01*
X143356897Y-69688534D01*
X143326452Y-69663548D01*
X143301466Y-69633103D01*
X143282899Y-69598367D01*
X143271465Y-69560674D01*
X143267000Y-69515339D01*
X143267000Y-68678661D01*
X143271465Y-68633326D01*
X143282899Y-68595633D01*
X143301466Y-68560897D01*
X143326452Y-68530452D01*
X143356897Y-68505466D01*
X143391633Y-68486899D01*
X143429326Y-68475465D01*
X143474661Y-68471000D01*
X144561339Y-68471000D01*
X144606674Y-68475465D01*
G37*
G36*
X150829674Y-68348465D02*
G01*
X150867367Y-68359899D01*
X150902103Y-68378466D01*
X150932548Y-68403452D01*
X150957534Y-68433897D01*
X150976101Y-68468633D01*
X150987535Y-68506326D01*
X150992000Y-68551661D01*
X150992000Y-69388339D01*
X150987535Y-69433674D01*
X150976101Y-69471367D01*
X150957534Y-69506103D01*
X150932548Y-69536548D01*
X150902103Y-69561534D01*
X150867367Y-69580101D01*
X150829674Y-69591535D01*
X150784339Y-69596000D01*
X149697661Y-69596000D01*
X149652326Y-69591535D01*
X149614633Y-69580101D01*
X149579897Y-69561534D01*
X149549452Y-69536548D01*
X149524466Y-69506103D01*
X149505899Y-69471367D01*
X149494465Y-69433674D01*
X149490000Y-69388339D01*
X149490000Y-68551661D01*
X149494465Y-68506326D01*
X149505899Y-68468633D01*
X149524466Y-68433897D01*
X149549452Y-68403452D01*
X149579897Y-68378466D01*
X149614633Y-68359899D01*
X149652326Y-68348465D01*
X149697661Y-68344000D01*
X150784339Y-68344000D01*
X150829674Y-68348465D01*
G37*
G36*
X122823241Y-63604760D02*
G01*
X123087305Y-63714139D01*
X123324958Y-63872934D01*
X123527066Y-64075042D01*
X123685861Y-64312695D01*
X123795240Y-64576759D01*
X123851000Y-64857088D01*
X123851000Y-65142912D01*
X123795240Y-65423241D01*
X123685861Y-65687305D01*
X123527066Y-65924958D01*
X123324958Y-66127066D01*
X123087305Y-66285861D01*
X122823241Y-66395240D01*
X122542912Y-66451000D01*
X122257088Y-66451000D01*
X121976759Y-66395240D01*
X121712695Y-66285861D01*
X121475042Y-66127066D01*
X121428535Y-66080559D01*
X121409593Y-66065014D01*
X121387982Y-66053463D01*
X121364533Y-66046350D01*
X121340147Y-66043948D01*
X121315761Y-66046350D01*
X121292312Y-66053463D01*
X121270701Y-66065014D01*
X121251759Y-66080559D01*
X121236214Y-66099501D01*
X121224663Y-66121112D01*
X121217550Y-66144561D01*
X121215148Y-66168947D01*
X121217550Y-66193333D01*
X121224663Y-66216782D01*
X121236214Y-66238393D01*
X121285861Y-66312695D01*
X121395240Y-66576759D01*
X121451000Y-66857088D01*
X121451000Y-67142912D01*
X121395240Y-67423241D01*
X121285861Y-67687305D01*
X121127066Y-67924958D01*
X120924958Y-68127066D01*
X120687305Y-68285861D01*
X120423241Y-68395240D01*
X120142912Y-68451000D01*
X119857088Y-68451000D01*
X119576759Y-68395240D01*
X119312695Y-68285861D01*
X119075042Y-68127066D01*
X118872934Y-67924958D01*
X118714139Y-67687305D01*
X118604760Y-67423241D01*
X118549000Y-67142912D01*
X118549000Y-66857088D01*
X118604760Y-66576759D01*
X118714139Y-66312695D01*
X118872934Y-66075042D01*
X119075042Y-65872934D01*
X119312695Y-65714139D01*
X119576759Y-65604760D01*
X119857088Y-65549000D01*
X120142912Y-65549000D01*
X120423241Y-65604760D01*
X120687305Y-65714139D01*
X120924958Y-65872934D01*
X120971465Y-65919441D01*
X120990407Y-65934986D01*
X121012018Y-65946537D01*
X121035467Y-65953650D01*
X121059853Y-65956052D01*
X121084239Y-65953650D01*
X121107688Y-65946537D01*
X121129299Y-65934986D01*
X121148241Y-65919441D01*
X121163786Y-65900499D01*
X121175337Y-65878888D01*
X121182450Y-65855439D01*
X121184852Y-65831053D01*
X121182450Y-65806667D01*
X121175337Y-65783218D01*
X121163786Y-65761607D01*
X121114139Y-65687305D01*
X121004760Y-65423241D01*
X120949000Y-65142912D01*
X120949000Y-64857088D01*
X121004760Y-64576759D01*
X121114139Y-64312695D01*
X121272934Y-64075042D01*
X121475042Y-63872934D01*
X121712695Y-63714139D01*
X121976759Y-63604760D01*
X122257088Y-63549000D01*
X122542912Y-63549000D01*
X122823241Y-63604760D01*
G37*
G36*
X144606674Y-66425465D02*
G01*
X144644367Y-66436899D01*
X144679103Y-66455466D01*
X144709548Y-66480452D01*
X144734534Y-66510897D01*
X144753101Y-66545633D01*
X144764535Y-66583326D01*
X144769000Y-66628661D01*
X144769000Y-67465339D01*
X144764535Y-67510674D01*
X144753101Y-67548367D01*
X144734534Y-67583103D01*
X144709548Y-67613548D01*
X144679103Y-67638534D01*
X144644367Y-67657101D01*
X144606674Y-67668535D01*
X144561339Y-67673000D01*
X143474661Y-67673000D01*
X143429326Y-67668535D01*
X143391633Y-67657101D01*
X143356897Y-67638534D01*
X143326452Y-67613548D01*
X143301466Y-67583103D01*
X143282899Y-67548367D01*
X143271465Y-67510674D01*
X143267000Y-67465339D01*
X143267000Y-66628661D01*
X143271465Y-66583326D01*
X143282899Y-66545633D01*
X143301466Y-66510897D01*
X143326452Y-66480452D01*
X143356897Y-66455466D01*
X143391633Y-66436899D01*
X143429326Y-66425465D01*
X143474661Y-66421000D01*
X144561339Y-66421000D01*
X144606674Y-66425465D01*
G37*
G36*
X150829674Y-66298465D02*
G01*
X150867367Y-66309899D01*
X150902103Y-66328466D01*
X150932548Y-66353452D01*
X150957534Y-66383897D01*
X150976101Y-66418633D01*
X150987535Y-66456326D01*
X150992000Y-66501661D01*
X150992000Y-67338339D01*
X150987535Y-67383674D01*
X150976101Y-67421367D01*
X150957534Y-67456103D01*
X150932548Y-67486548D01*
X150902103Y-67511534D01*
X150867367Y-67530101D01*
X150829674Y-67541535D01*
X150784339Y-67546000D01*
X149697661Y-67546000D01*
X149652326Y-67541535D01*
X149614633Y-67530101D01*
X149579897Y-67511534D01*
X149549452Y-67486548D01*
X149524466Y-67456103D01*
X149505899Y-67421367D01*
X149494465Y-67383674D01*
X149490000Y-67338339D01*
X149490000Y-66501661D01*
X149494465Y-66456326D01*
X149505899Y-66418633D01*
X149524466Y-66383897D01*
X149549452Y-66353452D01*
X149579897Y-66328466D01*
X149614633Y-66309899D01*
X149652326Y-66298465D01*
X149697661Y-66294000D01*
X150784339Y-66294000D01*
X150829674Y-66298465D01*
G37*
G36*
X128323241Y-63604760D02*
G01*
X128587305Y-63714139D01*
X128824958Y-63872934D01*
X129027066Y-64075042D01*
X129185861Y-64312695D01*
X129295240Y-64576759D01*
X129351000Y-64857088D01*
X129351000Y-65142912D01*
X129295240Y-65423241D01*
X129185861Y-65687305D01*
X129027066Y-65924958D01*
X128824958Y-66127066D01*
X128587305Y-66285861D01*
X128323241Y-66395240D01*
X128042912Y-66451000D01*
X127757088Y-66451000D01*
X127476759Y-66395240D01*
X127212695Y-66285861D01*
X126975042Y-66127066D01*
X126772934Y-65924958D01*
X126614139Y-65687305D01*
X126504760Y-65423241D01*
X126449000Y-65142912D01*
X126449000Y-64857088D01*
X126504760Y-64576759D01*
X126614139Y-64312695D01*
X126772934Y-64075042D01*
X126975042Y-63872934D01*
X127212695Y-63714139D01*
X127476759Y-63604760D01*
X127757088Y-63549000D01*
X128042912Y-63549000D01*
X128323241Y-63604760D01*
G37*
G36*
X170356153Y-63825922D02*
G01*
X170448194Y-63864047D01*
X170578359Y-63917963D01*
X170778342Y-64051587D01*
X170948413Y-64221658D01*
X171082037Y-64421641D01*
X171127597Y-64531633D01*
X171174078Y-64643847D01*
X171221000Y-64879742D01*
X171221000Y-65120258D01*
X171174078Y-65356153D01*
X171168477Y-65369674D01*
X171082037Y-65578359D01*
X170948413Y-65778342D01*
X170778342Y-65948413D01*
X170578359Y-66082037D01*
X170469649Y-66127066D01*
X170356153Y-66174078D01*
X170259351Y-66193333D01*
X170120259Y-66221000D01*
X169879741Y-66221000D01*
X169740649Y-66193333D01*
X169643847Y-66174078D01*
X169530351Y-66127066D01*
X169421641Y-66082037D01*
X169221658Y-65948413D01*
X169051587Y-65778342D01*
X168917963Y-65578359D01*
X168831523Y-65369674D01*
X168825922Y-65356153D01*
X168779000Y-65120258D01*
X168779000Y-64879742D01*
X168825922Y-64643847D01*
X168872403Y-64531633D01*
X168917963Y-64421641D01*
X169051587Y-64221658D01*
X169221658Y-64051587D01*
X169421641Y-63917963D01*
X169551806Y-63864047D01*
X169643847Y-63825922D01*
X169879741Y-63779000D01*
X170120259Y-63779000D01*
X170356153Y-63825922D01*
G37*
G36*
X156290674Y-64411465D02*
G01*
X156328367Y-64422899D01*
X156363103Y-64441466D01*
X156393548Y-64466452D01*
X156418534Y-64496897D01*
X156437101Y-64531633D01*
X156448535Y-64569326D01*
X156453000Y-64614661D01*
X156453000Y-65451339D01*
X156448535Y-65496674D01*
X156437101Y-65534367D01*
X156418534Y-65569103D01*
X156393548Y-65599548D01*
X156363103Y-65624534D01*
X156328367Y-65643101D01*
X156290674Y-65654535D01*
X156245339Y-65659000D01*
X155158661Y-65659000D01*
X155113326Y-65654535D01*
X155075633Y-65643101D01*
X155040897Y-65624534D01*
X155010452Y-65599548D01*
X154985466Y-65569103D01*
X154966899Y-65534367D01*
X154955465Y-65496674D01*
X154951000Y-65451339D01*
X154951000Y-64614661D01*
X154955465Y-64569326D01*
X154966899Y-64531633D01*
X154985466Y-64496897D01*
X155010452Y-64466452D01*
X155040897Y-64441466D01*
X155075633Y-64422899D01*
X155113326Y-64411465D01*
X155158661Y-64407000D01*
X156245339Y-64407000D01*
X156290674Y-64411465D01*
G37*
G36*
X160227674Y-64284465D02*
G01*
X160265367Y-64295899D01*
X160300103Y-64314466D01*
X160330548Y-64339452D01*
X160355534Y-64369897D01*
X160374101Y-64404633D01*
X160385535Y-64442326D01*
X160390000Y-64487661D01*
X160390000Y-65324339D01*
X160385535Y-65369674D01*
X160374101Y-65407367D01*
X160355534Y-65442103D01*
X160330548Y-65472548D01*
X160300103Y-65497534D01*
X160265367Y-65516101D01*
X160227674Y-65527535D01*
X160182339Y-65532000D01*
X159095661Y-65532000D01*
X159050326Y-65527535D01*
X159012633Y-65516101D01*
X158977897Y-65497534D01*
X158947452Y-65472548D01*
X158922466Y-65442103D01*
X158903899Y-65407367D01*
X158892465Y-65369674D01*
X158888000Y-65324339D01*
X158888000Y-64487661D01*
X158892465Y-64442326D01*
X158903899Y-64404633D01*
X158922466Y-64369897D01*
X158947452Y-64339452D01*
X158977897Y-64314466D01*
X159012633Y-64295899D01*
X159050326Y-64284465D01*
X159095661Y-64280000D01*
X160182339Y-64280000D01*
X160227674Y-64284465D01*
G37*
G36*
X147624928Y-62451764D02*
G01*
X147646009Y-62458160D01*
X147665445Y-62468548D01*
X147682476Y-62482524D01*
X147696452Y-62499555D01*
X147706840Y-62518991D01*
X147713236Y-62540072D01*
X147716000Y-62568140D01*
X147716000Y-64381860D01*
X147713236Y-64409928D01*
X147706840Y-64431009D01*
X147696452Y-64450445D01*
X147682476Y-64467476D01*
X147665445Y-64481452D01*
X147646009Y-64491840D01*
X147624928Y-64498236D01*
X147596860Y-64501000D01*
X147133140Y-64501000D01*
X147105072Y-64498236D01*
X147083991Y-64491840D01*
X147064555Y-64481452D01*
X147047524Y-64467476D01*
X147033548Y-64450445D01*
X147023160Y-64431009D01*
X147016764Y-64409928D01*
X147014000Y-64381860D01*
X147014000Y-62568140D01*
X147016764Y-62540072D01*
X147023160Y-62518991D01*
X147033548Y-62499555D01*
X147047524Y-62482524D01*
X147064555Y-62468548D01*
X147083991Y-62458160D01*
X147105072Y-62451764D01*
X147133140Y-62449000D01*
X147596860Y-62449000D01*
X147624928Y-62451764D01*
G37*
G36*
X146354928Y-62451764D02*
G01*
X146376009Y-62458160D01*
X146395445Y-62468548D01*
X146412476Y-62482524D01*
X146426452Y-62499555D01*
X146436840Y-62518991D01*
X146443236Y-62540072D01*
X146446000Y-62568140D01*
X146446000Y-64381860D01*
X146443236Y-64409928D01*
X146436840Y-64431009D01*
X146426452Y-64450445D01*
X146412476Y-64467476D01*
X146395445Y-64481452D01*
X146376009Y-64491840D01*
X146354928Y-64498236D01*
X146326860Y-64501000D01*
X145863140Y-64501000D01*
X145835072Y-64498236D01*
X145813991Y-64491840D01*
X145794555Y-64481452D01*
X145777524Y-64467476D01*
X145763548Y-64450445D01*
X145753160Y-64431009D01*
X145746764Y-64409928D01*
X145744000Y-64381860D01*
X145744000Y-62568140D01*
X145746764Y-62540072D01*
X145753160Y-62518991D01*
X145763548Y-62499555D01*
X145777524Y-62482524D01*
X145794555Y-62468548D01*
X145813991Y-62458160D01*
X145835072Y-62451764D01*
X145863140Y-62449000D01*
X146326860Y-62449000D01*
X146354928Y-62451764D01*
G37*
G36*
X150164928Y-62451764D02*
G01*
X150186009Y-62458160D01*
X150205445Y-62468548D01*
X150222476Y-62482524D01*
X150236452Y-62499555D01*
X150246840Y-62518991D01*
X150253236Y-62540072D01*
X150256000Y-62568140D01*
X150256000Y-64381860D01*
X150253236Y-64409928D01*
X150246840Y-64431009D01*
X150236452Y-64450445D01*
X150222476Y-64467476D01*
X150205445Y-64481452D01*
X150186009Y-64491840D01*
X150164928Y-64498236D01*
X150136860Y-64501000D01*
X149673140Y-64501000D01*
X149645072Y-64498236D01*
X149623991Y-64491840D01*
X149604555Y-64481452D01*
X149587524Y-64467476D01*
X149573548Y-64450445D01*
X149563160Y-64431009D01*
X149556764Y-64409928D01*
X149554000Y-64381860D01*
X149554000Y-62568140D01*
X149556764Y-62540072D01*
X149563160Y-62518991D01*
X149573548Y-62499555D01*
X149587524Y-62482524D01*
X149604555Y-62468548D01*
X149623991Y-62458160D01*
X149645072Y-62451764D01*
X149673140Y-62449000D01*
X150136860Y-62449000D01*
X150164928Y-62451764D01*
G37*
G36*
X148894928Y-62451764D02*
G01*
X148916009Y-62458160D01*
X148935445Y-62468548D01*
X148952476Y-62482524D01*
X148966452Y-62499555D01*
X148976840Y-62518991D01*
X148983236Y-62540072D01*
X148986000Y-62568140D01*
X148986000Y-64381860D01*
X148983236Y-64409928D01*
X148976840Y-64431009D01*
X148966452Y-64450445D01*
X148952476Y-64467476D01*
X148935445Y-64481452D01*
X148916009Y-64491840D01*
X148894928Y-64498236D01*
X148866860Y-64501000D01*
X148403140Y-64501000D01*
X148375072Y-64498236D01*
X148353991Y-64491840D01*
X148334555Y-64481452D01*
X148317524Y-64467476D01*
X148303548Y-64450445D01*
X148293160Y-64431009D01*
X148286764Y-64409928D01*
X148284000Y-64381860D01*
X148284000Y-62568140D01*
X148286764Y-62540072D01*
X148293160Y-62518991D01*
X148303548Y-62499555D01*
X148317524Y-62482524D01*
X148334555Y-62468548D01*
X148353991Y-62458160D01*
X148375072Y-62451764D01*
X148403140Y-62449000D01*
X148866860Y-62449000D01*
X148894928Y-62451764D01*
G37*
G36*
X139145674Y-62506465D02*
G01*
X139183367Y-62517899D01*
X139218103Y-62536466D01*
X139248548Y-62561452D01*
X139273534Y-62591897D01*
X139292101Y-62626633D01*
X139303535Y-62664326D01*
X139308000Y-62709661D01*
X139308000Y-63546339D01*
X139303535Y-63591674D01*
X139292101Y-63629367D01*
X139273534Y-63664103D01*
X139248548Y-63694548D01*
X139218103Y-63719534D01*
X139183367Y-63738101D01*
X139145674Y-63749535D01*
X139100339Y-63754000D01*
X138013661Y-63754000D01*
X137968326Y-63749535D01*
X137930633Y-63738101D01*
X137895897Y-63719534D01*
X137865452Y-63694548D01*
X137840466Y-63664103D01*
X137821899Y-63629367D01*
X137810465Y-63591674D01*
X137806000Y-63546339D01*
X137806000Y-62709661D01*
X137810465Y-62664326D01*
X137821899Y-62626633D01*
X137840466Y-62591897D01*
X137865452Y-62561452D01*
X137895897Y-62536466D01*
X137930633Y-62517899D01*
X137968326Y-62506465D01*
X138013661Y-62502000D01*
X139100339Y-62502000D01*
X139145674Y-62506465D01*
G37*
G36*
X156290674Y-62361465D02*
G01*
X156328367Y-62372899D01*
X156363103Y-62391466D01*
X156393548Y-62416452D01*
X156418534Y-62446897D01*
X156437101Y-62481633D01*
X156448535Y-62519326D01*
X156453000Y-62564661D01*
X156453000Y-63401339D01*
X156448535Y-63446674D01*
X156437101Y-63484367D01*
X156418534Y-63519103D01*
X156393548Y-63549548D01*
X156363103Y-63574534D01*
X156328367Y-63593101D01*
X156290674Y-63604535D01*
X156245339Y-63609000D01*
X155158661Y-63609000D01*
X155113326Y-63604535D01*
X155075633Y-63593101D01*
X155040897Y-63574534D01*
X155010452Y-63549548D01*
X154985466Y-63519103D01*
X154966899Y-63484367D01*
X154955465Y-63446674D01*
X154951000Y-63401339D01*
X154951000Y-62564661D01*
X154955465Y-62519326D01*
X154966899Y-62481633D01*
X154985466Y-62446897D01*
X155010452Y-62416452D01*
X155040897Y-62391466D01*
X155075633Y-62372899D01*
X155113326Y-62361465D01*
X155158661Y-62357000D01*
X156245339Y-62357000D01*
X156290674Y-62361465D01*
G37*
G36*
X160227674Y-62234465D02*
G01*
X160265367Y-62245899D01*
X160300103Y-62264466D01*
X160330548Y-62289452D01*
X160355534Y-62319897D01*
X160374101Y-62354633D01*
X160385535Y-62392326D01*
X160390000Y-62437661D01*
X160390000Y-63274339D01*
X160385535Y-63319674D01*
X160374101Y-63357367D01*
X160355534Y-63392103D01*
X160330548Y-63422548D01*
X160300103Y-63447534D01*
X160265367Y-63466101D01*
X160227674Y-63477535D01*
X160182339Y-63482000D01*
X159095661Y-63482000D01*
X159050326Y-63477535D01*
X159012633Y-63466101D01*
X158977897Y-63447534D01*
X158947452Y-63422548D01*
X158922466Y-63392103D01*
X158903899Y-63357367D01*
X158892465Y-63319674D01*
X158888000Y-63274339D01*
X158888000Y-62437661D01*
X158892465Y-62392326D01*
X158903899Y-62354633D01*
X158922466Y-62319897D01*
X158947452Y-62289452D01*
X158977897Y-62264466D01*
X159012633Y-62245899D01*
X159050326Y-62234465D01*
X159095661Y-62230000D01*
X160182339Y-62230000D01*
X160227674Y-62234465D01*
G37*
G36*
X139145674Y-60456465D02*
G01*
X139183367Y-60467899D01*
X139218103Y-60486466D01*
X139248548Y-60511452D01*
X139273534Y-60541897D01*
X139292101Y-60576633D01*
X139303535Y-60614326D01*
X139308000Y-60659661D01*
X139308000Y-61496339D01*
X139303535Y-61541674D01*
X139292101Y-61579367D01*
X139273534Y-61614103D01*
X139248548Y-61644548D01*
X139218103Y-61669534D01*
X139183367Y-61688101D01*
X139145674Y-61699535D01*
X139100339Y-61704000D01*
X138013661Y-61704000D01*
X137968326Y-61699535D01*
X137930633Y-61688101D01*
X137895897Y-61669534D01*
X137865452Y-61644548D01*
X137840466Y-61614103D01*
X137821899Y-61579367D01*
X137810465Y-61541674D01*
X137806000Y-61496339D01*
X137806000Y-60659661D01*
X137810465Y-60614326D01*
X137821899Y-60576633D01*
X137840466Y-60541897D01*
X137865452Y-60511452D01*
X137895897Y-60486466D01*
X137930633Y-60467899D01*
X137968326Y-60456465D01*
X138013661Y-60452000D01*
X139100339Y-60452000D01*
X139145674Y-60456465D01*
G37*
G36*
X170356153Y-58825922D02*
G01*
X170389459Y-58839718D01*
X170578359Y-58917963D01*
X170778342Y-59051587D01*
X170948413Y-59221658D01*
X171082037Y-59421641D01*
X171174078Y-59643848D01*
X171221000Y-59879741D01*
X171221000Y-60120259D01*
X171174078Y-60356152D01*
X171082037Y-60578359D01*
X170948413Y-60778342D01*
X170778342Y-60948413D01*
X170578359Y-61082037D01*
X170448194Y-61135953D01*
X170356153Y-61174078D01*
X170238205Y-61197539D01*
X170120259Y-61221000D01*
X169879741Y-61221000D01*
X169761795Y-61197539D01*
X169643847Y-61174078D01*
X169551806Y-61135953D01*
X169421641Y-61082037D01*
X169221658Y-60948413D01*
X169051587Y-60778342D01*
X168917963Y-60578359D01*
X168825922Y-60356152D01*
X168779000Y-60120259D01*
X168779000Y-59879741D01*
X168825922Y-59643848D01*
X168917963Y-59421641D01*
X169051587Y-59221658D01*
X169221658Y-59051587D01*
X169421641Y-58917963D01*
X169610541Y-58839718D01*
X169643847Y-58825922D01*
X169879741Y-58779000D01*
X170120259Y-58779000D01*
X170356153Y-58825922D01*
G37*
G36*
X166080674Y-59197465D02*
G01*
X166118367Y-59208899D01*
X166153103Y-59227466D01*
X166183548Y-59252452D01*
X166208534Y-59282897D01*
X166227101Y-59317633D01*
X166238535Y-59355326D01*
X166243000Y-59400661D01*
X166243000Y-60487339D01*
X166238535Y-60532674D01*
X166227101Y-60570367D01*
X166208534Y-60605103D01*
X166183548Y-60635548D01*
X166153103Y-60660534D01*
X166118367Y-60679101D01*
X166080674Y-60690535D01*
X166035339Y-60695000D01*
X165198661Y-60695000D01*
X165153326Y-60690535D01*
X165115633Y-60679101D01*
X165080897Y-60660534D01*
X165050452Y-60635548D01*
X165025466Y-60605103D01*
X165006899Y-60570367D01*
X164995465Y-60532674D01*
X164991000Y-60487339D01*
X164991000Y-59400661D01*
X164995465Y-59355326D01*
X165006899Y-59317633D01*
X165025466Y-59282897D01*
X165050452Y-59252452D01*
X165080897Y-59227466D01*
X165115633Y-59208899D01*
X165153326Y-59197465D01*
X165198661Y-59193000D01*
X166035339Y-59193000D01*
X166080674Y-59197465D01*
G37*
G36*
X164030674Y-59197465D02*
G01*
X164068367Y-59208899D01*
X164103103Y-59227466D01*
X164133548Y-59252452D01*
X164158534Y-59282897D01*
X164177101Y-59317633D01*
X164188535Y-59355326D01*
X164193000Y-59400661D01*
X164193000Y-60487339D01*
X164188535Y-60532674D01*
X164177101Y-60570367D01*
X164158534Y-60605103D01*
X164133548Y-60635548D01*
X164103103Y-60660534D01*
X164068367Y-60679101D01*
X164030674Y-60690535D01*
X163985339Y-60695000D01*
X163148661Y-60695000D01*
X163103326Y-60690535D01*
X163065633Y-60679101D01*
X163030897Y-60660534D01*
X163000452Y-60635548D01*
X162975466Y-60605103D01*
X162956899Y-60570367D01*
X162945465Y-60532674D01*
X162941000Y-60487339D01*
X162941000Y-59400661D01*
X162945465Y-59355326D01*
X162956899Y-59317633D01*
X162975466Y-59282897D01*
X163000452Y-59252452D01*
X163030897Y-59227466D01*
X163065633Y-59208899D01*
X163103326Y-59197465D01*
X163148661Y-59193000D01*
X163985339Y-59193000D01*
X164030674Y-59197465D01*
G37*
G36*
X156290674Y-58823465D02*
G01*
X156328367Y-58834899D01*
X156363103Y-58853466D01*
X156393548Y-58878452D01*
X156418534Y-58908897D01*
X156437101Y-58943633D01*
X156448535Y-58981326D01*
X156453000Y-59026661D01*
X156453000Y-59863339D01*
X156448535Y-59908674D01*
X156437101Y-59946367D01*
X156418534Y-59981103D01*
X156393548Y-60011548D01*
X156363103Y-60036534D01*
X156328367Y-60055101D01*
X156290674Y-60066535D01*
X156245339Y-60071000D01*
X155158661Y-60071000D01*
X155113326Y-60066535D01*
X155075633Y-60055101D01*
X155040897Y-60036534D01*
X155010452Y-60011548D01*
X154985466Y-59981103D01*
X154966899Y-59946367D01*
X154955465Y-59908674D01*
X154951000Y-59863339D01*
X154951000Y-59026661D01*
X154955465Y-58981326D01*
X154966899Y-58943633D01*
X154985466Y-58908897D01*
X155010452Y-58878452D01*
X155040897Y-58853466D01*
X155075633Y-58834899D01*
X155113326Y-58823465D01*
X155158661Y-58819000D01*
X156245339Y-58819000D01*
X156290674Y-58823465D01*
G37*
G36*
X148894928Y-57501764D02*
G01*
X148916009Y-57508160D01*
X148935445Y-57518548D01*
X148952476Y-57532524D01*
X148966452Y-57549555D01*
X148976840Y-57568991D01*
X148983236Y-57590072D01*
X148986000Y-57618140D01*
X148986000Y-59431860D01*
X148983236Y-59459928D01*
X148976840Y-59481009D01*
X148966452Y-59500445D01*
X148952476Y-59517476D01*
X148935445Y-59531452D01*
X148916009Y-59541840D01*
X148894928Y-59548236D01*
X148866860Y-59551000D01*
X148403140Y-59551000D01*
X148375072Y-59548236D01*
X148353991Y-59541840D01*
X148334555Y-59531452D01*
X148317524Y-59517476D01*
X148303548Y-59500445D01*
X148293160Y-59481009D01*
X148286764Y-59459928D01*
X148284000Y-59431860D01*
X148284000Y-57618140D01*
X148286764Y-57590072D01*
X148293160Y-57568991D01*
X148303548Y-57549555D01*
X148317524Y-57532524D01*
X148334555Y-57518548D01*
X148353991Y-57508160D01*
X148375072Y-57501764D01*
X148403140Y-57499000D01*
X148866860Y-57499000D01*
X148894928Y-57501764D01*
G37*
G36*
X147624928Y-57501764D02*
G01*
X147646009Y-57508160D01*
X147665445Y-57518548D01*
X147682476Y-57532524D01*
X147696452Y-57549555D01*
X147706840Y-57568991D01*
X147713236Y-57590072D01*
X147716000Y-57618140D01*
X147716000Y-59431860D01*
X147713236Y-59459928D01*
X147706840Y-59481009D01*
X147696452Y-59500445D01*
X147682476Y-59517476D01*
X147665445Y-59531452D01*
X147646009Y-59541840D01*
X147624928Y-59548236D01*
X147596860Y-59551000D01*
X147133140Y-59551000D01*
X147105072Y-59548236D01*
X147083991Y-59541840D01*
X147064555Y-59531452D01*
X147047524Y-59517476D01*
X147033548Y-59500445D01*
X147023160Y-59481009D01*
X147016764Y-59459928D01*
X147014000Y-59431860D01*
X147014000Y-57618140D01*
X147016764Y-57590072D01*
X147023160Y-57568991D01*
X147033548Y-57549555D01*
X147047524Y-57532524D01*
X147064555Y-57518548D01*
X147083991Y-57508160D01*
X147105072Y-57501764D01*
X147133140Y-57499000D01*
X147596860Y-57499000D01*
X147624928Y-57501764D01*
G37*
G36*
X146354928Y-57501764D02*
G01*
X146376009Y-57508160D01*
X146395445Y-57518548D01*
X146412476Y-57532524D01*
X146426452Y-57549555D01*
X146436840Y-57568991D01*
X146443236Y-57590072D01*
X146446000Y-57618140D01*
X146446000Y-59431860D01*
X146443236Y-59459928D01*
X146436840Y-59481009D01*
X146426452Y-59500445D01*
X146412476Y-59517476D01*
X146395445Y-59531452D01*
X146376009Y-59541840D01*
X146354928Y-59548236D01*
X146326860Y-59551000D01*
X145863140Y-59551000D01*
X145835072Y-59548236D01*
X145813991Y-59541840D01*
X145794555Y-59531452D01*
X145777524Y-59517476D01*
X145763548Y-59500445D01*
X145753160Y-59481009D01*
X145746764Y-59459928D01*
X145744000Y-59431860D01*
X145744000Y-57618140D01*
X145746764Y-57590072D01*
X145753160Y-57568991D01*
X145763548Y-57549555D01*
X145777524Y-57532524D01*
X145794555Y-57518548D01*
X145813991Y-57508160D01*
X145835072Y-57501764D01*
X145863140Y-57499000D01*
X146326860Y-57499000D01*
X146354928Y-57501764D01*
G37*
G36*
X150164928Y-57501764D02*
G01*
X150186009Y-57508160D01*
X150205445Y-57518548D01*
X150222476Y-57532524D01*
X150236452Y-57549555D01*
X150246840Y-57568991D01*
X150253236Y-57590072D01*
X150256000Y-57618140D01*
X150256000Y-59431860D01*
X150253236Y-59459928D01*
X150246840Y-59481009D01*
X150236452Y-59500445D01*
X150222476Y-59517476D01*
X150205445Y-59531452D01*
X150186009Y-59541840D01*
X150164928Y-59548236D01*
X150136860Y-59551000D01*
X149673140Y-59551000D01*
X149645072Y-59548236D01*
X149623991Y-59541840D01*
X149604555Y-59531452D01*
X149587524Y-59517476D01*
X149573548Y-59500445D01*
X149563160Y-59481009D01*
X149556764Y-59459928D01*
X149554000Y-59431860D01*
X149554000Y-57618140D01*
X149556764Y-57590072D01*
X149563160Y-57568991D01*
X149573548Y-57549555D01*
X149587524Y-57532524D01*
X149604555Y-57518548D01*
X149623991Y-57508160D01*
X149645072Y-57501764D01*
X149673140Y-57499000D01*
X150136860Y-57499000D01*
X150164928Y-57501764D01*
G37*
G36*
X156290674Y-56773465D02*
G01*
X156328367Y-56784899D01*
X156363103Y-56803466D01*
X156393548Y-56828452D01*
X156418534Y-56858897D01*
X156437101Y-56893633D01*
X156448535Y-56931326D01*
X156453000Y-56976661D01*
X156453000Y-57813339D01*
X156448535Y-57858674D01*
X156437101Y-57896367D01*
X156418534Y-57931103D01*
X156393548Y-57961548D01*
X156363103Y-57986534D01*
X156328367Y-58005101D01*
X156290674Y-58016535D01*
X156245339Y-58021000D01*
X155158661Y-58021000D01*
X155113326Y-58016535D01*
X155075633Y-58005101D01*
X155040897Y-57986534D01*
X155010452Y-57961548D01*
X154985466Y-57931103D01*
X154966899Y-57896367D01*
X154955465Y-57858674D01*
X154951000Y-57813339D01*
X154951000Y-56976661D01*
X154955465Y-56931326D01*
X154966899Y-56893633D01*
X154985466Y-56858897D01*
X155010452Y-56828452D01*
X155040897Y-56803466D01*
X155075633Y-56784899D01*
X155113326Y-56773465D01*
X155158661Y-56769000D01*
X156245339Y-56769000D01*
X156290674Y-56773465D01*
G37*
G36*
X122823241Y-52604760D02*
G01*
X123087305Y-52714139D01*
X123324958Y-52872934D01*
X123527066Y-53075042D01*
X123685861Y-53312695D01*
X123795240Y-53576759D01*
X123851000Y-53857088D01*
X123851000Y-54142912D01*
X123795240Y-54423241D01*
X123685861Y-54687305D01*
X123527066Y-54924958D01*
X123324958Y-55127066D01*
X123087305Y-55285861D01*
X122823241Y-55395240D01*
X122542912Y-55451000D01*
X122257088Y-55451000D01*
X121976759Y-55395240D01*
X121712695Y-55285861D01*
X121475042Y-55127066D01*
X121428535Y-55080559D01*
X121409593Y-55065014D01*
X121387982Y-55053463D01*
X121364533Y-55046350D01*
X121340147Y-55043948D01*
X121315761Y-55046350D01*
X121292312Y-55053463D01*
X121270701Y-55065014D01*
X121251759Y-55080559D01*
X121236214Y-55099501D01*
X121224663Y-55121112D01*
X121217550Y-55144561D01*
X121215148Y-55168947D01*
X121217550Y-55193333D01*
X121224663Y-55216782D01*
X121236214Y-55238393D01*
X121285861Y-55312695D01*
X121395240Y-55576759D01*
X121451000Y-55857088D01*
X121451000Y-56142912D01*
X121395240Y-56423241D01*
X121285861Y-56687305D01*
X121127066Y-56924958D01*
X120924958Y-57127066D01*
X120687305Y-57285861D01*
X120423241Y-57395240D01*
X120142912Y-57451000D01*
X119857088Y-57451000D01*
X119576759Y-57395240D01*
X119312695Y-57285861D01*
X119075042Y-57127066D01*
X118872934Y-56924958D01*
X118714139Y-56687305D01*
X118604760Y-56423241D01*
X118549000Y-56142912D01*
X118549000Y-55857088D01*
X118604760Y-55576759D01*
X118714139Y-55312695D01*
X118872934Y-55075042D01*
X119075042Y-54872934D01*
X119312695Y-54714139D01*
X119576759Y-54604760D01*
X119857088Y-54549000D01*
X120142912Y-54549000D01*
X120423241Y-54604760D01*
X120687305Y-54714139D01*
X120924958Y-54872934D01*
X120971465Y-54919441D01*
X120990407Y-54934986D01*
X121012018Y-54946537D01*
X121035467Y-54953650D01*
X121059853Y-54956052D01*
X121084239Y-54953650D01*
X121107688Y-54946537D01*
X121129299Y-54934986D01*
X121148241Y-54919441D01*
X121163786Y-54900499D01*
X121175337Y-54878888D01*
X121182450Y-54855439D01*
X121184852Y-54831053D01*
X121182450Y-54806667D01*
X121175337Y-54783218D01*
X121163786Y-54761607D01*
X121114139Y-54687305D01*
X121004760Y-54423241D01*
X120949000Y-54142912D01*
X120949000Y-53857088D01*
X121004760Y-53576759D01*
X121114139Y-53312695D01*
X121272934Y-53075042D01*
X121475042Y-52872934D01*
X121712695Y-52714139D01*
X121976759Y-52604760D01*
X122257088Y-52549000D01*
X122542912Y-52549000D01*
X122823241Y-52604760D01*
G37*
G36*
X170356153Y-53825922D02*
G01*
X170431394Y-53857088D01*
X170578359Y-53917963D01*
X170778342Y-54051587D01*
X170948413Y-54221658D01*
X171082037Y-54421641D01*
X171099925Y-54464827D01*
X171174078Y-54643847D01*
X171176750Y-54657282D01*
X171221000Y-54879741D01*
X171221000Y-55120259D01*
X171174078Y-55356152D01*
X171082037Y-55578359D01*
X170948413Y-55778342D01*
X170778342Y-55948413D01*
X170578359Y-56082037D01*
X170448194Y-56135953D01*
X170356153Y-56174078D01*
X170238205Y-56197539D01*
X170120259Y-56221000D01*
X169879741Y-56221000D01*
X169761795Y-56197539D01*
X169643847Y-56174078D01*
X169551806Y-56135953D01*
X169421641Y-56082037D01*
X169221658Y-55948413D01*
X169051587Y-55778342D01*
X168917963Y-55578359D01*
X168825922Y-55356152D01*
X168779000Y-55120259D01*
X168779000Y-54879741D01*
X168823250Y-54657282D01*
X168825922Y-54643847D01*
X168900075Y-54464827D01*
X168917963Y-54421641D01*
X169051587Y-54221658D01*
X169221658Y-54051587D01*
X169421641Y-53917963D01*
X169568606Y-53857088D01*
X169643847Y-53825922D01*
X169879741Y-53779000D01*
X170120259Y-53779000D01*
X170356153Y-53825922D01*
G37*
G36*
X128323241Y-52604760D02*
G01*
X128587305Y-52714139D01*
X128824958Y-52872934D01*
X129027066Y-53075042D01*
X129185861Y-53312695D01*
X129295240Y-53576759D01*
X129351000Y-53857088D01*
X129351000Y-54142912D01*
X129295240Y-54423241D01*
X129185861Y-54687305D01*
X129027066Y-54924958D01*
X128824958Y-55127066D01*
X128587305Y-55285861D01*
X128323241Y-55395240D01*
X128042912Y-55451000D01*
X127757088Y-55451000D01*
X127476759Y-55395240D01*
X127212695Y-55285861D01*
X126975042Y-55127066D01*
X126772934Y-54924958D01*
X126614139Y-54687305D01*
X126504760Y-54423241D01*
X126449000Y-54142912D01*
X126449000Y-53857088D01*
X126504760Y-53576759D01*
X126614139Y-53312695D01*
X126772934Y-53075042D01*
X126975042Y-52872934D01*
X127212695Y-52714139D01*
X127476759Y-52604760D01*
X127757088Y-52549000D01*
X128042912Y-52549000D01*
X128323241Y-52604760D01*
G37*
G36*
X144479674Y-53489465D02*
G01*
X144517367Y-53500899D01*
X144552103Y-53519466D01*
X144582548Y-53544452D01*
X144607534Y-53574897D01*
X144626101Y-53609633D01*
X144637535Y-53647326D01*
X144642000Y-53692661D01*
X144642000Y-54529339D01*
X144637535Y-54574674D01*
X144626101Y-54612367D01*
X144607534Y-54647103D01*
X144582548Y-54677548D01*
X144552103Y-54702534D01*
X144517367Y-54721101D01*
X144479674Y-54732535D01*
X144434339Y-54737000D01*
X143347661Y-54737000D01*
X143302326Y-54732535D01*
X143264633Y-54721101D01*
X143229897Y-54702534D01*
X143199452Y-54677548D01*
X143174466Y-54647103D01*
X143155899Y-54612367D01*
X143144465Y-54574674D01*
X143140000Y-54529339D01*
X143140000Y-53692661D01*
X143144465Y-53647326D01*
X143155899Y-53609633D01*
X143174466Y-53574897D01*
X143199452Y-53544452D01*
X143229897Y-53519466D01*
X143264633Y-53500899D01*
X143302326Y-53489465D01*
X143347661Y-53485000D01*
X144434339Y-53485000D01*
X144479674Y-53489465D01*
G37*
G36*
X150702674Y-53489465D02*
G01*
X150740367Y-53500899D01*
X150775103Y-53519466D01*
X150805548Y-53544452D01*
X150830534Y-53574897D01*
X150849101Y-53609633D01*
X150860535Y-53647326D01*
X150865000Y-53692661D01*
X150865000Y-54529339D01*
X150860535Y-54574674D01*
X150849101Y-54612367D01*
X150830534Y-54647103D01*
X150805548Y-54677548D01*
X150775103Y-54702534D01*
X150740367Y-54721101D01*
X150702674Y-54732535D01*
X150657339Y-54737000D01*
X149570661Y-54737000D01*
X149525326Y-54732535D01*
X149487633Y-54721101D01*
X149452897Y-54702534D01*
X149422452Y-54677548D01*
X149397466Y-54647103D01*
X149378899Y-54612367D01*
X149367465Y-54574674D01*
X149363000Y-54529339D01*
X149363000Y-53692661D01*
X149367465Y-53647326D01*
X149378899Y-53609633D01*
X149397466Y-53574897D01*
X149422452Y-53544452D01*
X149452897Y-53519466D01*
X149487633Y-53500899D01*
X149525326Y-53489465D01*
X149570661Y-53485000D01*
X150657339Y-53485000D01*
X150702674Y-53489465D01*
G37*
G36*
X156290674Y-53489465D02*
G01*
X156328367Y-53500899D01*
X156363103Y-53519466D01*
X156393548Y-53544452D01*
X156418534Y-53574897D01*
X156437101Y-53609633D01*
X156448535Y-53647326D01*
X156453000Y-53692661D01*
X156453000Y-54529339D01*
X156448535Y-54574674D01*
X156437101Y-54612367D01*
X156418534Y-54647103D01*
X156393548Y-54677548D01*
X156363103Y-54702534D01*
X156328367Y-54721101D01*
X156290674Y-54732535D01*
X156245339Y-54737000D01*
X155158661Y-54737000D01*
X155113326Y-54732535D01*
X155075633Y-54721101D01*
X155040897Y-54702534D01*
X155010452Y-54677548D01*
X154985466Y-54647103D01*
X154966899Y-54612367D01*
X154955465Y-54574674D01*
X154951000Y-54529339D01*
X154951000Y-53692661D01*
X154955465Y-53647326D01*
X154966899Y-53609633D01*
X154985466Y-53574897D01*
X155010452Y-53544452D01*
X155040897Y-53519466D01*
X155075633Y-53500899D01*
X155113326Y-53489465D01*
X155158661Y-53485000D01*
X156245339Y-53485000D01*
X156290674Y-53489465D01*
G37*
G36*
X160227674Y-53489465D02*
G01*
X160265367Y-53500899D01*
X160300103Y-53519466D01*
X160330548Y-53544452D01*
X160355534Y-53574897D01*
X160374101Y-53609633D01*
X160385535Y-53647326D01*
X160390000Y-53692661D01*
X160390000Y-54529339D01*
X160385535Y-54574674D01*
X160374101Y-54612367D01*
X160355534Y-54647103D01*
X160330548Y-54677548D01*
X160300103Y-54702534D01*
X160265367Y-54721101D01*
X160227674Y-54732535D01*
X160182339Y-54737000D01*
X159095661Y-54737000D01*
X159050326Y-54732535D01*
X159012633Y-54721101D01*
X158977897Y-54702534D01*
X158947452Y-54677548D01*
X158922466Y-54647103D01*
X158903899Y-54612367D01*
X158892465Y-54574674D01*
X158888000Y-54529339D01*
X158888000Y-53692661D01*
X158892465Y-53647326D01*
X158903899Y-53609633D01*
X158922466Y-53574897D01*
X158947452Y-53544452D01*
X158977897Y-53519466D01*
X159012633Y-53500899D01*
X159050326Y-53489465D01*
X159095661Y-53485000D01*
X160182339Y-53485000D01*
X160227674Y-53489465D01*
G37*
G36*
X144479674Y-51439465D02*
G01*
X144517367Y-51450899D01*
X144552103Y-51469466D01*
X144582548Y-51494452D01*
X144607534Y-51524897D01*
X144626101Y-51559633D01*
X144637535Y-51597326D01*
X144642000Y-51642661D01*
X144642000Y-52479339D01*
X144637535Y-52524674D01*
X144626101Y-52562367D01*
X144607534Y-52597103D01*
X144582548Y-52627548D01*
X144552103Y-52652534D01*
X144517367Y-52671101D01*
X144479674Y-52682535D01*
X144434339Y-52687000D01*
X143347661Y-52687000D01*
X143302326Y-52682535D01*
X143264633Y-52671101D01*
X143229897Y-52652534D01*
X143199452Y-52627548D01*
X143174466Y-52597103D01*
X143155899Y-52562367D01*
X143144465Y-52524674D01*
X143140000Y-52479339D01*
X143140000Y-51642661D01*
X143144465Y-51597326D01*
X143155899Y-51559633D01*
X143174466Y-51524897D01*
X143199452Y-51494452D01*
X143229897Y-51469466D01*
X143264633Y-51450899D01*
X143302326Y-51439465D01*
X143347661Y-51435000D01*
X144434339Y-51435000D01*
X144479674Y-51439465D01*
G37*
G36*
X160227674Y-51439465D02*
G01*
X160265367Y-51450899D01*
X160300103Y-51469466D01*
X160330548Y-51494452D01*
X160355534Y-51524897D01*
X160374101Y-51559633D01*
X160385535Y-51597326D01*
X160390000Y-51642661D01*
X160390000Y-52479339D01*
X160385535Y-52524674D01*
X160374101Y-52562367D01*
X160355534Y-52597103D01*
X160330548Y-52627548D01*
X160300103Y-52652534D01*
X160265367Y-52671101D01*
X160227674Y-52682535D01*
X160182339Y-52687000D01*
X159095661Y-52687000D01*
X159050326Y-52682535D01*
X159012633Y-52671101D01*
X158977897Y-52652534D01*
X158947452Y-52627548D01*
X158922466Y-52597103D01*
X158903899Y-52562367D01*
X158892465Y-52524674D01*
X158888000Y-52479339D01*
X158888000Y-51642661D01*
X158892465Y-51597326D01*
X158903899Y-51559633D01*
X158922466Y-51524897D01*
X158947452Y-51494452D01*
X158977897Y-51469466D01*
X159012633Y-51450899D01*
X159050326Y-51439465D01*
X159095661Y-51435000D01*
X160182339Y-51435000D01*
X160227674Y-51439465D01*
G37*
G36*
X156290674Y-51439465D02*
G01*
X156328367Y-51450899D01*
X156363103Y-51469466D01*
X156393548Y-51494452D01*
X156418534Y-51524897D01*
X156437101Y-51559633D01*
X156448535Y-51597326D01*
X156453000Y-51642661D01*
X156453000Y-52479339D01*
X156448535Y-52524674D01*
X156437101Y-52562367D01*
X156418534Y-52597103D01*
X156393548Y-52627548D01*
X156363103Y-52652534D01*
X156328367Y-52671101D01*
X156290674Y-52682535D01*
X156245339Y-52687000D01*
X155158661Y-52687000D01*
X155113326Y-52682535D01*
X155075633Y-52671101D01*
X155040897Y-52652534D01*
X155010452Y-52627548D01*
X154985466Y-52597103D01*
X154966899Y-52562367D01*
X154955465Y-52524674D01*
X154951000Y-52479339D01*
X154951000Y-51642661D01*
X154955465Y-51597326D01*
X154966899Y-51559633D01*
X154985466Y-51524897D01*
X155010452Y-51494452D01*
X155040897Y-51469466D01*
X155075633Y-51450899D01*
X155113326Y-51439465D01*
X155158661Y-51435000D01*
X156245339Y-51435000D01*
X156290674Y-51439465D01*
G37*
G36*
X150702674Y-51439465D02*
G01*
X150740367Y-51450899D01*
X150775103Y-51469466D01*
X150805548Y-51494452D01*
X150830534Y-51524897D01*
X150849101Y-51559633D01*
X150860535Y-51597326D01*
X150865000Y-51642661D01*
X150865000Y-52479339D01*
X150860535Y-52524674D01*
X150849101Y-52562367D01*
X150830534Y-52597103D01*
X150805548Y-52627548D01*
X150775103Y-52652534D01*
X150740367Y-52671101D01*
X150702674Y-52682535D01*
X150657339Y-52687000D01*
X149570661Y-52687000D01*
X149525326Y-52682535D01*
X149487633Y-52671101D01*
X149452897Y-52652534D01*
X149422452Y-52627548D01*
X149397466Y-52597103D01*
X149378899Y-52562367D01*
X149367465Y-52524674D01*
X149363000Y-52479339D01*
X149363000Y-51642661D01*
X149367465Y-51597326D01*
X149378899Y-51559633D01*
X149397466Y-51524897D01*
X149422452Y-51494452D01*
X149452897Y-51469466D01*
X149487633Y-51450899D01*
X149525326Y-51439465D01*
X149570661Y-51435000D01*
X150657339Y-51435000D01*
X150702674Y-51439465D01*
G37*
G36*
X166422416Y-47884879D02*
G01*
X166613592Y-47964067D01*
X166613594Y-47964068D01*
X166745865Y-48052449D01*
X166785648Y-48079031D01*
X166931969Y-48225352D01*
X167046933Y-48397408D01*
X167126121Y-48588584D01*
X167166490Y-48791534D01*
X167166490Y-48998466D01*
X167126121Y-49201416D01*
X167046933Y-49392592D01*
X167046932Y-49392594D01*
X166931969Y-49564648D01*
X166785648Y-49710969D01*
X166613594Y-49825932D01*
X166613593Y-49825933D01*
X166613592Y-49825933D01*
X166422416Y-49905121D01*
X166219466Y-49945490D01*
X166012534Y-49945490D01*
X165809584Y-49905121D01*
X165618408Y-49825933D01*
X165618407Y-49825933D01*
X165618406Y-49825932D01*
X165446352Y-49710969D01*
X165300031Y-49564648D01*
X165185068Y-49392594D01*
X165185067Y-49392592D01*
X165105879Y-49201416D01*
X165065510Y-48998466D01*
X165065510Y-48791534D01*
X165105879Y-48588584D01*
X165185067Y-48397408D01*
X165300031Y-48225352D01*
X165446352Y-48079031D01*
X165486135Y-48052449D01*
X165618406Y-47964068D01*
X165618408Y-47964067D01*
X165809584Y-47884879D01*
X166012534Y-47844510D01*
X166219466Y-47844510D01*
X166422416Y-47884879D01*
G37*
G36*
X173375256Y-45391298D02*
G01*
X173481579Y-45412447D01*
X173782042Y-45536903D01*
X174052451Y-45717585D01*
X174282415Y-45947549D01*
X174463097Y-46217958D01*
X174587553Y-46518421D01*
X174651000Y-46837391D01*
X174651000Y-47162609D01*
X174587553Y-47481579D01*
X174463097Y-47782042D01*
X174282415Y-48052451D01*
X174052451Y-48282415D01*
X173782042Y-48463097D01*
X173481579Y-48587553D01*
X173375256Y-48608702D01*
X173162611Y-48651000D01*
X172837389Y-48651000D01*
X172624744Y-48608702D01*
X172518421Y-48587553D01*
X172217958Y-48463097D01*
X171947549Y-48282415D01*
X171717585Y-48052451D01*
X171536903Y-47782042D01*
X171412447Y-47481579D01*
X171349000Y-47162609D01*
X171349000Y-46837391D01*
X171412447Y-46518421D01*
X171536903Y-46217958D01*
X171717585Y-45947549D01*
X171947549Y-45717585D01*
X172217958Y-45536903D01*
X172518421Y-45412447D01*
X172624744Y-45391298D01*
X172837389Y-45349000D01*
X173162611Y-45349000D01*
X173375256Y-45391298D01*
G37*
G36*
X117375256Y-45391298D02*
G01*
X117481579Y-45412447D01*
X117782042Y-45536903D01*
X118052451Y-45717585D01*
X118282415Y-45947549D01*
X118463097Y-46217958D01*
X118587553Y-46518421D01*
X118651000Y-46837391D01*
X118651000Y-47162609D01*
X118587553Y-47481579D01*
X118463097Y-47782042D01*
X118282415Y-48052451D01*
X118052451Y-48282415D01*
X117782042Y-48463097D01*
X117481579Y-48587553D01*
X117375256Y-48608702D01*
X117162611Y-48651000D01*
X116837389Y-48651000D01*
X116624744Y-48608702D01*
X116518421Y-48587553D01*
X116217958Y-48463097D01*
X115947549Y-48282415D01*
X115717585Y-48052451D01*
X115536903Y-47782042D01*
X115412447Y-47481579D01*
X115349000Y-47162609D01*
X115349000Y-46837391D01*
X115412447Y-46518421D01*
X115536903Y-46217958D01*
X115717585Y-45947549D01*
X115947549Y-45717585D01*
X116217958Y-45536903D01*
X116518421Y-45412447D01*
X116624744Y-45391298D01*
X116837389Y-45349000D01*
X117162611Y-45349000D01*
X117375256Y-45391298D01*
G37*
M02*
