M48
; DRILL file {KiCad 5.1.5+dfsg1-2build2} date mar 08 jun 2021 21:57:58
; FORMAT={-:-/ absolute / metric / decimal}
; #@! TF.CreationDate,2021-06-08T21:57:58-05:00
; #@! TF.GenerationSoftware,Kicad,Pcbnew,5.1.5+dfsg1-2build2
; #@! TF.FileFunction,Plated,1,2,PTH
FMAT,2
METRIC
T1C0.400
T2C0.800
T3C1.200
T4C1.300
T5C2.000
%
G90
G05
T1
X134.366Y-58.166
X135.382Y-63.627
X137.922Y-93.726
X139.065Y-89.916
X141.478Y-67.691
X141.986Y-72.263
X142.24Y-79.717
X142.367Y-87.884
X142.621Y-103.378
X142.748Y-60.579
X142.748Y-90.297
X143.764Y-56.642
X144.526Y-72.263
X144.526Y-83.947
X146.685Y-78.867
X147.447Y-90.551
X147.574Y-95.504
X150.241Y-90.043
X152.146Y-92.456
X152.4Y-65.024
X152.4Y-67.945
X153.416Y-80.518
X153.416Y-84.582
X153.924Y-89.662
X158.242Y-56.007
X160.782Y-75.692
X161.671Y-54.737
X161.671Y-58.674
X161.671Y-64.897
X161.671Y-92.583
X164.973Y-64.77
X165.227Y-92.583
X165.354Y-75.311
T2
X166.116Y-108.458
X166.116Y-48.895
T3
X118.745Y-97.155
X118.745Y-100.655
X118.745Y-104.155
T4
X170.0Y-74.0
X170.0Y-79.0
X170.0Y-84.0
X170.0Y-93.0
X170.0Y-98.0
X170.0Y-103.0
X170.0Y-55.0
X170.0Y-60.0
X170.0Y-65.0
T5
X120.0Y-89.0
X122.4Y-87.0
X127.9Y-87.0
X120.0Y-67.0
X122.4Y-65.0
X127.9Y-65.0
X120.0Y-78.0
X122.4Y-76.0
X127.9Y-76.0
X120.0Y-56.0
X122.4Y-54.0
X127.9Y-54.0
T0
M30
