G04 #@! TF.GenerationSoftware,KiCad,Pcbnew,5.1.5+dfsg1-2build2*
G04 #@! TF.CreationDate,2021-06-09T21:47:52-05:00*
G04 #@! TF.ProjectId,3inaudiomixer,33696e61-7564-4696-9f6d-697865722e6b,rev?*
G04 #@! TF.SameCoordinates,Original*
G04 #@! TF.FileFunction,Soldermask,Bot*
G04 #@! TF.FilePolarity,Negative*
%FSLAX46Y46*%
G04 Gerber Fmt 4.6, Leading zero omitted, Abs format (unit mm)*
G04 Created by KiCad (PCBNEW 5.1.5+dfsg1-2build2) date 2021-06-09 21:47:52*
%MOMM*%
%LPD*%
G04 APERTURE LIST*
%ADD10C,0.100000*%
G04 APERTURE END LIST*
D10*
G36*
X173363361Y-109388932D02*
G01*
X173481579Y-109412447D01*
X173782042Y-109536903D01*
X174052451Y-109717585D01*
X174282415Y-109947549D01*
X174463097Y-110217958D01*
X174587553Y-110518421D01*
X174651000Y-110837391D01*
X174651000Y-111162609D01*
X174587553Y-111481579D01*
X174463097Y-111782042D01*
X174282415Y-112052451D01*
X174052451Y-112282415D01*
X173782042Y-112463097D01*
X173481579Y-112587553D01*
X173375256Y-112608702D01*
X173162611Y-112651000D01*
X172837389Y-112651000D01*
X172624744Y-112608702D01*
X172518421Y-112587553D01*
X172217958Y-112463097D01*
X171947549Y-112282415D01*
X171717585Y-112052451D01*
X171536903Y-111782042D01*
X171412447Y-111481579D01*
X171349000Y-111162609D01*
X171349000Y-110837391D01*
X171412447Y-110518421D01*
X171536903Y-110217958D01*
X171717585Y-109947549D01*
X171947549Y-109717585D01*
X172217958Y-109536903D01*
X172518421Y-109412447D01*
X172636639Y-109388932D01*
X172837389Y-109349000D01*
X173162611Y-109349000D01*
X173363361Y-109388932D01*
G37*
G36*
X117363361Y-109388932D02*
G01*
X117481579Y-109412447D01*
X117782042Y-109536903D01*
X118052451Y-109717585D01*
X118282415Y-109947549D01*
X118463097Y-110217958D01*
X118587553Y-110518421D01*
X118651000Y-110837391D01*
X118651000Y-111162609D01*
X118587553Y-111481579D01*
X118463097Y-111782042D01*
X118282415Y-112052451D01*
X118052451Y-112282415D01*
X117782042Y-112463097D01*
X117481579Y-112587553D01*
X117375256Y-112608702D01*
X117162611Y-112651000D01*
X116837389Y-112651000D01*
X116624744Y-112608702D01*
X116518421Y-112587553D01*
X116217958Y-112463097D01*
X115947549Y-112282415D01*
X115717585Y-112052451D01*
X115536903Y-111782042D01*
X115412447Y-111481579D01*
X115349000Y-111162609D01*
X115349000Y-110837391D01*
X115412447Y-110518421D01*
X115536903Y-110217958D01*
X115717585Y-109947549D01*
X115947549Y-109717585D01*
X116217958Y-109536903D01*
X116518421Y-109412447D01*
X116636639Y-109388932D01*
X116837389Y-109349000D01*
X117162611Y-109349000D01*
X117363361Y-109388932D01*
G37*
G36*
X166422416Y-107447879D02*
G01*
X166613592Y-107527067D01*
X166613594Y-107527068D01*
X166785648Y-107642031D01*
X166931969Y-107788352D01*
X167046933Y-107960408D01*
X167126121Y-108151584D01*
X167166490Y-108354534D01*
X167166490Y-108561466D01*
X167126121Y-108764416D01*
X167046933Y-108955592D01*
X167046932Y-108955594D01*
X166931969Y-109127648D01*
X166785648Y-109273969D01*
X166613594Y-109388932D01*
X166613593Y-109388933D01*
X166613592Y-109388933D01*
X166422416Y-109468121D01*
X166219466Y-109508490D01*
X166012534Y-109508490D01*
X165809584Y-109468121D01*
X165618408Y-109388933D01*
X165618407Y-109388933D01*
X165618406Y-109388932D01*
X165446352Y-109273969D01*
X165300031Y-109127648D01*
X165185068Y-108955594D01*
X165185067Y-108955592D01*
X165105879Y-108764416D01*
X165065510Y-108561466D01*
X165065510Y-108354534D01*
X165105879Y-108151584D01*
X165185067Y-107960408D01*
X165300031Y-107788352D01*
X165446352Y-107642031D01*
X165618406Y-107527068D01*
X165618408Y-107527067D01*
X165809584Y-107447879D01*
X166012534Y-107407510D01*
X166219466Y-107407510D01*
X166422416Y-107447879D01*
G37*
G36*
X119109903Y-102952075D02*
G01*
X119337571Y-103046378D01*
X119542466Y-103183285D01*
X119716715Y-103357534D01*
X119716716Y-103357536D01*
X119853623Y-103562431D01*
X119860221Y-103578360D01*
X119947925Y-103790097D01*
X119996000Y-104031787D01*
X119996000Y-104278213D01*
X119947925Y-104519903D01*
X119853622Y-104747571D01*
X119716715Y-104952466D01*
X119542466Y-105126715D01*
X119337571Y-105263622D01*
X119337570Y-105263623D01*
X119337569Y-105263623D01*
X119109903Y-105357925D01*
X118868214Y-105406000D01*
X118621786Y-105406000D01*
X118380097Y-105357925D01*
X118152431Y-105263623D01*
X118152430Y-105263623D01*
X118152429Y-105263622D01*
X117947534Y-105126715D01*
X117773285Y-104952466D01*
X117636378Y-104747571D01*
X117542075Y-104519903D01*
X117494000Y-104278213D01*
X117494000Y-104031787D01*
X117542075Y-103790097D01*
X117629779Y-103578360D01*
X117636377Y-103562431D01*
X117773284Y-103357536D01*
X117773285Y-103357534D01*
X117947534Y-103183285D01*
X118152429Y-103046378D01*
X118380097Y-102952075D01*
X118621786Y-102904000D01*
X118868214Y-102904000D01*
X119109903Y-102952075D01*
G37*
G36*
X170356153Y-101825922D02*
G01*
X170433414Y-101857925D01*
X170578359Y-101917963D01*
X170778342Y-102051587D01*
X170948413Y-102221658D01*
X171082037Y-102421641D01*
X171174078Y-102643848D01*
X171221000Y-102879741D01*
X171221000Y-103120259D01*
X171174078Y-103356152D01*
X171082037Y-103578359D01*
X170948413Y-103778342D01*
X170778342Y-103948413D01*
X170578359Y-104082037D01*
X170448194Y-104135953D01*
X170356153Y-104174078D01*
X170120259Y-104221000D01*
X169879741Y-104221000D01*
X169643847Y-104174078D01*
X169551806Y-104135953D01*
X169421641Y-104082037D01*
X169221658Y-103948413D01*
X169051587Y-103778342D01*
X168917963Y-103578359D01*
X168825922Y-103356152D01*
X168779000Y-103120259D01*
X168779000Y-102879741D01*
X168825922Y-102643848D01*
X168917963Y-102421641D01*
X169051587Y-102221658D01*
X169221658Y-102051587D01*
X169421641Y-101917963D01*
X169566586Y-101857925D01*
X169643847Y-101825922D01*
X169879741Y-101779000D01*
X170120259Y-101779000D01*
X170356153Y-101825922D01*
G37*
G36*
X119109903Y-99452075D02*
G01*
X119337571Y-99546378D01*
X119542466Y-99683285D01*
X119716715Y-99857534D01*
X119853622Y-100062429D01*
X119947925Y-100290097D01*
X119996000Y-100531787D01*
X119996000Y-100778213D01*
X119947925Y-101019903D01*
X119853622Y-101247571D01*
X119716715Y-101452466D01*
X119542466Y-101626715D01*
X119337571Y-101763622D01*
X119337570Y-101763623D01*
X119337569Y-101763623D01*
X119109903Y-101857925D01*
X118868214Y-101906000D01*
X118621786Y-101906000D01*
X118380097Y-101857925D01*
X118152431Y-101763623D01*
X118152430Y-101763623D01*
X118152429Y-101763622D01*
X117947534Y-101626715D01*
X117773285Y-101452466D01*
X117636378Y-101247571D01*
X117542075Y-101019903D01*
X117494000Y-100778213D01*
X117494000Y-100531787D01*
X117542075Y-100290097D01*
X117636378Y-100062429D01*
X117773285Y-99857534D01*
X117947534Y-99683285D01*
X118152429Y-99546378D01*
X118380097Y-99452075D01*
X118621786Y-99404000D01*
X118868214Y-99404000D01*
X119109903Y-99452075D01*
G37*
G36*
X170238205Y-96802461D02*
G01*
X170356153Y-96825922D01*
X170448194Y-96864047D01*
X170578359Y-96917963D01*
X170778342Y-97051587D01*
X170948413Y-97221658D01*
X171082037Y-97421641D01*
X171135953Y-97551806D01*
X171174078Y-97643847D01*
X171221000Y-97879742D01*
X171221000Y-98120258D01*
X171174078Y-98356153D01*
X171135953Y-98448194D01*
X171082037Y-98578359D01*
X170948413Y-98778342D01*
X170778342Y-98948413D01*
X170578359Y-99082037D01*
X170448194Y-99135953D01*
X170356153Y-99174078D01*
X170120259Y-99221000D01*
X169879741Y-99221000D01*
X169643847Y-99174078D01*
X169551806Y-99135953D01*
X169421641Y-99082037D01*
X169221658Y-98948413D01*
X169051587Y-98778342D01*
X168917963Y-98578359D01*
X168864047Y-98448194D01*
X168825922Y-98356153D01*
X168779000Y-98120258D01*
X168779000Y-97879742D01*
X168825922Y-97643847D01*
X168864047Y-97551806D01*
X168917963Y-97421641D01*
X169051587Y-97221658D01*
X169221658Y-97051587D01*
X169421641Y-96917963D01*
X169551806Y-96864047D01*
X169643847Y-96825922D01*
X169879741Y-96779000D01*
X170120259Y-96779000D01*
X170238205Y-96802461D01*
G37*
G36*
X119996000Y-98406000D02*
G01*
X117494000Y-98406000D01*
X117494000Y-95904000D01*
X119996000Y-95904000D01*
X119996000Y-98406000D01*
G37*
G36*
X170356153Y-91825922D02*
G01*
X170448194Y-91864047D01*
X170578359Y-91917963D01*
X170778342Y-92051587D01*
X170948413Y-92221658D01*
X171082037Y-92421641D01*
X171174078Y-92643848D01*
X171221000Y-92879741D01*
X171221000Y-93120259D01*
X171174078Y-93356152D01*
X171082037Y-93578359D01*
X170948413Y-93778342D01*
X170778342Y-93948413D01*
X170578359Y-94082037D01*
X170448194Y-94135953D01*
X170356153Y-94174078D01*
X170238205Y-94197539D01*
X170120259Y-94221000D01*
X169879741Y-94221000D01*
X169761795Y-94197539D01*
X169643847Y-94174078D01*
X169551806Y-94135953D01*
X169421641Y-94082037D01*
X169221658Y-93948413D01*
X169051587Y-93778342D01*
X168917963Y-93578359D01*
X168825922Y-93356152D01*
X168779000Y-93120259D01*
X168779000Y-92879741D01*
X168825922Y-92643848D01*
X168917963Y-92421641D01*
X169051587Y-92221658D01*
X169221658Y-92051587D01*
X169421641Y-91917963D01*
X169551806Y-91864047D01*
X169643847Y-91825922D01*
X169761795Y-91802461D01*
X169879741Y-91779000D01*
X170120259Y-91779000D01*
X170356153Y-91825922D01*
G37*
G36*
X122823241Y-85604760D02*
G01*
X123087305Y-85714139D01*
X123324958Y-85872934D01*
X123527066Y-86075042D01*
X123685861Y-86312695D01*
X123795240Y-86576759D01*
X123851000Y-86857088D01*
X123851000Y-87142912D01*
X123795240Y-87423241D01*
X123685861Y-87687305D01*
X123527066Y-87924958D01*
X123324958Y-88127066D01*
X123087305Y-88285861D01*
X122823241Y-88395240D01*
X122542912Y-88451000D01*
X122257088Y-88451000D01*
X121976759Y-88395240D01*
X121712695Y-88285861D01*
X121475042Y-88127066D01*
X121428535Y-88080559D01*
X121409593Y-88065014D01*
X121387982Y-88053463D01*
X121364533Y-88046350D01*
X121340147Y-88043948D01*
X121315761Y-88046350D01*
X121292312Y-88053463D01*
X121270701Y-88065014D01*
X121251759Y-88080559D01*
X121236214Y-88099501D01*
X121224663Y-88121112D01*
X121217550Y-88144561D01*
X121215148Y-88168947D01*
X121217550Y-88193333D01*
X121224663Y-88216782D01*
X121236214Y-88238393D01*
X121285861Y-88312695D01*
X121395240Y-88576759D01*
X121451000Y-88857088D01*
X121451000Y-89142912D01*
X121395240Y-89423241D01*
X121285861Y-89687305D01*
X121127066Y-89924958D01*
X120924958Y-90127066D01*
X120687305Y-90285861D01*
X120423241Y-90395240D01*
X120142912Y-90451000D01*
X119857088Y-90451000D01*
X119576759Y-90395240D01*
X119312695Y-90285861D01*
X119075042Y-90127066D01*
X118872934Y-89924958D01*
X118714139Y-89687305D01*
X118604760Y-89423241D01*
X118549000Y-89142912D01*
X118549000Y-88857088D01*
X118604760Y-88576759D01*
X118714139Y-88312695D01*
X118872934Y-88075042D01*
X119075042Y-87872934D01*
X119312695Y-87714139D01*
X119576759Y-87604760D01*
X119857088Y-87549000D01*
X120142912Y-87549000D01*
X120423241Y-87604760D01*
X120687305Y-87714139D01*
X120924958Y-87872934D01*
X120971465Y-87919441D01*
X120990407Y-87934986D01*
X121012018Y-87946537D01*
X121035467Y-87953650D01*
X121059853Y-87956052D01*
X121084239Y-87953650D01*
X121107688Y-87946537D01*
X121129299Y-87934986D01*
X121148241Y-87919441D01*
X121163786Y-87900499D01*
X121175337Y-87878888D01*
X121182450Y-87855439D01*
X121184852Y-87831053D01*
X121182450Y-87806667D01*
X121175337Y-87783218D01*
X121163786Y-87761607D01*
X121114139Y-87687305D01*
X121004760Y-87423241D01*
X120949000Y-87142912D01*
X120949000Y-86857088D01*
X121004760Y-86576759D01*
X121114139Y-86312695D01*
X121272934Y-86075042D01*
X121475042Y-85872934D01*
X121712695Y-85714139D01*
X121976759Y-85604760D01*
X122257088Y-85549000D01*
X122542912Y-85549000D01*
X122823241Y-85604760D01*
G37*
G36*
X128323241Y-85604760D02*
G01*
X128587305Y-85714139D01*
X128824958Y-85872934D01*
X129027066Y-86075042D01*
X129185861Y-86312695D01*
X129295240Y-86576759D01*
X129351000Y-86857088D01*
X129351000Y-87142912D01*
X129295240Y-87423241D01*
X129185861Y-87687305D01*
X129027066Y-87924958D01*
X128824958Y-88127066D01*
X128587305Y-88285861D01*
X128323241Y-88395240D01*
X128042912Y-88451000D01*
X127757088Y-88451000D01*
X127476759Y-88395240D01*
X127212695Y-88285861D01*
X126975042Y-88127066D01*
X126772934Y-87924958D01*
X126614139Y-87687305D01*
X126504760Y-87423241D01*
X126449000Y-87142912D01*
X126449000Y-86857088D01*
X126504760Y-86576759D01*
X126614139Y-86312695D01*
X126772934Y-86075042D01*
X126975042Y-85872934D01*
X127212695Y-85714139D01*
X127476759Y-85604760D01*
X127757088Y-85549000D01*
X128042912Y-85549000D01*
X128323241Y-85604760D01*
G37*
G36*
X170238205Y-82802461D02*
G01*
X170356153Y-82825922D01*
X170448194Y-82864047D01*
X170578359Y-82917963D01*
X170778342Y-83051587D01*
X170948413Y-83221658D01*
X171082037Y-83421641D01*
X171174078Y-83643848D01*
X171221000Y-83879741D01*
X171221000Y-84120259D01*
X171174078Y-84356152D01*
X171082037Y-84578359D01*
X170948413Y-84778342D01*
X170778342Y-84948413D01*
X170578359Y-85082037D01*
X170448194Y-85135953D01*
X170356153Y-85174078D01*
X170120259Y-85221000D01*
X169879741Y-85221000D01*
X169643847Y-85174078D01*
X169551806Y-85135953D01*
X169421641Y-85082037D01*
X169221658Y-84948413D01*
X169051587Y-84778342D01*
X168917963Y-84578359D01*
X168825922Y-84356152D01*
X168779000Y-84120259D01*
X168779000Y-83879741D01*
X168825922Y-83643848D01*
X168917963Y-83421641D01*
X169051587Y-83221658D01*
X169221658Y-83051587D01*
X169421641Y-82917963D01*
X169551806Y-82864047D01*
X169643847Y-82825922D01*
X169879741Y-82779000D01*
X170120259Y-82779000D01*
X170238205Y-82802461D01*
G37*
G36*
X170238205Y-77802461D02*
G01*
X170356153Y-77825922D01*
X170431394Y-77857088D01*
X170578359Y-77917963D01*
X170778342Y-78051587D01*
X170948413Y-78221658D01*
X171082037Y-78421641D01*
X171174078Y-78643848D01*
X171221000Y-78879741D01*
X171221000Y-79120259D01*
X171174078Y-79356152D01*
X171082037Y-79578359D01*
X170948413Y-79778342D01*
X170778342Y-79948413D01*
X170578359Y-80082037D01*
X170448194Y-80135953D01*
X170356153Y-80174078D01*
X170238205Y-80197539D01*
X170120259Y-80221000D01*
X169879741Y-80221000D01*
X169761795Y-80197539D01*
X169643847Y-80174078D01*
X169551806Y-80135953D01*
X169421641Y-80082037D01*
X169221658Y-79948413D01*
X169051587Y-79778342D01*
X168917963Y-79578359D01*
X168825922Y-79356152D01*
X168779000Y-79120259D01*
X168779000Y-78879741D01*
X168825922Y-78643848D01*
X168917963Y-78421641D01*
X169051587Y-78221658D01*
X169221658Y-78051587D01*
X169421641Y-77917963D01*
X169568606Y-77857088D01*
X169643847Y-77825922D01*
X169761795Y-77802461D01*
X169879741Y-77779000D01*
X170120259Y-77779000D01*
X170238205Y-77802461D01*
G37*
G36*
X122823241Y-74604760D02*
G01*
X123087305Y-74714139D01*
X123324958Y-74872934D01*
X123527066Y-75075042D01*
X123685861Y-75312695D01*
X123795240Y-75576759D01*
X123851000Y-75857088D01*
X123851000Y-76142912D01*
X123795240Y-76423241D01*
X123685861Y-76687305D01*
X123527066Y-76924958D01*
X123324958Y-77127066D01*
X123087305Y-77285861D01*
X122823241Y-77395240D01*
X122542912Y-77451000D01*
X122257088Y-77451000D01*
X121976759Y-77395240D01*
X121712695Y-77285861D01*
X121475042Y-77127066D01*
X121428535Y-77080559D01*
X121409593Y-77065014D01*
X121387982Y-77053463D01*
X121364533Y-77046350D01*
X121340147Y-77043948D01*
X121315761Y-77046350D01*
X121292312Y-77053463D01*
X121270701Y-77065014D01*
X121251759Y-77080559D01*
X121236214Y-77099501D01*
X121224663Y-77121112D01*
X121217550Y-77144561D01*
X121215148Y-77168947D01*
X121217550Y-77193333D01*
X121224663Y-77216782D01*
X121236214Y-77238393D01*
X121285861Y-77312695D01*
X121395240Y-77576759D01*
X121451000Y-77857088D01*
X121451000Y-78142912D01*
X121395240Y-78423241D01*
X121285861Y-78687305D01*
X121127066Y-78924958D01*
X120924958Y-79127066D01*
X120687305Y-79285861D01*
X120423241Y-79395240D01*
X120142912Y-79451000D01*
X119857088Y-79451000D01*
X119576759Y-79395240D01*
X119312695Y-79285861D01*
X119075042Y-79127066D01*
X118872934Y-78924958D01*
X118714139Y-78687305D01*
X118604760Y-78423241D01*
X118549000Y-78142912D01*
X118549000Y-77857088D01*
X118604760Y-77576759D01*
X118714139Y-77312695D01*
X118872934Y-77075042D01*
X119075042Y-76872934D01*
X119312695Y-76714139D01*
X119576759Y-76604760D01*
X119857088Y-76549000D01*
X120142912Y-76549000D01*
X120423241Y-76604760D01*
X120687305Y-76714139D01*
X120924958Y-76872934D01*
X120971465Y-76919441D01*
X120990407Y-76934986D01*
X121012018Y-76946537D01*
X121035467Y-76953650D01*
X121059853Y-76956052D01*
X121084239Y-76953650D01*
X121107688Y-76946537D01*
X121129299Y-76934986D01*
X121148241Y-76919441D01*
X121163786Y-76900499D01*
X121175337Y-76878888D01*
X121182450Y-76855439D01*
X121184852Y-76831053D01*
X121182450Y-76806667D01*
X121175337Y-76783218D01*
X121163786Y-76761607D01*
X121114139Y-76687305D01*
X121004760Y-76423241D01*
X120949000Y-76142912D01*
X120949000Y-75857088D01*
X121004760Y-75576759D01*
X121114139Y-75312695D01*
X121272934Y-75075042D01*
X121475042Y-74872934D01*
X121712695Y-74714139D01*
X121976759Y-74604760D01*
X122257088Y-74549000D01*
X122542912Y-74549000D01*
X122823241Y-74604760D01*
G37*
G36*
X128323241Y-74604760D02*
G01*
X128587305Y-74714139D01*
X128824958Y-74872934D01*
X129027066Y-75075042D01*
X129185861Y-75312695D01*
X129295240Y-75576759D01*
X129351000Y-75857088D01*
X129351000Y-76142912D01*
X129295240Y-76423241D01*
X129185861Y-76687305D01*
X129027066Y-76924958D01*
X128824958Y-77127066D01*
X128587305Y-77285861D01*
X128323241Y-77395240D01*
X128042912Y-77451000D01*
X127757088Y-77451000D01*
X127476759Y-77395240D01*
X127212695Y-77285861D01*
X126975042Y-77127066D01*
X126772934Y-76924958D01*
X126614139Y-76687305D01*
X126504760Y-76423241D01*
X126449000Y-76142912D01*
X126449000Y-75857088D01*
X126504760Y-75576759D01*
X126614139Y-75312695D01*
X126772934Y-75075042D01*
X126975042Y-74872934D01*
X127212695Y-74714139D01*
X127476759Y-74604760D01*
X127757088Y-74549000D01*
X128042912Y-74549000D01*
X128323241Y-74604760D01*
G37*
G36*
X170356153Y-72825922D02*
G01*
X170448194Y-72864047D01*
X170578359Y-72917963D01*
X170778342Y-73051587D01*
X170948413Y-73221658D01*
X171082037Y-73421641D01*
X171174078Y-73643848D01*
X171221000Y-73879741D01*
X171221000Y-74120259D01*
X171174078Y-74356152D01*
X171082037Y-74578359D01*
X170948413Y-74778342D01*
X170778342Y-74948413D01*
X170578359Y-75082037D01*
X170448194Y-75135953D01*
X170356153Y-75174078D01*
X170120259Y-75221000D01*
X169879741Y-75221000D01*
X169643847Y-75174078D01*
X169551806Y-75135953D01*
X169421641Y-75082037D01*
X169221658Y-74948413D01*
X169051587Y-74778342D01*
X168917963Y-74578359D01*
X168825922Y-74356152D01*
X168779000Y-74120259D01*
X168779000Y-73879741D01*
X168825922Y-73643848D01*
X168917963Y-73421641D01*
X169051587Y-73221658D01*
X169221658Y-73051587D01*
X169421641Y-72917963D01*
X169551806Y-72864047D01*
X169643847Y-72825922D01*
X169879741Y-72779000D01*
X170120259Y-72779000D01*
X170356153Y-72825922D01*
G37*
G36*
X122823241Y-63604760D02*
G01*
X123087305Y-63714139D01*
X123324958Y-63872934D01*
X123527066Y-64075042D01*
X123685861Y-64312695D01*
X123795240Y-64576759D01*
X123851000Y-64857088D01*
X123851000Y-65142912D01*
X123795240Y-65423241D01*
X123685861Y-65687305D01*
X123527066Y-65924958D01*
X123324958Y-66127066D01*
X123087305Y-66285861D01*
X122823241Y-66395240D01*
X122542912Y-66451000D01*
X122257088Y-66451000D01*
X121976759Y-66395240D01*
X121712695Y-66285861D01*
X121475042Y-66127066D01*
X121428535Y-66080559D01*
X121409593Y-66065014D01*
X121387982Y-66053463D01*
X121364533Y-66046350D01*
X121340147Y-66043948D01*
X121315761Y-66046350D01*
X121292312Y-66053463D01*
X121270701Y-66065014D01*
X121251759Y-66080559D01*
X121236214Y-66099501D01*
X121224663Y-66121112D01*
X121217550Y-66144561D01*
X121215148Y-66168947D01*
X121217550Y-66193333D01*
X121224663Y-66216782D01*
X121236214Y-66238393D01*
X121285861Y-66312695D01*
X121395240Y-66576759D01*
X121451000Y-66857088D01*
X121451000Y-67142912D01*
X121395240Y-67423241D01*
X121285861Y-67687305D01*
X121127066Y-67924958D01*
X120924958Y-68127066D01*
X120687305Y-68285861D01*
X120423241Y-68395240D01*
X120142912Y-68451000D01*
X119857088Y-68451000D01*
X119576759Y-68395240D01*
X119312695Y-68285861D01*
X119075042Y-68127066D01*
X118872934Y-67924958D01*
X118714139Y-67687305D01*
X118604760Y-67423241D01*
X118549000Y-67142912D01*
X118549000Y-66857088D01*
X118604760Y-66576759D01*
X118714139Y-66312695D01*
X118872934Y-66075042D01*
X119075042Y-65872934D01*
X119312695Y-65714139D01*
X119576759Y-65604760D01*
X119857088Y-65549000D01*
X120142912Y-65549000D01*
X120423241Y-65604760D01*
X120687305Y-65714139D01*
X120924958Y-65872934D01*
X120971465Y-65919441D01*
X120990407Y-65934986D01*
X121012018Y-65946537D01*
X121035467Y-65953650D01*
X121059853Y-65956052D01*
X121084239Y-65953650D01*
X121107688Y-65946537D01*
X121129299Y-65934986D01*
X121148241Y-65919441D01*
X121163786Y-65900499D01*
X121175337Y-65878888D01*
X121182450Y-65855439D01*
X121184852Y-65831053D01*
X121182450Y-65806667D01*
X121175337Y-65783218D01*
X121163786Y-65761607D01*
X121114139Y-65687305D01*
X121004760Y-65423241D01*
X120949000Y-65142912D01*
X120949000Y-64857088D01*
X121004760Y-64576759D01*
X121114139Y-64312695D01*
X121272934Y-64075042D01*
X121475042Y-63872934D01*
X121712695Y-63714139D01*
X121976759Y-63604760D01*
X122257088Y-63549000D01*
X122542912Y-63549000D01*
X122823241Y-63604760D01*
G37*
G36*
X128323241Y-63604760D02*
G01*
X128587305Y-63714139D01*
X128824958Y-63872934D01*
X129027066Y-64075042D01*
X129185861Y-64312695D01*
X129295240Y-64576759D01*
X129351000Y-64857088D01*
X129351000Y-65142912D01*
X129295240Y-65423241D01*
X129185861Y-65687305D01*
X129027066Y-65924958D01*
X128824958Y-66127066D01*
X128587305Y-66285861D01*
X128323241Y-66395240D01*
X128042912Y-66451000D01*
X127757088Y-66451000D01*
X127476759Y-66395240D01*
X127212695Y-66285861D01*
X126975042Y-66127066D01*
X126772934Y-65924958D01*
X126614139Y-65687305D01*
X126504760Y-65423241D01*
X126449000Y-65142912D01*
X126449000Y-64857088D01*
X126504760Y-64576759D01*
X126614139Y-64312695D01*
X126772934Y-64075042D01*
X126975042Y-63872934D01*
X127212695Y-63714139D01*
X127476759Y-63604760D01*
X127757088Y-63549000D01*
X128042912Y-63549000D01*
X128323241Y-63604760D01*
G37*
G36*
X170356153Y-63825922D02*
G01*
X170448194Y-63864047D01*
X170578359Y-63917963D01*
X170778342Y-64051587D01*
X170948413Y-64221658D01*
X171082037Y-64421641D01*
X171174078Y-64643848D01*
X171221000Y-64879741D01*
X171221000Y-65120259D01*
X171174078Y-65356152D01*
X171082037Y-65578359D01*
X170948413Y-65778342D01*
X170778342Y-65948413D01*
X170578359Y-66082037D01*
X170469649Y-66127066D01*
X170356153Y-66174078D01*
X170259351Y-66193333D01*
X170120259Y-66221000D01*
X169879741Y-66221000D01*
X169740649Y-66193333D01*
X169643847Y-66174078D01*
X169530351Y-66127066D01*
X169421641Y-66082037D01*
X169221658Y-65948413D01*
X169051587Y-65778342D01*
X168917963Y-65578359D01*
X168825922Y-65356152D01*
X168779000Y-65120259D01*
X168779000Y-64879741D01*
X168825922Y-64643848D01*
X168917963Y-64421641D01*
X169051587Y-64221658D01*
X169221658Y-64051587D01*
X169421641Y-63917963D01*
X169551806Y-63864047D01*
X169643847Y-63825922D01*
X169879741Y-63779000D01*
X170120259Y-63779000D01*
X170356153Y-63825922D01*
G37*
G36*
X170356153Y-58825922D02*
G01*
X170448194Y-58864047D01*
X170578359Y-58917963D01*
X170778342Y-59051587D01*
X170948413Y-59221658D01*
X171082037Y-59421641D01*
X171174078Y-59643848D01*
X171221000Y-59879741D01*
X171221000Y-60120259D01*
X171174078Y-60356152D01*
X171082037Y-60578359D01*
X170948413Y-60778342D01*
X170778342Y-60948413D01*
X170578359Y-61082037D01*
X170448194Y-61135953D01*
X170356153Y-61174078D01*
X170238205Y-61197539D01*
X170120259Y-61221000D01*
X169879741Y-61221000D01*
X169761795Y-61197539D01*
X169643847Y-61174078D01*
X169551806Y-61135953D01*
X169421641Y-61082037D01*
X169221658Y-60948413D01*
X169051587Y-60778342D01*
X168917963Y-60578359D01*
X168825922Y-60356152D01*
X168779000Y-60120259D01*
X168779000Y-59879741D01*
X168825922Y-59643848D01*
X168917963Y-59421641D01*
X169051587Y-59221658D01*
X169221658Y-59051587D01*
X169421641Y-58917963D01*
X169551806Y-58864047D01*
X169643847Y-58825922D01*
X169879741Y-58779000D01*
X170120259Y-58779000D01*
X170356153Y-58825922D01*
G37*
G36*
X122823241Y-52604760D02*
G01*
X123087305Y-52714139D01*
X123324958Y-52872934D01*
X123527066Y-53075042D01*
X123685861Y-53312695D01*
X123795240Y-53576759D01*
X123851000Y-53857088D01*
X123851000Y-54142912D01*
X123795240Y-54423241D01*
X123685861Y-54687305D01*
X123527066Y-54924958D01*
X123324958Y-55127066D01*
X123087305Y-55285861D01*
X122823241Y-55395240D01*
X122542912Y-55451000D01*
X122257088Y-55451000D01*
X121976759Y-55395240D01*
X121712695Y-55285861D01*
X121475042Y-55127066D01*
X121428535Y-55080559D01*
X121409593Y-55065014D01*
X121387982Y-55053463D01*
X121364533Y-55046350D01*
X121340147Y-55043948D01*
X121315761Y-55046350D01*
X121292312Y-55053463D01*
X121270701Y-55065014D01*
X121251759Y-55080559D01*
X121236214Y-55099501D01*
X121224663Y-55121112D01*
X121217550Y-55144561D01*
X121215148Y-55168947D01*
X121217550Y-55193333D01*
X121224663Y-55216782D01*
X121236214Y-55238393D01*
X121285861Y-55312695D01*
X121395240Y-55576759D01*
X121451000Y-55857088D01*
X121451000Y-56142912D01*
X121395240Y-56423241D01*
X121285861Y-56687305D01*
X121127066Y-56924958D01*
X120924958Y-57127066D01*
X120687305Y-57285861D01*
X120423241Y-57395240D01*
X120142912Y-57451000D01*
X119857088Y-57451000D01*
X119576759Y-57395240D01*
X119312695Y-57285861D01*
X119075042Y-57127066D01*
X118872934Y-56924958D01*
X118714139Y-56687305D01*
X118604760Y-56423241D01*
X118549000Y-56142912D01*
X118549000Y-55857088D01*
X118604760Y-55576759D01*
X118714139Y-55312695D01*
X118872934Y-55075042D01*
X119075042Y-54872934D01*
X119312695Y-54714139D01*
X119576759Y-54604760D01*
X119857088Y-54549000D01*
X120142912Y-54549000D01*
X120423241Y-54604760D01*
X120687305Y-54714139D01*
X120924958Y-54872934D01*
X120971465Y-54919441D01*
X120990407Y-54934986D01*
X121012018Y-54946537D01*
X121035467Y-54953650D01*
X121059853Y-54956052D01*
X121084239Y-54953650D01*
X121107688Y-54946537D01*
X121129299Y-54934986D01*
X121148241Y-54919441D01*
X121163786Y-54900499D01*
X121175337Y-54878888D01*
X121182450Y-54855439D01*
X121184852Y-54831053D01*
X121182450Y-54806667D01*
X121175337Y-54783218D01*
X121163786Y-54761607D01*
X121114139Y-54687305D01*
X121004760Y-54423241D01*
X120949000Y-54142912D01*
X120949000Y-53857088D01*
X121004760Y-53576759D01*
X121114139Y-53312695D01*
X121272934Y-53075042D01*
X121475042Y-52872934D01*
X121712695Y-52714139D01*
X121976759Y-52604760D01*
X122257088Y-52549000D01*
X122542912Y-52549000D01*
X122823241Y-52604760D01*
G37*
G36*
X170356153Y-53825922D02*
G01*
X170431394Y-53857088D01*
X170578359Y-53917963D01*
X170778342Y-54051587D01*
X170948413Y-54221658D01*
X171082037Y-54421641D01*
X171174078Y-54643848D01*
X171221000Y-54879741D01*
X171221000Y-55120259D01*
X171174078Y-55356152D01*
X171082037Y-55578359D01*
X170948413Y-55778342D01*
X170778342Y-55948413D01*
X170578359Y-56082037D01*
X170448194Y-56135953D01*
X170356153Y-56174078D01*
X170238205Y-56197539D01*
X170120259Y-56221000D01*
X169879741Y-56221000D01*
X169761795Y-56197539D01*
X169643847Y-56174078D01*
X169551806Y-56135953D01*
X169421641Y-56082037D01*
X169221658Y-55948413D01*
X169051587Y-55778342D01*
X168917963Y-55578359D01*
X168825922Y-55356152D01*
X168779000Y-55120259D01*
X168779000Y-54879741D01*
X168825922Y-54643848D01*
X168917963Y-54421641D01*
X169051587Y-54221658D01*
X169221658Y-54051587D01*
X169421641Y-53917963D01*
X169568606Y-53857088D01*
X169643847Y-53825922D01*
X169879741Y-53779000D01*
X170120259Y-53779000D01*
X170356153Y-53825922D01*
G37*
G36*
X128323241Y-52604760D02*
G01*
X128587305Y-52714139D01*
X128824958Y-52872934D01*
X129027066Y-53075042D01*
X129185861Y-53312695D01*
X129295240Y-53576759D01*
X129351000Y-53857088D01*
X129351000Y-54142912D01*
X129295240Y-54423241D01*
X129185861Y-54687305D01*
X129027066Y-54924958D01*
X128824958Y-55127066D01*
X128587305Y-55285861D01*
X128323241Y-55395240D01*
X128042912Y-55451000D01*
X127757088Y-55451000D01*
X127476759Y-55395240D01*
X127212695Y-55285861D01*
X126975042Y-55127066D01*
X126772934Y-54924958D01*
X126614139Y-54687305D01*
X126504760Y-54423241D01*
X126449000Y-54142912D01*
X126449000Y-53857088D01*
X126504760Y-53576759D01*
X126614139Y-53312695D01*
X126772934Y-53075042D01*
X126975042Y-52872934D01*
X127212695Y-52714139D01*
X127476759Y-52604760D01*
X127757088Y-52549000D01*
X128042912Y-52549000D01*
X128323241Y-52604760D01*
G37*
G36*
X166422416Y-47884879D02*
G01*
X166613592Y-47964067D01*
X166613594Y-47964068D01*
X166745865Y-48052449D01*
X166785648Y-48079031D01*
X166931969Y-48225352D01*
X167046933Y-48397408D01*
X167126121Y-48588584D01*
X167166490Y-48791534D01*
X167166490Y-48998466D01*
X167126121Y-49201416D01*
X167046933Y-49392592D01*
X167046932Y-49392594D01*
X166931969Y-49564648D01*
X166785648Y-49710969D01*
X166613594Y-49825932D01*
X166613593Y-49825933D01*
X166613592Y-49825933D01*
X166422416Y-49905121D01*
X166219466Y-49945490D01*
X166012534Y-49945490D01*
X165809584Y-49905121D01*
X165618408Y-49825933D01*
X165618407Y-49825933D01*
X165618406Y-49825932D01*
X165446352Y-49710969D01*
X165300031Y-49564648D01*
X165185068Y-49392594D01*
X165185067Y-49392592D01*
X165105879Y-49201416D01*
X165065510Y-48998466D01*
X165065510Y-48791534D01*
X165105879Y-48588584D01*
X165185067Y-48397408D01*
X165300031Y-48225352D01*
X165446352Y-48079031D01*
X165486135Y-48052449D01*
X165618406Y-47964068D01*
X165618408Y-47964067D01*
X165809584Y-47884879D01*
X166012534Y-47844510D01*
X166219466Y-47844510D01*
X166422416Y-47884879D01*
G37*
G36*
X173375256Y-45391298D02*
G01*
X173481579Y-45412447D01*
X173782042Y-45536903D01*
X174052451Y-45717585D01*
X174282415Y-45947549D01*
X174463097Y-46217958D01*
X174587553Y-46518421D01*
X174651000Y-46837391D01*
X174651000Y-47162609D01*
X174587553Y-47481579D01*
X174463097Y-47782042D01*
X174282415Y-48052451D01*
X174052451Y-48282415D01*
X173782042Y-48463097D01*
X173481579Y-48587553D01*
X173375256Y-48608702D01*
X173162611Y-48651000D01*
X172837389Y-48651000D01*
X172624744Y-48608702D01*
X172518421Y-48587553D01*
X172217958Y-48463097D01*
X171947549Y-48282415D01*
X171717585Y-48052451D01*
X171536903Y-47782042D01*
X171412447Y-47481579D01*
X171349000Y-47162609D01*
X171349000Y-46837391D01*
X171412447Y-46518421D01*
X171536903Y-46217958D01*
X171717585Y-45947549D01*
X171947549Y-45717585D01*
X172217958Y-45536903D01*
X172518421Y-45412447D01*
X172624744Y-45391298D01*
X172837389Y-45349000D01*
X173162611Y-45349000D01*
X173375256Y-45391298D01*
G37*
G36*
X117375256Y-45391298D02*
G01*
X117481579Y-45412447D01*
X117782042Y-45536903D01*
X118052451Y-45717585D01*
X118282415Y-45947549D01*
X118463097Y-46217958D01*
X118587553Y-46518421D01*
X118651000Y-46837391D01*
X118651000Y-47162609D01*
X118587553Y-47481579D01*
X118463097Y-47782042D01*
X118282415Y-48052451D01*
X118052451Y-48282415D01*
X117782042Y-48463097D01*
X117481579Y-48587553D01*
X117375256Y-48608702D01*
X117162611Y-48651000D01*
X116837389Y-48651000D01*
X116624744Y-48608702D01*
X116518421Y-48587553D01*
X116217958Y-48463097D01*
X115947549Y-48282415D01*
X115717585Y-48052451D01*
X115536903Y-47782042D01*
X115412447Y-47481579D01*
X115349000Y-47162609D01*
X115349000Y-46837391D01*
X115412447Y-46518421D01*
X115536903Y-46217958D01*
X115717585Y-45947549D01*
X115947549Y-45717585D01*
X116217958Y-45536903D01*
X116518421Y-45412447D01*
X116624744Y-45391298D01*
X116837389Y-45349000D01*
X117162611Y-45349000D01*
X117375256Y-45391298D01*
G37*
M02*
